STARTFONT 2.1
COMMENT
COMMENT Converted from OpenType font "Q:\font stuff\winfont\FreeSans.ttf" by "otf2bdf 3.0".
COMMENT
FONT -FreeType-FreeSans-Medium-R-Normal--18-180-72-72-P-104-ISO10646-1
SIZE 18 72 72
FONTBOUNDINGBOX 56 27 -21 -7
STARTPROPERTIES 19
FOUNDRY "FreeType"
FAMILY_NAME "FreeSans"
WEIGHT_NAME "Medium"
SLANT "R"
SETWIDTH_NAME "Normal"
ADD_STYLE_NAME ""
PIXEL_SIZE 18
POINT_SIZE 180
RESOLUTION_X 72
RESOLUTION_Y 72
SPACING "P"
AVERAGE_WIDTH 104
CHARSET_REGISTRY "ISO10646"
CHARSET_ENCODING "1"
FONT_ASCENT 16
FONT_DESCENT 3
COPYRIGHT "Copyright 2002, 2003, 2005, 2008, 2009, 2010, 2012 GNU Freefont contributors."
_OTF_FONTFILE "Q:\font stuff\winfont\FreeSans.ttf"
_OTF_PSNAME "FreeSans"
DEFAULT_CHAR 9633
ENDPROPERTIES
CHARS 4472
STARTCHAR 0020
ENCODING 32
SWIDTH 277 0
DWIDTH 5 0
BBX 0 0 0 0
BITMAP
ENDCHAR
STARTCHAR 0021
ENCODING 33
SWIDTH 333 0
DWIDTH 6 0
BBX 2 13 2 0
BITMAP
C0
C0
C0
C0
C0
C0
C0
C0
C0
C0
80
00
C0
ENDCHAR
STARTCHAR 0022
ENCODING 34
SWIDTH 333 0
DWIDTH 6 0
BBX 5 4 1 9
BITMAP
D8
D8
D8
90
ENDCHAR
STARTCHAR 0023
ENCODING 35
SWIDTH 555 0
DWIDTH 10 0
BBX 10 12 0 0
BITMAP
0980
1900
1900
7FC0
1300
1300
3200
3200
FF80
2600
2600
6400
ENDCHAR
STARTCHAR 0024
ENCODING 36
SWIDTH 555 0
DWIDTH 10 0
BBX 9 16 1 -2
BITMAP
1000
3E00
5300
D180
D180
D000
D000
3C00
1700
1180
D180
D180
5300
7E00
1000
1000
ENDCHAR
STARTCHAR 0025
ENCODING 37
SWIDTH 888 0
DWIDTH 16 0
BBX 16 13 1 -1
BITMAP
3810
EC20
C620
C640
C640
6C80
3880
013C
0277
0263
0463
0477
083C
ENDCHAR
STARTCHAR 0026
ENCODING 38
SWIDTH 666 0
DWIDTH 12 0
BBX 10 13 1 0
BITMAP
0E00
3300
3300
3300
1E00
0C00
3C00
66C0
C2C0
C380
C180
63C0
3C40
ENDCHAR
STARTCHAR 0027
ENCODING 39
SWIDTH 222 0
DWIDTH 4 0
BBX 2 4 1 9
BITMAP
C0
C0
C0
80
ENDCHAR
STARTCHAR 0028
ENCODING 40
SWIDTH 333 0
DWIDTH 6 0
BBX 4 17 1 -4
BITMAP
10
30
20
60
60
C0
C0
C0
C0
C0
C0
40
60
60
20
30
10
ENDCHAR
STARTCHAR 0029
ENCODING 41
SWIDTH 333 0
DWIDTH 6 0
BBX 4 17 1 -4
BITMAP
80
C0
40
60
60
30
30
30
30
30
30
20
60
60
40
C0
80
ENDCHAR
STARTCHAR 002A
ENCODING 42
SWIDTH 388 0
DWIDTH 7 0
BBX 5 5 1 8
BITMAP
20
A8
F8
50
50
ENDCHAR
STARTCHAR 002B
ENCODING 43
SWIDTH 611 0
DWIDTH 11 0
BBX 6 8 3 0
BITMAP
30
30
30
FC
30
30
30
30
ENDCHAR
STARTCHAR 002C
ENCODING 44
SWIDTH 277 0
DWIDTH 5 0
BBX 2 4 2 -3
BITMAP
C0
40
40
80
ENDCHAR
STARTCHAR 002D
ENCODING 45
SWIDTH 333 0
DWIDTH 6 0
BBX 4 1 1 4
BITMAP
F0
ENDCHAR
STARTCHAR 002E
ENCODING 46
SWIDTH 277 0
DWIDTH 5 0
BBX 2 1 1 0
BITMAP
C0
ENDCHAR
STARTCHAR 002F
ENCODING 47
SWIDTH 277 0
DWIDTH 5 0
BBX 5 13 0 0
BITMAP
08
08
10
10
10
20
20
20
40
40
40
80
80
ENDCHAR
STARTCHAR 0030
ENCODING 48
SWIDTH 555 0
DWIDTH 10 0
BBX 8 13 1 0
BITMAP
3C
66
42
C3
C3
C3
C3
C3
C3
C3
42
66
3C
ENDCHAR
STARTCHAR 0031
ENCODING 49
SWIDTH 555 0
DWIDTH 10 0
BBX 4 13 3 0
BITMAP
10
10
30
F0
30
30
30
30
30
30
30
30
30
ENDCHAR
STARTCHAR 0032
ENCODING 50
SWIDTH 555 0
DWIDTH 10 0
BBX 9 13 1 0
BITMAP
3E00
6300
C180
C180
0180
0380
0700
0E00
1800
3000
4000
4000
7F80
ENDCHAR
STARTCHAR 0033
ENCODING 51
SWIDTH 555 0
DWIDTH 10 0
BBX 8 13 1 0
BITMAP
3C
66
C3
C3
03
06
1C
06
03
C3
C3
66
3C
ENDCHAR
STARTCHAR 0034
ENCODING 52
SWIDTH 555 0
DWIDTH 10 0
BBX 7 13 2 0
BITMAP
0C
0C
1C
2C
2C
4C
8C
0C
FE
0C
0C
0C
0C
ENDCHAR
STARTCHAR 0035
ENCODING 53
SWIDTH 555 0
DWIDTH 10 0
BBX 9 13 1 0
BITMAP
7F00
4000
4000
4000
8000
FE00
E300
0180
0180
0180
C180
6300
3E00
ENDCHAR
STARTCHAR 0036
ENCODING 54
SWIDTH 555 0
DWIDTH 10 0
BBX 9 13 1 0
BITMAP
1E00
6300
6180
C000
C000
DE00
E300
C180
C180
C180
4180
6300
3E00
ENDCHAR
STARTCHAR 0037
ENCODING 55
SWIDTH 555 0
DWIDTH 10 0
BBX 8 13 0 0
BITMAP
FF
03
02
06
04
0C
08
18
18
18
10
30
30
ENDCHAR
STARTCHAR 0038
ENCODING 56
SWIDTH 555 0
DWIDTH 10 0
BBX 9 13 1 0
BITMAP
3E00
6300
C180
C180
C180
6300
3E00
6300
C180
C180
C180
6300
3E00
ENDCHAR
STARTCHAR 0039
ENCODING 57
SWIDTH 555 0
DWIDTH 10 0
BBX 8 13 1 0
BITMAP
3C
66
C2
C3
C3
C3
67
3B
03
03
C2
66
3C
ENDCHAR
STARTCHAR 003A
ENCODING 58
SWIDTH 277 0
DWIDTH 5 0
BBX 2 10 1 0
BITMAP
C0
00
00
00
00
00
00
00
00
C0
ENDCHAR
STARTCHAR 003B
ENCODING 59
SWIDTH 277 0
DWIDTH 5 0
BBX 3 12 1 -3
BITMAP
C0
00
00
00
00
00
00
00
60
20
20
40
ENDCHAR
STARTCHAR 003C
ENCODING 60
SWIDTH 611 0
DWIDTH 11 0
BBX 9 9 1 0
BITMAP
0080
0380
1E00
7000
C000
F000
1C00
0700
0180
ENDCHAR
STARTCHAR 003D
ENCODING 61
SWIDTH 611 0
DWIDTH 11 0
BBX 9 4 1 2
BITMAP
FF80
0000
0000
FF80
ENDCHAR
STARTCHAR 003E
ENCODING 62
SWIDTH 611 0
DWIDTH 11 0
BBX 9 8 1 1
BITMAP
E000
3800
0E00
0180
0700
1C00
E000
8000
ENDCHAR
STARTCHAR 003F
ENCODING 63
SWIDTH 555 0
DWIDTH 10 0
BBX 9 13 1 0
BITMAP
3E00
6300
C180
C180
0180
0300
0E00
0C00
1800
1800
0000
0000
1800
ENDCHAR
STARTCHAR 0040
ENCODING 64
SWIDTH 1000 0
DWIDTH 18 0
BBX 17 16 1 -3
BITMAP
03F000
0C1C00
180600
300300
61DB80
663980
C63180
CC3180
CC3180
CC2300
CE6700
67BC00
600000
300000
1C1000
07F000
ENDCHAR
STARTCHAR 0041
ENCODING 65
SWIDTH 666 0
DWIDTH 12 0
BBX 12 13 0 0
BITMAP
0600
0F00
0F00
0900
1980
1980
1080
30C0
3FC0
2040
6060
6060
C030
ENDCHAR
STARTCHAR 0042
ENCODING 66
SWIDTH 666 0
DWIDTH 12 0
BBX 11 13 1 0
BITMAP
FF00
C180
C0C0
C0C0
C0C0
C180
FF00
C0C0
C060
C060
C060
C0C0
FF80
ENDCHAR
STARTCHAR 0043
ENCODING 67
SWIDTH 722 0
DWIDTH 13 0
BBX 11 13 1 0
BITMAP
1F80
30C0
6060
4060
C000
C000
C000
C000
C060
4060
60C0
30C0
1F00
ENDCHAR
STARTCHAR 0044
ENCODING 68
SWIDTH 722 0
DWIDTH 13 0
BBX 11 13 1 0
BITMAP
FF00
C180
C0C0
C060
C060
C060
C060
C060
C060
C060
C0C0
C180
FF00
ENDCHAR
STARTCHAR 0045
ENCODING 69
SWIDTH 611 0
DWIDTH 11 0
BBX 9 13 1 0
BITMAP
FF80
C000
C000
C000
C000
C000
FF00
C000
C000
C000
C000
C000
FF80
ENDCHAR
STARTCHAR 0046
ENCODING 70
SWIDTH 611 0
DWIDTH 11 0
BBX 8 13 1 0
BITMAP
FF
C0
C0
C0
C0
C0
FE
C0
C0
C0
C0
C0
C0
ENDCHAR
STARTCHAR 0047
ENCODING 71
SWIDTH 777 0
DWIDTH 14 0
BBX 12 13 1 0
BITMAP
0F80
30E0
6060
6030
C000
C000
C1F0
C030
C030
6030
6070
30F0
0F10
ENDCHAR
STARTCHAR 0048
ENCODING 72
SWIDTH 722 0
DWIDTH 13 0
BBX 11 13 1 0
BITMAP
C060
C060
C060
C060
C060
C060
FFE0
C060
C060
C060
C060
C060
C060
ENDCHAR
STARTCHAR 0049
ENCODING 73
SWIDTH 277 0
DWIDTH 5 0
BBX 2 13 2 0
BITMAP
C0
C0
C0
C0
C0
C0
C0
C0
C0
C0
C0
C0
C0
ENDCHAR
STARTCHAR 004A
ENCODING 74
SWIDTH 555 0
DWIDTH 10 0
BBX 7 13 1 0
BITMAP
06
06
06
06
06
06
06
06
06
C6
C6
C4
78
ENDCHAR
STARTCHAR 004B
ENCODING 75
SWIDTH 666 0
DWIDTH 12 0
BBX 10 13 1 0
BITMAP
C0C0
C180
C300
C600
CC00
DC00
FC00
E600
C300
C300
C180
C0C0
C0C0
ENDCHAR
STARTCHAR 004C
ENCODING 76
SWIDTH 555 0
DWIDTH 10 0
BBX 8 13 1 0
BITMAP
C0
C0
C0
C0
C0
C0
C0
C0
C0
C0
C0
C0
FF
ENDCHAR
STARTCHAR 004D
ENCODING 77
SWIDTH 833 0
DWIDTH 15 0
BBX 13 13 1 0
BITMAP
E038
E038
F078
F078
D058
D8D8
D8D8
C898
CD98
CD98
C518
C718
C718
ENDCHAR
STARTCHAR 004E
ENCODING 78
SWIDTH 722 0
DWIDTH 13 0
BBX 11 13 1 0
BITMAP
E060
E060
F060
D060
D860
CC60
C460
C660
C360
C360
C1E0
C0E0
C0E0
ENDCHAR
STARTCHAR 004F
ENCODING 79
SWIDTH 777 0
DWIDTH 14 0
BBX 13 13 1 0
BITMAP
0F80
3060
6030
6030
C018
C018
C018
C018
C018
6030
6030
3060
0F80
ENDCHAR
STARTCHAR 0050
ENCODING 80
SWIDTH 666 0
DWIDTH 12 0
BBX 10 13 1 0
BITMAP
FF00
C180
C0C0
C0C0
C0C0
C180
FF00
C000
C000
C000
C000
C000
C000
ENDCHAR
STARTCHAR 0051
ENCODING 81
SWIDTH 777 0
DWIDTH 14 0
BBX 13 14 1 -2
BITMAP
0F80
3060
6030
6030
C018
C018
C018
C018
C018
6030
61B0
3060
0FF0
0010
ENDCHAR
STARTCHAR 0052
ENCODING 82
SWIDTH 722 0
DWIDTH 13 0
BBX 12 13 1 0
BITMAP
FF80
C0E0
C060
C060
C060
C0C0
FF80
C0E0
C060
C060
C060
C060
C070
ENDCHAR
STARTCHAR 0053
ENCODING 83
SWIDTH 666 0
DWIDTH 12 0
BBX 10 13 1 0
BITMAP
3F00
6180
C0C0
C0C0
C000
7800
1F00
0380
00C0
C0C0
C0C0
6180
3F00
ENDCHAR
STARTCHAR 0054
ENCODING 84
SWIDTH 611 0
DWIDTH 11 0
BBX 8 13 2 0
BITMAP
FF
18
18
18
18
18
18
18
18
18
18
18
18
ENDCHAR
STARTCHAR 0055
ENCODING 85
SWIDTH 722 0
DWIDTH 13 0
BBX 11 13 1 0
BITMAP
C060
C060
C060
C060
C060
C060
C060
C060
C060
C060
C060
60C0
1F00
ENDCHAR
STARTCHAR 0056
ENCODING 86
SWIDTH 666 0
DWIDTH 12 0
BBX 11 13 0 0
BITMAP
C060
6060
6040
20C0
30C0
3080
1180
1980
1900
0B00
0F00
0E00
0600
ENDCHAR
STARTCHAR 0057
ENCODING 87
SWIDTH 944 0
DWIDTH 17 0
BBX 16 13 0 0
BITMAP
C1C1
61C3
61C3
6143
6262
2266
3226
3626
1434
1434
1C1C
181C
0818
ENDCHAR
STARTCHAR 0058
ENCODING 88
SWIDTH 666 0
DWIDTH 12 0
BBX 10 13 1 0
BITMAP
C0C0
6180
6180
3300
1E00
1C00
0C00
1E00
3200
3300
6180
C1C0
C0C0
ENDCHAR
STARTCHAR 0059
ENCODING 89
SWIDTH 666 0
DWIDTH 12 0
BBX 12 13 0 0
BITMAP
C030
6060
30C0
30C0
1980
1D80
0F00
0600
0600
0600
0600
0600
0600
ENDCHAR
STARTCHAR 005A
ENCODING 90
SWIDTH 611 0
DWIDTH 11 0
BBX 10 13 1 0
BITMAP
FFC0
0180
0300
0300
0600
0C00
1C00
1800
3000
6000
6000
C000
FFC0
ENDCHAR
STARTCHAR 005B
ENCODING 91
SWIDTH 277 0
DWIDTH 5 0
BBX 3 17 1 -4
BITMAP
E0
C0
C0
C0
C0
C0
C0
C0
C0
C0
C0
C0
C0
C0
C0
C0
E0
ENDCHAR
STARTCHAR 005C
ENCODING 92
SWIDTH 277 0
DWIDTH 5 0
BBX 5 13 0 0
BITMAP
80
80
40
40
40
20
20
20
10
10
10
08
08
ENDCHAR
STARTCHAR 005D
ENCODING 93
SWIDTH 277 0
DWIDTH 5 0
BBX 3 17 0 -4
BITMAP
E0
60
60
60
60
60
60
60
60
60
60
60
60
60
60
60
E0
ENDCHAR
STARTCHAR 005E
ENCODING 94
SWIDTH 444 0
DWIDTH 8 0
BBX 7 7 1 6
BITMAP
30
30
28
48
4C
C4
86
ENDCHAR
STARTCHAR 005F
ENCODING 95
SWIDTH 555 0
DWIDTH 10 0
BBX 10 1 0 -3
BITMAP
FFC0
ENDCHAR
STARTCHAR 0060
ENCODING 96
SWIDTH 277 0
DWIDTH 5 0
BBX 4 3 0 10
BITMAP
C0
60
30
ENDCHAR
STARTCHAR 0061
ENCODING 97
SWIDTH 555 0
DWIDTH 10 0
BBX 9 10 1 0
BITMAP
7E00
E300
C300
0300
0F00
7B00
C300
C300
C700
7B80
ENDCHAR
STARTCHAR 0062
ENCODING 98
SWIDTH 555 0
DWIDTH 10 0
BBX 9 13 1 0
BITMAP
C000
C000
C000
DE00
E300
C180
C180
C180
C180
C180
C180
E300
DE00
ENDCHAR
STARTCHAR 0063
ENCODING 99
SWIDTH 500 0
DWIDTH 9 0
BBX 8 10 1 0
BITMAP
3C
66
C3
C0
C0
C0
C0
C3
66
3C
ENDCHAR
STARTCHAR 0064
ENCODING 100
SWIDTH 555 0
DWIDTH 10 0
BBX 8 13 1 0
BITMAP
03
03
03
3B
67
C3
C3
C3
C3
C3
C3
67
3B
ENDCHAR
STARTCHAR 0065
ENCODING 101
SWIDTH 555 0
DWIDTH 10 0
BBX 8 10 1 0
BITMAP
3C
66
C3
C3
FF
C0
C0
C3
66
3C
ENDCHAR
STARTCHAR 0066
ENCODING 102
SWIDTH 277 0
DWIDTH 5 0
BBX 4 13 1 0
BITMAP
30
60
60
F0
60
60
60
60
60
60
60
60
60
ENDCHAR
STARTCHAR 0067
ENCODING 103
SWIDTH 555 0
DWIDTH 10 0
BBX 8 14 1 -4
BITMAP
3B
67
C3
C3
C3
C3
C3
C3
67
3B
03
03
C6
7C
ENDCHAR
STARTCHAR 0068
ENCODING 104
SWIDTH 555 0
DWIDTH 10 0
BBX 8 13 1 0
BITMAP
C0
C0
C0
DE
E3
C3
C3
C3
C3
C3
C3
C3
C3
ENDCHAR
STARTCHAR 0069
ENCODING 105
SWIDTH 222 0
DWIDTH 4 0
BBX 2 13 1 0
BITMAP
C0
00
00
C0
C0
C0
C0
C0
C0
C0
C0
C0
C0
ENDCHAR
STARTCHAR 006A
ENCODING 106
SWIDTH 222 0
DWIDTH 4 0
BBX 4 17 0 -4
BITMAP
30
00
00
30
30
30
30
30
30
30
30
30
30
30
30
30
E0
ENDCHAR
STARTCHAR 006B
ENCODING 107
SWIDTH 500 0
DWIDTH 9 0
BBX 8 13 1 0
BITMAP
C0
C0
C0
C2
C4
CC
D8
F8
EC
C4
C6
C3
C3
ENDCHAR
STARTCHAR 006C
ENCODING 108
SWIDTH 222 0
DWIDTH 4 0
BBX 2 13 1 0
BITMAP
C0
C0
C0
C0
C0
C0
C0
C0
C0
C0
C0
C0
C0
ENDCHAR
STARTCHAR 006D
ENCODING 109
SWIDTH 833 0
DWIDTH 15 0
BBX 13 10 1 0
BITMAP
DEF0
E398
C318
C318
C318
C318
C318
C318
C318
C318
ENDCHAR
STARTCHAR 006E
ENCODING 110
SWIDTH 555 0
DWIDTH 10 0
BBX 8 10 1 0
BITMAP
DE
E7
C3
C3
C3
C3
C3
C3
C3
C3
ENDCHAR
STARTCHAR 006F
ENCODING 111
SWIDTH 555 0
DWIDTH 10 0
BBX 8 10 1 0
BITMAP
3C
66
C3
C3
C3
C3
C3
C3
66
3C
ENDCHAR
STARTCHAR 0070
ENCODING 112
SWIDTH 555 0
DWIDTH 10 0
BBX 9 13 1 -3
BITMAP
DE00
E300
C180
C180
C180
C180
C180
C180
E300
DE00
C000
C000
C000
ENDCHAR
STARTCHAR 0071
ENCODING 113
SWIDTH 555 0
DWIDTH 10 0
BBX 8 13 1 -3
BITMAP
3B
67
C3
C3
C3
C3
C3
C3
67
3B
03
03
03
ENDCHAR
STARTCHAR 0072
ENCODING 114
SWIDTH 333 0
DWIDTH 6 0
BBX 5 10 1 0
BITMAP
D8
E0
C0
C0
C0
C0
C0
C0
C0
C0
ENDCHAR
STARTCHAR 0073
ENCODING 115
SWIDTH 500 0
DWIDTH 9 0
BBX 8 10 1 0
BITMAP
3E
E3
C0
C0
E0
3C
07
C3
E3
7E
ENDCHAR
STARTCHAR 0074
ENCODING 116
SWIDTH 277 0
DWIDTH 5 0
BBX 4 12 1 0
BITMAP
60
60
F0
60
60
60
60
60
60
60
60
70
ENDCHAR
STARTCHAR 0075
ENCODING 117
SWIDTH 555 0
DWIDTH 10 0
BBX 8 10 1 0
BITMAP
C3
C3
C3
C3
C3
C3
C3
C3
C7
7B
ENDCHAR
STARTCHAR 0076
ENCODING 118
SWIDTH 500 0
DWIDTH 9 0
BBX 9 10 0 0
BITMAP
C180
4100
6300
6200
2200
3600
3400
1400
1C00
1800
ENDCHAR
STARTCHAR 0077
ENCODING 119
SWIDTH 722 0
DWIDTH 13 0
BBX 13 10 0 0
BITMAP
C618
C710
4710
6530
6D30
2DA0
29A0
38E0
38C0
18C0
ENDCHAR
STARTCHAR 0078
ENCODING 120
SWIDTH 500 0
DWIDTH 9 0
BBX 7 10 1 0
BITMAP
86
C4
6C
38
30
38
78
4C
C4
86
ENDCHAR
STARTCHAR 0079
ENCODING 121
SWIDTH 500 0
DWIDTH 9 0
BBX 8 14 0 -4
BITMAP
C1
43
63
62
26
36
34
1C
1C
18
18
18
10
60
ENDCHAR
STARTCHAR 007A
ENCODING 122
SWIDTH 500 0
DWIDTH 9 0
BBX 7 10 1 0
BITMAP
FE
06
0C
18
18
30
60
40
C0
FE
ENDCHAR
STARTCHAR 007B
ENCODING 123
SWIDTH 333 0
DWIDTH 6 0
BBX 4 17 1 -4
BITMAP
30
60
60
60
60
60
60
E0
C0
E0
60
60
60
60
60
60
30
ENDCHAR
STARTCHAR 007C
ENCODING 124
SWIDTH 222 0
DWIDTH 4 0
BBX 2 17 2 -4
BITMAP
C0
C0
C0
C0
C0
C0
C0
C0
C0
C0
C0
C0
C0
C0
C0
C0
C0
ENDCHAR
STARTCHAR 007D
ENCODING 125
SWIDTH 333 0
DWIDTH 6 0
BBX 4 17 1 -4
BITMAP
C0
60
60
60
60
60
60
70
30
70
60
60
60
60
60
60
C0
ENDCHAR
STARTCHAR 007E
ENCODING 126
SWIDTH 500 0
DWIDTH 9 0
BBX 7 3 1 5
BITMAP
60
92
0E
ENDCHAR
STARTCHAR 00A0
ENCODING 160
SWIDTH 277 0
DWIDTH 5 0
BBX 0 0 0 0
BITMAP
ENDCHAR
STARTCHAR 00A1
ENCODING 161
SWIDTH 333 0
DWIDTH 6 0
BBX 2 13 2 -4
BITMAP
C0
00
40
C0
C0
C0
C0
C0
C0
C0
C0
C0
C0
ENDCHAR
STARTCHAR 00A2
ENCODING 162
SWIDTH 555 0
DWIDTH 10 0
BBX 9 14 1 -2
BITMAP
0800
0800
3E00
6B00
C980
C800
C800
C800
C800
C980
6B00
3E00
0800
0800
ENDCHAR
STARTCHAR 00A3
ENCODING 163
SWIDTH 555 0
DWIDTH 10 0
BBX 10 13 0 0
BITMAP
1F00
3180
60C0
60C0
6000
3000
FC00
1800
1800
1800
3000
7E40
43C0
ENDCHAR
STARTCHAR 00A4
ENCODING 164
SWIDTH 555 0
DWIDTH 10 0
BBX 7 6 2 3
BITMAP
FE
EE
C6
C6
CE
FE
ENDCHAR
STARTCHAR 00A5
ENCODING 165
SWIDTH 555 0
DWIDTH 10 0
BBX 8 13 1 0
BITMAP
C3
42
42
24
24
3C
18
7E
18
7E
18
18
18
ENDCHAR
STARTCHAR 00A6
ENCODING 166
SWIDTH 277 0
DWIDTH 5 0
BBX 2 17 2 -4
BITMAP
C0
C0
C0
C0
C0
C0
C0
00
00
00
C0
C0
C0
C0
C0
C0
C0
ENDCHAR
STARTCHAR 00A7
ENCODING 167
SWIDTH 555 0
DWIDTH 10 0
BBX 9 17 1 -4
BITMAP
0C00
1200
3300
3300
3800
3C00
C600
C380
E180
7180
1900
0E00
0700
6300
6300
3300
1E00
ENDCHAR
STARTCHAR 00A8
ENCODING 168
SWIDTH 333 0
DWIDTH 6 0
BBX 6 1 0 11
BITMAP
CC
ENDCHAR
STARTCHAR 00A9
ENCODING 169
SWIDTH 777 0
DWIDTH 14 0
BBX 14 13 1 0
BITMAP
0FC0
1860
7030
6F18
D98C
D80C
D00C
D00C
D80C
7998
7F38
1860
0FC0
ENDCHAR
STARTCHAR 00AA
ENCODING 170
SWIDTH 388 0
DWIDTH 7 0
BBX 5 8 1 5
BITMAP
70
90
30
D0
90
F8
00
F8
ENDCHAR
STARTCHAR 00AB
ENCODING 171
SWIDTH 500 0
DWIDTH 9 0
BBX 7 6 1 2
BITMAP
22
66
C8
C8
66
22
ENDCHAR
STARTCHAR 00AC
ENCODING 172
SWIDTH 611 0
DWIDTH 11 0
BBX 9 5 2 1
BITMAP
FF80
0180
0180
0180
0180
ENDCHAR
STARTCHAR 00AD
ENCODING 173
SWIDTH 333 0
DWIDTH 6 0
BBX 4 1 1 4
BITMAP
F0
ENDCHAR
STARTCHAR 00AE
ENCODING 174
SWIDTH 777 0
DWIDTH 14 0
BBX 14 13 1 0
BITMAP
0FC0
1860
7030
7F98
D08C
D08C
DF0C
D08C
D08C
7098
70B8
1860
0FC0
ENDCHAR
STARTCHAR 00AF
ENCODING 175
SWIDTH 333 0
DWIDTH 6 0
BBX 5 1 0 12
BITMAP
F8
ENDCHAR
STARTCHAR 00B0
ENCODING 176
SWIDTH 611 0
DWIDTH 11 0
BBX 5 5 3 7
BITMAP
70
88
88
88
70
ENDCHAR
STARTCHAR 00B1
ENCODING 177
SWIDTH 611 0
DWIDTH 11 0
BBX 9 11 1 0
BITMAP
0C00
0C00
0C00
3F00
0C00
0C00
0C00
0C00
0000
0000
FF80
ENDCHAR
STARTCHAR 00B2
ENCODING 178
SWIDTH 333 0
DWIDTH 6 0
BBX 6 8 1 7
BITMAP
78
CC
0C
0C
10
60
40
FC
ENDCHAR
STARTCHAR 00B3
ENCODING 179
SWIDTH 333 0
DWIDTH 6 0
BBX 7 8 0 7
BITMAP
7C
C6
06
18
06
06
C6
7C
ENDCHAR
STARTCHAR 00B4
ENCODING 180
SWIDTH 333 0
DWIDTH 6 0
BBX 4 3 2 10
BITMAP
30
60
C0
ENDCHAR
STARTCHAR 00B5
ENCODING 181
SWIDTH 555 0
DWIDTH 10 0
BBX 9 13 1 -3
BITMAP
C300
C300
C300
C300
C300
C300
C300
C300
E700
FB80
C000
C000
C000
ENDCHAR
STARTCHAR 00B6
ENCODING 182
SWIDTH 555 0
DWIDTH 10 0
BBX 8 16 2 -3
BITMAP
3F
7E
FE
FE
FE
FE
FE
7E
1E
1E
1E
1E
1E
1E
1E
1E
ENDCHAR
STARTCHAR 00B7
ENCODING 183
SWIDTH 277 0
DWIDTH 5 0
BBX 3 1 1 5
BITMAP
E0
ENDCHAR
STARTCHAR 00B8
ENCODING 184
SWIDTH 333 0
DWIDTH 6 0
BBX 5 4 1 -4
BITMAP
20
38
18
F0
ENDCHAR
STARTCHAR 00B9
ENCODING 185
SWIDTH 333 0
DWIDTH 6 0
BBX 3 7 2 6
BITMAP
20
E0
60
60
60
60
60
ENDCHAR
STARTCHAR 00BA
ENCODING 186
SWIDTH 388 0
DWIDTH 7 0
BBX 5 8 1 5
BITMAP
70
88
88
88
88
70
00
F8
ENDCHAR
STARTCHAR 00BB
ENCODING 187
SWIDTH 500 0
DWIDTH 9 0
BBX 7 6 1 2
BITMAP
88
CC
26
26
CC
88
ENDCHAR
STARTCHAR 00BC
ENCODING 188
SWIDTH 888 0
DWIDTH 16 0
BBX 14 13 2 -1
BITMAP
2040
E040
6080
6080
6100
6100
6218
0218
0478
0C98
087C
1018
1018
ENDCHAR
STARTCHAR 00BD
ENCODING 189
SWIDTH 888 0
DWIDTH 16 0
BBX 14 13 2 0
BITMAP
2000
E040
6080
6080
6100
6378
62CC
040C
0C0C
0810
1860
30C0
20FC
ENDCHAR
STARTCHAR 00BE
ENCODING 190
SWIDTH 888 0
DWIDTH 16 0
BBX 15 13 1 -1
BITMAP
7810
CC20
0C40
1040
0C80
0C80
CD0C
7A0C
023C
044C
043E
080C
000C
ENDCHAR
STARTCHAR 00BF
ENCODING 191
SWIDTH 555 0
DWIDTH 10 0
BBX 9 13 1 -4
BITMAP
0C00
0000
0000
0C00
0C00
1800
3800
6000
C000
C180
C180
6300
3E00
ENDCHAR
STARTCHAR 00C0
ENCODING 192
SWIDTH 666 0
DWIDTH 12 0
BBX 12 16 0 0
BITMAP
0C00
0600
0000
0600
0F00
0F00
0900
1980
1980
1080
30C0
3FC0
2040
6060
6060
C030
ENDCHAR
STARTCHAR 00C1
ENCODING 193
SWIDTH 666 0
DWIDTH 12 0
BBX 12 16 0 0
BITMAP
0300
0600
0000
0600
0F00
0F00
0900
1980
1980
1080
30C0
3FC0
2040
6060
6060
C030
ENDCHAR
STARTCHAR 00C2
ENCODING 194
SWIDTH 666 0
DWIDTH 12 0
BBX 12 16 0 0
BITMAP
0E00
1B00
0000
0600
0F00
0F00
0900
1980
1980
1080
30C0
3FC0
2040
6060
6060
C030
ENDCHAR
STARTCHAR 00C3
ENCODING 195
SWIDTH 666 0
DWIDTH 12 0
BBX 12 16 0 1
BITMAP
0D00
1300
0000
0600
0F00
0F00
0900
1980
1980
1080
30C0
3FC0
2040
6060
6060
C030
ENDCHAR
STARTCHAR 00C4
ENCODING 196
SWIDTH 666 0
DWIDTH 12 0
BBX 12 15 0 0
BITMAP
1980
0000
0600
0F00
0F00
0900
1980
1980
1080
30C0
3FC0
2040
6060
6060
C030
ENDCHAR
STARTCHAR 00C5
ENCODING 197
SWIDTH 666 0
DWIDTH 12 0
BBX 12 17 0 1
BITMAP
0F80
0D80
0D80
0200
0600
0F00
0F00
0900
1980
1980
1080
30C0
3FC0
2040
6060
6060
C030
ENDCHAR
STARTCHAR 00C6
ENCODING 198
SWIDTH 1000 0
DWIDTH 18 0
BBX 16 13 1 0
BITMAP
07FF
04C0
0CC0
08C0
18C0
18C0
30FF
30C0
3FC0
60C0
60C0
C0C0
C0FF
ENDCHAR
STARTCHAR 00C7
ENCODING 199
SWIDTH 722 0
DWIDTH 13 0
BBX 11 17 1 -4
BITMAP
1F00
30C0
60E0
4060
C000
C000
C000
C000
C060
4060
60C0
31C0
1F00
0400
0700
0300
0E00
ENDCHAR
STARTCHAR 00C8
ENCODING 200
SWIDTH 611 0
DWIDTH 11 0
BBX 9 16 1 0
BITMAP
1800
0C00
0000
FF80
C000
C000
C000
C000
C000
FF00
C000
C000
C000
C000
C000
FF80
ENDCHAR
STARTCHAR 00C9
ENCODING 201
SWIDTH 611 0
DWIDTH 11 0
BBX 9 16 1 0
BITMAP
0C00
1800
0000
FF80
C000
C000
C000
C000
C000
FF00
C000
C000
C000
C000
C000
FF80
ENDCHAR
STARTCHAR 00CA
ENCODING 202
SWIDTH 611 0
DWIDTH 11 0
BBX 9 16 1 0
BITMAP
1C00
3600
0000
FF80
C000
C000
C000
C000
C000
FF00
C000
C000
C000
C000
C000
FF80
ENDCHAR
STARTCHAR 00CB
ENCODING 203
SWIDTH 611 0
DWIDTH 11 0
BBX 9 15 1 1
BITMAP
3300
0000
FF80
C000
C000
C000
C000
C000
FF00
C000
C000
C000
C000
C000
FF80
ENDCHAR
STARTCHAR 00CC
ENCODING 204
SWIDTH 277 0
DWIDTH 5 0
BBX 3 16 1 0
BITMAP
C0
60
00
60
60
60
60
60
60
60
60
60
60
60
60
60
ENDCHAR
STARTCHAR 00CD
ENCODING 205
SWIDTH 277 0
DWIDTH 5 0
BBX 3 16 1 0
BITMAP
60
C0
00
60
60
60
60
60
60
60
60
60
60
60
60
60
ENDCHAR
STARTCHAR 00CE
ENCODING 206
SWIDTH 277 0
DWIDTH 5 0
BBX 5 16 0 0
BITMAP
70
D8
00
30
30
30
30
30
30
30
30
30
30
30
30
30
ENDCHAR
STARTCHAR 00CF
ENCODING 207
SWIDTH 277 0
DWIDTH 5 0
BBX 6 15 0 0
BITMAP
CC
00
30
30
30
30
30
30
30
30
30
30
30
30
30
ENDCHAR
STARTCHAR 00D0
ENCODING 208
SWIDTH 722 0
DWIDTH 13 0
BBX 11 13 1 0
BITMAP
7F00
6180
60C0
6060
6060
6060
F860
6060
6060
6060
60C0
61C0
7F00
ENDCHAR
STARTCHAR 00D1
ENCODING 209
SWIDTH 722 0
DWIDTH 13 0
BBX 11 16 1 0
BITMAP
1900
1600
0000
E060
E060
F060
D060
D860
CC60
C460
C660
C360
C360
C1E0
C0E0
C0E0
ENDCHAR
STARTCHAR 00D2
ENCODING 210
SWIDTH 777 0
DWIDTH 14 0
BBX 13 16 1 0
BITMAP
0C00
0600
0000
0F80
3060
6030
6030
C018
C018
C018
C018
C018
6030
6030
3060
0F80
ENDCHAR
STARTCHAR 00D3
ENCODING 211
SWIDTH 777 0
DWIDTH 14 0
BBX 13 16 1 0
BITMAP
0300
0600
0000
0F80
3060
6030
6030
C018
C018
C018
C018
C018
6030
6030
3060
0F80
ENDCHAR
STARTCHAR 00D4
ENCODING 212
SWIDTH 777 0
DWIDTH 14 0
BBX 13 16 1 0
BITMAP
0E00
1B00
0000
0F80
3060
6030
6030
C018
C018
C018
C018
C018
6030
6030
3060
0F80
ENDCHAR
STARTCHAR 00D5
ENCODING 213
SWIDTH 777 0
DWIDTH 14 0
BBX 13 16 1 0
BITMAP
0D00
1300
0000
0F80
3060
6030
6030
C018
C018
C018
C018
C018
6030
6030
3060
0F80
ENDCHAR
STARTCHAR 00D6
ENCODING 214
SWIDTH 777 0
DWIDTH 14 0
BBX 13 15 1 1
BITMAP
1980
0000
0F80
3060
6030
6030
C018
C018
C018
C018
C018
6030
6030
3060
0F80
ENDCHAR
STARTCHAR 00D7
ENCODING 215
SWIDTH 611 0
DWIDTH 11 0
BBX 7 7 2 0
BITMAP
80
C4
68
30
38
4C
86
ENDCHAR
STARTCHAR 00D8
ENCODING 216
SWIDTH 777 0
DWIDTH 14 0
BBX 13 13 1 1
BITMAP
0FD8
3060
6070
60F0
C198
C118
C218
C418
C818
7030
6030
7060
8F80
ENDCHAR
STARTCHAR 00D9
ENCODING 217
SWIDTH 722 0
DWIDTH 13 0
BBX 11 16 1 0
BITMAP
0C00
0600
0000
C060
C060
C060
C060
C060
C060
C060
C060
C060
C060
C060
60C0
1F00
ENDCHAR
STARTCHAR 00DA
ENCODING 218
SWIDTH 722 0
DWIDTH 13 0
BBX 11 16 1 0
BITMAP
0600
0C00
0000
C060
C060
C060
C060
C060
C060
C060
C060
C060
C060
C060
60C0
1F00
ENDCHAR
STARTCHAR 00DB
ENCODING 219
SWIDTH 722 0
DWIDTH 13 0
BBX 11 16 1 0
BITMAP
0E00
1B00
0000
C060
C060
C060
C060
C060
C060
C060
C060
C060
C060
C060
60C0
1F00
ENDCHAR
STARTCHAR 00DC
ENCODING 220
SWIDTH 722 0
DWIDTH 13 0
BBX 11 15 1 0
BITMAP
1980
0000
C060
C060
C060
C060
C060
C060
C060
C060
C060
C060
C060
60C0
1F00
ENDCHAR
STARTCHAR 00DD
ENCODING 221
SWIDTH 666 0
DWIDTH 12 0
BBX 12 16 0 0
BITMAP
0300
0600
0000
C030
6060
30C0
30C0
1980
1D80
0F00
0600
0600
0600
0600
0600
0600
ENDCHAR
STARTCHAR 00DE
ENCODING 222
SWIDTH 666 0
DWIDTH 12 0
BBX 10 13 1 0
BITMAP
C000
C000
FF00
C180
C0C0
C0C0
C0C0
C180
FF00
C000
C000
C000
C000
ENDCHAR
STARTCHAR 00DF
ENCODING 223
SWIDTH 611 0
DWIDTH 11 0
BBX 9 13 1 0
BITMAP
3C00
6600
C300
C300
C300
C600
CE00
C300
C180
C180
C180
C300
DE00
ENDCHAR
STARTCHAR 00E0
ENCODING 224
SWIDTH 555 0
DWIDTH 10 0
BBX 9 13 1 0
BITMAP
6000
3000
1800
7E00
E300
C300
0300
0F00
7B00
C300
C300
C700
7B80
ENDCHAR
STARTCHAR 00E1
ENCODING 225
SWIDTH 555 0
DWIDTH 10 0
BBX 9 13 1 0
BITMAP
0C00
0800
1000
7E00
E300
C300
0300
0F00
7B00
C300
C300
C700
7B80
ENDCHAR
STARTCHAR 00E2
ENCODING 226
SWIDTH 555 0
DWIDTH 10 0
BBX 9 13 1 0
BITMAP
1000
2800
6C00
7E00
E300
C300
0300
0F00
7B00
C300
C300
C700
7B80
ENDCHAR
STARTCHAR 00E3
ENCODING 227
SWIDTH 555 0
DWIDTH 10 0
BBX 9 13 1 0
BITMAP
2400
5C00
0000
7E00
E300
C300
0300
0F00
7B00
C300
C300
C700
7B80
ENDCHAR
STARTCHAR 00E4
ENCODING 228
SWIDTH 555 0
DWIDTH 10 0
BBX 9 12 1 1
BITMAP
6600
0000
7E00
E300
C300
0300
0F00
7B00
C300
C300
C700
7B80
ENDCHAR
STARTCHAR 00E5
ENCODING 229
SWIDTH 555 0
DWIDTH 10 0
BBX 9 14 1 0
BITMAP
1C00
3600
3600
1C00
7E00
E300
C300
0300
0F00
7B00
C300
C300
C700
7B80
ENDCHAR
STARTCHAR 00E6
ENCODING 230
SWIDTH 888 0
DWIDTH 16 0
BBX 15 10 1 0
BITMAP
7EF8
E38C
C306
0306
3FFE
E300
C300
C306
C78C
78F8
ENDCHAR
STARTCHAR 00E7
ENCODING 231
SWIDTH 500 0
DWIDTH 9 0
BBX 8 14 1 -4
BITMAP
3C
66
C3
C0
C0
C0
C0
C3
66
3C
10
1C
0C
38
ENDCHAR
STARTCHAR 00E8
ENCODING 232
SWIDTH 555 0
DWIDTH 10 0
BBX 8 13 1 0
BITMAP
60
30
18
3C
66
C3
C3
FF
C0
C0
C3
66
3C
ENDCHAR
STARTCHAR 00E9
ENCODING 233
SWIDTH 555 0
DWIDTH 10 0
BBX 8 13 1 0
BITMAP
0C
08
18
3C
66
C3
C3
FF
C0
C0
C3
66
3C
ENDCHAR
STARTCHAR 00EA
ENCODING 234
SWIDTH 555 0
DWIDTH 10 0
BBX 8 13 1 0
BITMAP
10
28
6C
3C
66
C3
C3
FF
C0
C0
C3
66
3C
ENDCHAR
STARTCHAR 00EB
ENCODING 235
SWIDTH 555 0
DWIDTH 10 0
BBX 8 12 1 1
BITMAP
66
00
3C
66
C3
C3
FF
C0
C0
C3
66
3C
ENDCHAR
STARTCHAR 00EC
ENCODING 236
SWIDTH 222 0
DWIDTH 4 0
BBX 3 13 0 0
BITMAP
C0
60
20
60
60
60
60
60
60
60
60
60
60
ENDCHAR
STARTCHAR 00ED
ENCODING 237
SWIDTH 222 0
DWIDTH 4 0
BBX 3 13 1 0
BITMAP
60
C0
80
C0
C0
C0
C0
C0
C0
C0
C0
C0
C0
ENDCHAR
STARTCHAR 00EE
ENCODING 238
SWIDTH 277 0
DWIDTH 5 0
BBX 4 13 0 0
BITMAP
60
E0
90
60
60
60
60
60
60
60
60
60
60
ENDCHAR
STARTCHAR 00EF
ENCODING 239
SWIDTH 277 0
DWIDTH 5 0
BBX 6 12 -1 1
BITMAP
CC
00
30
30
30
30
30
30
30
30
30
30
ENDCHAR
STARTCHAR 00F0
ENCODING 240
SWIDTH 555 0
DWIDTH 10 0
BBX 8 13 1 1
BITMAP
38
38
0C
3E
66
C3
C3
C3
C3
C3
C3
66
3C
ENDCHAR
STARTCHAR 00F1
ENCODING 241
SWIDTH 555 0
DWIDTH 10 0
BBX 8 13 1 0
BITMAP
24
5C
00
DE
E7
C3
C3
C3
C3
C3
C3
C3
C3
ENDCHAR
STARTCHAR 00F2
ENCODING 242
SWIDTH 555 0
DWIDTH 10 0
BBX 8 13 1 0
BITMAP
60
30
18
3C
66
C3
C3
C3
C3
C3
C3
66
3C
ENDCHAR
STARTCHAR 00F3
ENCODING 243
SWIDTH 555 0
DWIDTH 10 0
BBX 8 13 1 0
BITMAP
0C
08
10
3C
66
C3
C3
C3
C3
C3
C3
66
3C
ENDCHAR
STARTCHAR 00F4
ENCODING 244
SWIDTH 555 0
DWIDTH 10 0
BBX 8 13 1 0
BITMAP
30
38
48
3C
66
C3
C3
C3
C3
C3
C3
66
3C
ENDCHAR
STARTCHAR 00F5
ENCODING 245
SWIDTH 555 0
DWIDTH 10 0
BBX 8 13 1 0
BITMAP
24
5C
00
3C
66
C3
C3
C3
C3
C3
C3
66
3C
ENDCHAR
STARTCHAR 00F6
ENCODING 246
SWIDTH 555 0
DWIDTH 10 0
BBX 8 12 1 1
BITMAP
66
00
3C
66
C3
C3
C3
C3
C3
C3
66
3C
ENDCHAR
STARTCHAR 00F7
ENCODING 247
SWIDTH 611 0
DWIDTH 11 0
BBX 9 8 1 0
BITMAP
1800
0000
0000
FF80
0000
0000
0000
1800
ENDCHAR
STARTCHAR 00F8
ENCODING 248
SWIDTH 555 0
DWIDTH 10 0
BBX 8 10 1 -1
BITMAP
3D
66
C7
CB
CB
D3
D3
E3
66
BC
ENDCHAR
STARTCHAR 00F9
ENCODING 249
SWIDTH 555 0
DWIDTH 10 0
BBX 8 13 1 0
BITMAP
60
30
18
C3
C3
C3
C3
C3
C3
C3
C3
C7
7B
ENDCHAR
STARTCHAR 00FA
ENCODING 250
SWIDTH 555 0
DWIDTH 10 0
BBX 8 13 1 0
BITMAP
06
0C
18
C3
C3
C3
C3
C3
C3
C3
C3
C7
7B
ENDCHAR
STARTCHAR 00FB
ENCODING 251
SWIDTH 555 0
DWIDTH 10 0
BBX 8 13 1 0
BITMAP
30
28
68
C3
C3
C3
C3
C3
C3
C3
C3
C7
7B
ENDCHAR
STARTCHAR 00FC
ENCODING 252
SWIDTH 555 0
DWIDTH 10 0
BBX 8 12 1 1
BITMAP
66
00
C3
C3
C3
C3
C3
C3
C3
C3
C7
7B
ENDCHAR
STARTCHAR 00FD
ENCODING 253
SWIDTH 500 0
DWIDTH 9 0
BBX 8 17 0 -4
BITMAP
06
04
08
C1
43
63
62
26
36
34
1C
1C
18
18
18
10
60
ENDCHAR
STARTCHAR 00FE
ENCODING 254
SWIDTH 555 0
DWIDTH 10 0
BBX 9 16 1 -3
BITMAP
C000
C000
C000
DE00
E300
C180
C180
C180
C180
C180
C180
E300
DE00
C000
C000
C000
ENDCHAR
STARTCHAR 00FF
ENCODING 255
SWIDTH 500 0
DWIDTH 9 0
BBX 8 16 0 -3
BITMAP
33
00
C1
43
63
62
26
36
34
1C
1C
18
18
18
10
60
ENDCHAR
STARTCHAR 0100
ENCODING 256
SWIDTH 666 0
DWIDTH 12 0
BBX 12 16 0 1
BITMAP
1F00
0000
0000
0600
0F00
0F00
0900
1980
1980
1080
30C0
3FC0
2040
6060
6060
C030
ENDCHAR
STARTCHAR 0101
ENCODING 257
SWIDTH 555 0
DWIDTH 10 0
BBX 9 13 1 0
BITMAP
7C00
0000
0000
7E00
E300
C300
0300
0F00
7B00
C300
C300
C700
7B80
ENDCHAR
STARTCHAR 0102
ENCODING 258
SWIDTH 666 0
DWIDTH 12 0
BBX 12 16 0 1
BITMAP
1080
0F00
0000
0600
0F00
0F00
0900
1980
1980
1080
30C0
3FC0
2040
6060
6060
C030
ENDCHAR
STARTCHAR 0103
ENCODING 259
SWIDTH 555 0
DWIDTH 10 0
BBX 9 13 1 0
BITMAP
4200
3C00
0000
7E00
E300
C300
0300
0F00
7B00
C300
C300
C700
7B80
ENDCHAR
STARTCHAR 0104
ENCODING 260
SWIDTH 666 0
DWIDTH 12 0
BBX 12 17 1 -4
BITMAP
0600
0F00
0F00
1300
1380
1380
2180
21C0
3FC0
6040
6060
6060
C030
0060
00C0
00C0
0070
ENDCHAR
STARTCHAR 0105
ENCODING 261
SWIDTH 555 0
DWIDTH 10 0
BBX 10 14 1 -4
BITMAP
7E00
E300
C300
0300
0F00
7B00
C300
C300
C700
7B80
0100
0300
0300
01C0
ENDCHAR
STARTCHAR 0106
ENCODING 262
SWIDTH 722 0
DWIDTH 13 0
BBX 11 16 1 0
BITMAP
0600
0C00
0000
1F80
30C0
6060
4060
C000
C000
C000
C000
C060
4060
60C0
30C0
1F00
ENDCHAR
STARTCHAR 0107
ENCODING 263
SWIDTH 500 0
DWIDTH 9 0
BBX 8 13 1 0
BITMAP
0C
08
10
3C
66
C3
C0
C0
C0
C0
C3
66
3C
ENDCHAR
STARTCHAR 0108
ENCODING 264
SWIDTH 722 0
DWIDTH 13 0
BBX 11 16 1 0
BITMAP
0E00
1B00
0000
1F80
30C0
6060
4060
C000
C000
C000
C000
C060
4060
60C0
30C0
1F00
ENDCHAR
STARTCHAR 0109
ENCODING 265
SWIDTH 500 0
DWIDTH 9 0
BBX 8 12 1 1
BITMAP
38
68
7C
66
C3
C0
C0
C0
C0
C3
66
3C
ENDCHAR
STARTCHAR 010A
ENCODING 266
SWIDTH 722 0
DWIDTH 13 0
BBX 11 15 1 1
BITMAP
0600
0000
1F80
30C0
6060
4060
C000
C000
C000
C000
C060
4060
60C0
30C0
1F00
ENDCHAR
STARTCHAR 010B
ENCODING 267
SWIDTH 500 0
DWIDTH 9 0
BBX 8 12 1 1
BITMAP
18
00
3C
66
C3
C0
C0
C0
C0
C3
66
3C
ENDCHAR
STARTCHAR 010C
ENCODING 268
SWIDTH 722 0
DWIDTH 13 0
BBX 11 16 1 0
BITMAP
0D80
0700
0000
1F80
30C0
6060
4060
C000
C000
C000
C000
C060
4060
60C0
30C0
1F00
ENDCHAR
STARTCHAR 010D
ENCODING 269
SWIDTH 500 0
DWIDTH 9 0
BBX 8 13 1 0
BITMAP
4C
28
38
3C
66
C3
C0
C0
C0
C0
C3
66
3C
ENDCHAR
STARTCHAR 010E
ENCODING 270
SWIDTH 722 0
DWIDTH 13 0
BBX 11 16 1 0
BITMAP
1B00
0E00
0000
FF00
C180
C0C0
C060
C060
C060
C060
C060
C060
C060
C0C0
C180
FF00
ENDCHAR
STARTCHAR 010F
ENCODING 271
SWIDTH 722 0
DWIDTH 13 0
BBX 12 13 1 0
BITMAP
0330
0320
0340
3B00
6700
C300
C300
C300
C300
C300
C300
6700
3B00
ENDCHAR
STARTCHAR 0110
ENCODING 272
SWIDTH 722 0
DWIDTH 13 0
BBX 11 13 1 0
BITMAP
7F00
6180
60C0
6060
6060
6060
F860
6060
6060
6060
60C0
61C0
7F00
ENDCHAR
STARTCHAR 0111
ENCODING 273
SWIDTH 555 0
DWIDTH 10 0
BBX 9 13 1 0
BITMAP
0300
0F80
0300
3B00
6700
C300
C300
C300
C300
C300
C300
6700
3B00
ENDCHAR
STARTCHAR 0112
ENCODING 274
SWIDTH 611 0
DWIDTH 11 0
BBX 9 16 1 1
BITMAP
3E00
0000
0000
FF80
C000
C000
C000
C000
C000
FF00
C000
C000
C000
C000
C000
FF80
ENDCHAR
STARTCHAR 0113
ENCODING 275
SWIDTH 555 0
DWIDTH 10 0
BBX 8 13 1 0
BITMAP
7C
00
00
3C
66
C3
C3
FF
C0
C0
C3
66
3C
ENDCHAR
STARTCHAR 0114
ENCODING 276
SWIDTH 611 0
DWIDTH 11 0
BBX 9 16 1 1
BITMAP
2100
1E00
0000
FF80
C000
C000
C000
C000
C000
FF00
C000
C000
C000
C000
C000
FF80
ENDCHAR
STARTCHAR 0115
ENCODING 277
SWIDTH 555 0
DWIDTH 10 0
BBX 8 13 1 0
BITMAP
42
3C
00
3C
66
C3
C3
FF
C0
C0
C3
66
3C
ENDCHAR
STARTCHAR 0116
ENCODING 278
SWIDTH 611 0
DWIDTH 11 0
BBX 9 15 1 1
BITMAP
0C00
0000
FF80
C000
C000
C000
C000
C000
FF00
C000
C000
C000
C000
C000
FF80
ENDCHAR
STARTCHAR 0117
ENCODING 279
SWIDTH 555 0
DWIDTH 10 0
BBX 8 12 1 1
BITMAP
18
00
3C
66
C3
C3
FF
C0
C0
C3
66
3C
ENDCHAR
STARTCHAR 0118
ENCODING 280
SWIDTH 666 0
DWIDTH 12 0
BBX 11 17 1 -4
BITMAP
FFC0
C000
C000
C000
C000
C000
FFC0
C000
C000
C000
C000
C000
FFC0
00C0
0180
0180
00E0
ENDCHAR
STARTCHAR 0119
ENCODING 281
SWIDTH 555 0
DWIDTH 10 0
BBX 8 14 1 -4
BITMAP
3C
62
C3
C3
FF
C0
C0
C3
66
3E
04
0C
0C
06
ENDCHAR
STARTCHAR 011A
ENCODING 282
SWIDTH 611 0
DWIDTH 11 0
BBX 9 16 1 0
BITMAP
1B00
0E00
0000
FF80
C000
C000
C000
C000
C000
FF00
C000
C000
C000
C000
C000
FF80
ENDCHAR
STARTCHAR 011B
ENCODING 283
SWIDTH 555 0
DWIDTH 10 0
BBX 8 13 1 0
BITMAP
64
2C
18
3C
66
C3
C3
FF
C0
C0
C3
66
3C
ENDCHAR
STARTCHAR 011C
ENCODING 284
SWIDTH 777 0
DWIDTH 14 0
BBX 12 16 1 0
BITMAP
0E00
1B00
0000
0F80
30E0
6060
6030
C000
C000
C1F0
C030
C030
6030
6070
30F0
0F10
ENDCHAR
STARTCHAR 011D
ENCODING 285
SWIDTH 555 0
DWIDTH 10 0
BBX 8 17 1 -4
BITMAP
10
38
2C
3B
67
C3
C3
C3
C3
C3
C3
67
3B
03
03
C6
7C
ENDCHAR
STARTCHAR 011E
ENCODING 286
SWIDTH 777 0
DWIDTH 14 0
BBX 12 16 1 1
BITMAP
1080
0F00
0000
0F80
30E0
6060
6030
C000
C000
C1F0
C030
C030
6030
6070
30F0
0F10
ENDCHAR
STARTCHAR 011F
ENCODING 287
SWIDTH 555 0
DWIDTH 10 0
BBX 8 17 1 -4
BITMAP
42
3C
00
3B
67
C3
C3
C3
C3
C3
C3
67
3B
03
03
C6
7C
ENDCHAR
STARTCHAR 0120
ENCODING 288
SWIDTH 777 0
DWIDTH 14 0
BBX 12 15 1 1
BITMAP
0600
0000
0F80
30E0
6060
6030
C000
C000
C1F0
C030
C030
6030
6070
30F0
0F10
ENDCHAR
STARTCHAR 0121
ENCODING 289
SWIDTH 555 0
DWIDTH 10 0
BBX 8 16 1 -3
BITMAP
18
00
3B
67
C3
C3
C3
C3
C3
C3
67
3B
03
03
C6
7C
ENDCHAR
STARTCHAR 0122
ENCODING 290
SWIDTH 777 0
DWIDTH 14 0
BBX 12 18 1 -5
BITMAP
0F80
30E0
6060
6030
C000
C000
C1F0
C030
C030
6030
6070
30F0
0F10
0000
0000
0600
0200
0600
ENDCHAR
STARTCHAR 0123
ENCODING 291
SWIDTH 555 0
DWIDTH 10 0
BBX 8 18 1 -4
BITMAP
18
10
18
00
3B
67
C3
C3
C3
C3
C3
C3
67
3B
03
03
C6
7C
ENDCHAR
STARTCHAR 0124
ENCODING 292
SWIDTH 722 0
DWIDTH 13 0
BBX 11 16 1 0
BITMAP
0E00
1B00
0000
C060
C060
C060
C060
C060
C060
FFE0
C060
C060
C060
C060
C060
C060
ENDCHAR
STARTCHAR 0125
ENCODING 293
SWIDTH 555 0
DWIDTH 10 0
BBX 8 16 1 0
BITMAP
18
38
24
C0
C0
C0
DE
E3
C3
C3
C3
C3
C3
C3
C3
C3
ENDCHAR
STARTCHAR 0126
ENCODING 294
SWIDTH 722 0
DWIDTH 13 0
BBX 13 13 0 0
BITMAP
6030
6030
6030
FFF8
6030
6030
7FF0
6030
6030
6030
6030
6030
6030
ENDCHAR
STARTCHAR 0127
ENCODING 295
SWIDTH 555 0
DWIDTH 10 0
BBX 9 13 0 0
BITMAP
6000
F800
6000
6F00
7180
6180
6180
6180
6180
6180
6180
6180
6180
ENDCHAR
STARTCHAR 0128
ENCODING 296
SWIDTH 277 0
DWIDTH 5 0
BBX 5 16 0 0
BITMAP
C8
B0
00
30
30
30
30
30
30
30
30
30
30
30
30
30
ENDCHAR
STARTCHAR 0129
ENCODING 297
SWIDTH 277 0
DWIDTH 5 0
BBX 4 13 0 0
BITMAP
90
F0
00
60
60
60
60
60
60
60
60
60
60
ENDCHAR
STARTCHAR 012A
ENCODING 298
SWIDTH 277 0
DWIDTH 5 0
BBX 5 16 0 1
BITMAP
F8
00
00
30
30
30
30
30
30
30
30
30
30
30
30
30
ENDCHAR
STARTCHAR 012B
ENCODING 299
SWIDTH 277 0
DWIDTH 5 0
BBX 5 13 -1 0
BITMAP
F8
00
00
30
30
30
30
30
30
30
30
30
30
ENDCHAR
STARTCHAR 012C
ENCODING 300
SWIDTH 277 0
DWIDTH 5 0
BBX 6 16 0 1
BITMAP
8C
78
00
30
30
30
30
30
30
30
30
30
30
30
30
30
ENDCHAR
STARTCHAR 012D
ENCODING 301
SWIDTH 277 0
DWIDTH 5 0
BBX 5 13 0 0
BITMAP
88
F8
00
60
60
60
60
60
60
60
60
60
60
ENDCHAR
STARTCHAR 012E
ENCODING 302
SWIDTH 277 0
DWIDTH 5 0
BBX 5 17 0 -4
BITMAP
30
30
30
30
30
30
30
30
30
30
30
30
30
60
C0
C0
78
ENDCHAR
STARTCHAR 012F
ENCODING 303
SWIDTH 277 0
DWIDTH 5 0
BBX 5 17 0 -4
BITMAP
30
00
00
30
30
30
30
30
30
30
30
30
30
60
C0
C0
78
ENDCHAR
STARTCHAR 0130
ENCODING 304
SWIDTH 277 0
DWIDTH 5 0
BBX 2 15 2 0
BITMAP
C0
00
C0
C0
C0
C0
C0
C0
C0
C0
C0
C0
C0
C0
C0
ENDCHAR
STARTCHAR 0131
ENCODING 305
SWIDTH 222 0
DWIDTH 4 0
BBX 2 10 1 0
BITMAP
C0
C0
C0
C0
C0
C0
C0
C0
C0
C0
ENDCHAR
STARTCHAR 0132
ENCODING 306
SWIDTH 777 0
DWIDTH 14 0
BBX 10 13 2 0
BITMAP
C0C0
C0C0
C0C0
C0C0
C0C0
C0C0
C0C0
C0C0
C0C0
D8C0
D8C0
CCC0
C780
ENDCHAR
STARTCHAR 0133
ENCODING 307
SWIDTH 388 0
DWIDTH 7 0
BBX 6 17 1 -4
BITMAP
CC
00
00
CC
CC
CC
CC
CC
CC
CC
CC
CC
CC
0C
0C
0C
38
ENDCHAR
STARTCHAR 0134
ENCODING 308
SWIDTH 555 0
DWIDTH 10 0
BBX 8 16 1 0
BITMAP
0E
1B
00
06
06
06
06
06
06
06
06
06
C6
C6
C4
78
ENDCHAR
STARTCHAR 0135
ENCODING 309
SWIDTH 277 0
DWIDTH 5 0
BBX 5 17 -1 -4
BITMAP
30
70
48
30
30
30
30
30
30
30
30
30
30
30
30
30
E0
ENDCHAR
STARTCHAR 0136
ENCODING 310
SWIDTH 666 0
DWIDTH 12 0
BBX 10 18 1 -5
BITMAP
C0C0
C180
C300
C600
CC00
DC00
FC00
E600
C300
C300
C180
C0C0
C0C0
0000
0000
0C00
0400
0C00
ENDCHAR
STARTCHAR 0137
ENCODING 311
SWIDTH 500 0
DWIDTH 9 0
BBX 8 18 1 -5
BITMAP
C0
C0
C0
C2
C4
CC
D8
F8
EC
C4
C6
C3
C3
00
00
18
08
18
ENDCHAR
STARTCHAR 0138
ENCODING 312
SWIDTH 500 0
DWIDTH 9 0
BBX 8 10 1 0
BITMAP
C2
C4
C8
D0
E0
F0
D8
CC
C6
C3
ENDCHAR
STARTCHAR 0139
ENCODING 313
SWIDTH 555 0
DWIDTH 10 0
BBX 8 16 1 0
BITMAP
30
60
00
C0
C0
C0
C0
C0
C0
C0
C0
C0
C0
C0
C0
FF
ENDCHAR
STARTCHAR 013A
ENCODING 314
SWIDTH 222 0
DWIDTH 4 0
BBX 3 16 0 0
BITMAP
60
C0
00
60
60
60
60
60
60
60
60
60
60
60
60
60
ENDCHAR
STARTCHAR 013B
ENCODING 315
SWIDTH 555 0
DWIDTH 10 0
BBX 8 18 1 -5
BITMAP
C0
C0
C0
C0
C0
C0
C0
C0
C0
C0
C0
C0
FF
00
00
18
08
18
ENDCHAR
STARTCHAR 013C
ENCODING 316
SWIDTH 222 0
DWIDTH 4 0
BBX 2 18 1 -5
BITMAP
C0
C0
C0
C0
C0
C0
C0
C0
C0
C0
C0
C0
C0
00
00
C0
40
C0
ENDCHAR
STARTCHAR 013D
ENCODING 317
SWIDTH 555 0
DWIDTH 10 0
BBX 8 13 1 0
BITMAP
C6
C4
C8
C0
C0
C0
C0
C0
C0
C0
C0
C0
FF
ENDCHAR
STARTCHAR 013E
ENCODING 318
SWIDTH 388 0
DWIDTH 7 0
BBX 5 13 1 0
BITMAP
D8
D0
E0
C0
C0
C0
C0
C0
C0
C0
C0
C0
C0
ENDCHAR
STARTCHAR 013F
ENCODING 319
SWIDTH 555 0
DWIDTH 10 0
BBX 9 13 1 0
BITMAP
C000
C000
C000
C000
C000
C000
C000
C000
C180
C000
C000
C000
FF00
ENDCHAR
STARTCHAR 0140
ENCODING 320
SWIDTH 333 0
DWIDTH 6 0
BBX 5 13 1 0
BITMAP
C0
C0
C0
C0
C0
C0
C0
C0
D8
C0
C0
C0
C0
ENDCHAR
STARTCHAR 0141
ENCODING 321
SWIDTH 611 0
DWIDTH 11 0
BBX 9 13 1 0
BITMAP
6000
6000
6000
6400
6C00
7800
7000
E000
E000
6000
6000
6000
7F80
ENDCHAR
STARTCHAR 0142
ENCODING 322
SWIDTH 277 0
DWIDTH 5 0
BBX 4 13 1 0
BITMAP
60
60
60
60
60
70
60
E0
60
60
60
60
60
ENDCHAR
STARTCHAR 0143
ENCODING 323
SWIDTH 722 0
DWIDTH 13 0
BBX 11 16 1 0
BITMAP
0600
0C00
0000
E060
E060
F060
D060
D860
CC60
C460
C660
C360
C360
C1E0
C0E0
C0E0
ENDCHAR
STARTCHAR 0144
ENCODING 324
SWIDTH 555 0
DWIDTH 10 0
BBX 8 13 1 0
BITMAP
06
0C
08
DE
E7
C3
C3
C3
C3
C3
C3
C3
C3
ENDCHAR
STARTCHAR 0145
ENCODING 325
SWIDTH 722 0
DWIDTH 13 0
BBX 11 18 1 -5
BITMAP
E060
E060
F060
D060
D860
CC60
C460
C660
C360
C360
C1E0
C0E0
C0E0
0000
0000
0C00
0400
0C00
ENDCHAR
STARTCHAR 0146
ENCODING 326
SWIDTH 555 0
DWIDTH 10 0
BBX 8 15 1 -5
BITMAP
DE
E7
C3
C3
C3
C3
C3
C3
C3
C3
00
00
18
08
18
ENDCHAR
STARTCHAR 0147
ENCODING 327
SWIDTH 722 0
DWIDTH 13 0
BBX 11 16 1 0
BITMAP
0D80
0700
0000
E060
E060
F060
D060
D860
CC60
C460
C660
C360
C360
C1E0
C0E0
C0E0
ENDCHAR
STARTCHAR 0148
ENCODING 328
SWIDTH 555 0
DWIDTH 10 0
BBX 8 13 1 0
BITMAP
44
28
38
DE
E7
C3
C3
C3
C3
C3
C3
C3
C3
ENDCHAR
STARTCHAR 0149
ENCODING 329
SWIDTH 666 0
DWIDTH 12 0
BBX 11 13 0 0
BITMAP
C000
4000
4000
5BC0
9CE0
1860
1860
1860
1860
1860
1860
1860
1860
ENDCHAR
STARTCHAR 014A
ENCODING 330
SWIDTH 666 0
DWIDTH 12 0
BBX 11 13 1 0
BITMAP
DF00
F180
C0C0
C060
C060
C060
C060
C060
C060
C0C0
C0C0
C180
CF00
ENDCHAR
STARTCHAR 014B
ENCODING 331
SWIDTH 555 0
DWIDTH 10 0
BBX 8 14 1 -4
BITMAP
DE
E7
C3
C3
C3
C3
C3
C3
C3
C3
03
03
03
06
ENDCHAR
STARTCHAR 014C
ENCODING 332
SWIDTH 777 0
DWIDTH 14 0
BBX 13 16 1 1
BITMAP
1F00
0000
0000
0F80
3060
6030
6030
C018
C018
C018
C018
C018
6030
6030
3060
0F80
ENDCHAR
STARTCHAR 014D
ENCODING 333
SWIDTH 555 0
DWIDTH 10 0
BBX 8 13 1 0
BITMAP
7C
00
00
3C
66
C3
C3
C3
C3
C3
C3
66
3C
ENDCHAR
STARTCHAR 014E
ENCODING 334
SWIDTH 777 0
DWIDTH 14 0
BBX 13 16 1 1
BITMAP
1080
0F00
0000
0F80
3060
6030
6030
C018
C018
C018
C018
C018
6030
6030
3060
0F80
ENDCHAR
STARTCHAR 014F
ENCODING 335
SWIDTH 555 0
DWIDTH 10 0
BBX 8 13 1 0
BITMAP
42
3C
00
3C
66
C3
C3
C3
C3
C3
C3
66
3C
ENDCHAR
STARTCHAR 0150
ENCODING 336
SWIDTH 777 0
DWIDTH 14 0
BBX 13 16 1 0
BITMAP
0780
0D00
0000
0F80
3060
6030
6030
C018
C018
C018
C018
C018
6030
6030
3060
0F80
ENDCHAR
STARTCHAR 0151
ENCODING 337
SWIDTH 555 0
DWIDTH 10 0
BBX 8 13 1 0
BITMAP
12
36
24
3C
66
C3
C3
C3
C3
C3
C3
66
3C
ENDCHAR
STARTCHAR 0152
ENCODING 338
SWIDTH 1000 0
DWIDTH 18 0
BBX 15 13 1 0
BITMAP
1EFE
21C0
60C0
C0C0
C0C0
C0C0
C0FE
C0C0
C0C0
C0C0
60C0
31C0
1EFE
ENDCHAR
STARTCHAR 0153
ENCODING 339
SWIDTH 944 0
DWIDTH 17 0
BBX 15 10 1 0
BITMAP
3CF8
678C
C306
C306
C3FE
C300
C300
C306
678C
3CF8
ENDCHAR
STARTCHAR 0154
ENCODING 340
SWIDTH 722 0
DWIDTH 13 0
BBX 12 16 1 0
BITMAP
0600
0C00
0000
FF80
C0E0
C060
C060
C060
C0C0
FF80
C0E0
C060
C060
C060
C060
C070
ENDCHAR
STARTCHAR 0155
ENCODING 341
SWIDTH 333 0
DWIDTH 6 0
BBX 5 13 1 0
BITMAP
18
30
20
D8
E0
C0
C0
C0
C0
C0
C0
C0
C0
ENDCHAR
STARTCHAR 0156
ENCODING 342
SWIDTH 722 0
DWIDTH 13 0
BBX 12 18 1 -5
BITMAP
FF80
C0E0
C060
C060
C060
C0C0
FF80
C0E0
C060
C060
C060
C060
C070
0000
0000
0600
0200
0600
ENDCHAR
STARTCHAR 0157
ENCODING 343
SWIDTH 333 0
DWIDTH 6 0
BBX 5 15 1 -5
BITMAP
D8
E0
C0
C0
C0
C0
C0
C0
C0
C0
00
00
C0
40
C0
ENDCHAR
STARTCHAR 0158
ENCODING 344
SWIDTH 722 0
DWIDTH 13 0
BBX 12 16 1 0
BITMAP
1B00
0E00
0000
FF80
C0E0
C060
C060
C060
C0C0
FF80
C0E0
C060
C060
C060
C060
C070
ENDCHAR
STARTCHAR 0159
ENCODING 345
SWIDTH 333 0
DWIDTH 6 0
BBX 5 13 1 0
BITMAP
90
F0
60
D8
E0
C0
C0
C0
C0
C0
C0
C0
C0
ENDCHAR
STARTCHAR 015A
ENCODING 346
SWIDTH 666 0
DWIDTH 12 0
BBX 10 16 1 0
BITMAP
0600
0C00
0000
3F00
6180
C0C0
C0C0
C000
7800
1F00
0380
00C0
C0C0
C0C0
6180
3F00
ENDCHAR
STARTCHAR 015B
ENCODING 347
SWIDTH 500 0
DWIDTH 9 0
BBX 8 13 1 0
BITMAP
0C
18
10
3E
E3
C0
C0
E0
3C
07
C3
E3
7E
ENDCHAR
STARTCHAR 015C
ENCODING 348
SWIDTH 666 0
DWIDTH 12 0
BBX 10 16 1 0
BITMAP
1C00
3600
0000
3F00
6180
C0C0
C0C0
C000
7800
1F00
0380
00C0
C0C0
C0C0
6180
3F00
ENDCHAR
STARTCHAR 015D
ENCODING 349
SWIDTH 500 0
DWIDTH 9 0
BBX 8 13 1 0
BITMAP
30
38
48
3E
E3
C0
C0
E0
3C
07
C3
E3
7E
ENDCHAR
STARTCHAR 015E
ENCODING 350
SWIDTH 666 0
DWIDTH 12 0
BBX 10 17 1 -4
BITMAP
3F00
6180
C0C0
C0C0
C000
7800
1F00
0380
00C0
C0C0
C0C0
6180
3F00
0800
0E00
0600
1C00
ENDCHAR
STARTCHAR 015F
ENCODING 351
SWIDTH 500 0
DWIDTH 9 0
BBX 8 14 1 -4
BITMAP
3E
E3
C0
C0
E0
3C
07
C3
C3
7E
10
1C
0C
38
ENDCHAR
STARTCHAR 0160
ENCODING 352
SWIDTH 666 0
DWIDTH 12 0
BBX 10 16 1 0
BITMAP
1B00
0E00
0000
3F00
6180
C0C0
C0C0
C000
7800
1F00
0380
00C0
C0C0
C0C0
6180
3F00
ENDCHAR
STARTCHAR 0161
ENCODING 353
SWIDTH 500 0
DWIDTH 9 0
BBX 8 13 1 0
BITMAP
48
78
30
3E
E3
C0
C0
E0
3C
07
C3
E3
7E
ENDCHAR
STARTCHAR 0162
ENCODING 354
SWIDTH 611 0
DWIDTH 11 0
BBX 8 17 2 -4
BITMAP
FF
18
18
18
18
18
18
18
18
18
18
18
18
10
1E
06
3C
ENDCHAR
STARTCHAR 0163
ENCODING 355
SWIDTH 277 0
DWIDTH 5 0
BBX 5 16 1 -4
BITMAP
60
60
F0
60
60
60
60
60
60
60
60
70
20
38
18
78
ENDCHAR
STARTCHAR 0164
ENCODING 356
SWIDTH 611 0
DWIDTH 11 0
BBX 8 16 2 0
BITMAP
36
1C
00
FF
18
18
18
18
18
18
18
18
18
18
18
18
ENDCHAR
STARTCHAR 0165
ENCODING 357
SWIDTH 444 0
DWIDTH 8 0
BBX 6 13 1 0
BITMAP
0C
68
70
F0
60
60
60
60
60
60
60
60
70
ENDCHAR
STARTCHAR 0166
ENCODING 358
SWIDTH 611 0
DWIDTH 11 0
BBX 8 13 2 0
BITMAP
FF
18
18
18
18
18
7E
18
18
18
18
18
18
ENDCHAR
STARTCHAR 0167
ENCODING 359
SWIDTH 277 0
DWIDTH 5 0
BBX 4 12 1 0
BITMAP
60
60
F0
60
60
60
F0
60
60
60
60
70
ENDCHAR
STARTCHAR 0168
ENCODING 360
SWIDTH 722 0
DWIDTH 13 0
BBX 11 16 1 0
BITMAP
1900
1600
0000
C060
C060
C060
C060
C060
C060
C060
C060
C060
C060
C060
60C0
1F00
ENDCHAR
STARTCHAR 0169
ENCODING 361
SWIDTH 555 0
DWIDTH 10 0
BBX 8 13 1 0
BITMAP
24
5C
00
C3
C3
C3
C3
C3
C3
C3
C3
C7
7B
ENDCHAR
STARTCHAR 016A
ENCODING 362
SWIDTH 722 0
DWIDTH 13 0
BBX 11 16 1 1
BITMAP
1F00
0000
0000
C060
C060
C060
C060
C060
C060
C060
C060
C060
C060
C060
60C0
1F00
ENDCHAR
STARTCHAR 016B
ENCODING 363
SWIDTH 555 0
DWIDTH 10 0
BBX 8 13 1 0
BITMAP
7C
00
00
C3
C3
C3
C3
C3
C3
C3
C3
C7
7B
ENDCHAR
STARTCHAR 016C
ENCODING 364
SWIDTH 722 0
DWIDTH 13 0
BBX 11 16 1 1
BITMAP
1100
1F00
0000
C060
C060
C060
C060
C060
C060
C060
C060
C060
C060
C060
60C0
1F00
ENDCHAR
STARTCHAR 016D
ENCODING 365
SWIDTH 555 0
DWIDTH 10 0
BBX 8 13 1 0
BITMAP
42
3C
00
C3
C3
C3
C3
C3
C3
C3
C3
C7
7B
ENDCHAR
STARTCHAR 016E
ENCODING 366
SWIDTH 722 0
DWIDTH 13 0
BBX 11 17 1 1
BITMAP
0F00
0D80
0F00
0000
C060
C060
C060
C060
C060
C060
C060
C060
C060
C060
C060
60C0
1F00
ENDCHAR
STARTCHAR 016F
ENCODING 367
SWIDTH 555 0
DWIDTH 10 0
BBX 8 14 1 0
BITMAP
1C
36
36
1C
C3
C3
C3
C3
C3
C3
C3
C3
C7
7B
ENDCHAR
STARTCHAR 0170
ENCODING 368
SWIDTH 722 0
DWIDTH 13 0
BBX 11 16 1 0
BITMAP
0F00
1A00
0000
C060
C060
C060
C060
C060
C060
C060
C060
C060
C060
C060
60C0
1F00
ENDCHAR
STARTCHAR 0171
ENCODING 369
SWIDTH 555 0
DWIDTH 10 0
BBX 8 13 1 0
BITMAP
36
24
2C
C3
C3
C3
C3
C3
C3
C3
C3
C7
7B
ENDCHAR
STARTCHAR 0172
ENCODING 370
SWIDTH 722 0
DWIDTH 13 0
BBX 11 17 1 -4
BITMAP
C060
C060
C060
C060
C060
C060
C060
C060
C060
C060
C060
60C0
1F80
0100
0300
0300
01C0
ENDCHAR
STARTCHAR 0173
ENCODING 371
SWIDTH 555 0
DWIDTH 10 0
BBX 9 14 1 -4
BITMAP
C300
C300
C300
C300
C300
C300
C300
C300
C700
7B00
0600
0C00
0C00
0780
ENDCHAR
STARTCHAR 0174
ENCODING 372
SWIDTH 944 0
DWIDTH 17 0
BBX 16 16 0 0
BITMAP
01C0
0360
0000
C181
61C3
61C3
6143
6262
2266
3226
3626
1434
1434
1C1C
181C
0818
ENDCHAR
STARTCHAR 0175
ENCODING 373
SWIDTH 722 0
DWIDTH 13 0
BBX 13 13 0 0
BITMAP
0600
0600
0900
C618
C710
4710
6530
6D30
2DA0
29A0
38E0
38C0
18C0
ENDCHAR
STARTCHAR 0176
ENCODING 374
SWIDTH 666 0
DWIDTH 12 0
BBX 12 16 0 0
BITMAP
0E00
1B00
0000
C030
6060
30C0
30C0
1980
1D80
0F00
0600
0600
0600
0600
0600
0600
ENDCHAR
STARTCHAR 0177
ENCODING 375
SWIDTH 500 0
DWIDTH 9 0
BBX 8 17 0 -4
BITMAP
18
18
24
C1
43
63
62
26
36
34
1C
1C
18
18
18
10
60
ENDCHAR
STARTCHAR 0178
ENCODING 376
SWIDTH 666 0
DWIDTH 12 0
BBX 12 15 0 0
BITMAP
1980
0000
C030
6060
30C0
30C0
1980
1D80
0F00
0600
0600
0600
0600
0600
0600
ENDCHAR
STARTCHAR 0179
ENCODING 377
SWIDTH 611 0
DWIDTH 11 0
BBX 10 16 1 0
BITMAP
0C00
1800
0000
FFC0
0180
0300
0300
0600
0C00
1C00
1800
3000
6000
6000
C000
FFC0
ENDCHAR
STARTCHAR 017A
ENCODING 378
SWIDTH 500 0
DWIDTH 9 0
BBX 7 13 1 0
BITMAP
0C
08
10
FE
06
0C
18
18
30
60
40
C0
FE
ENDCHAR
STARTCHAR 017B
ENCODING 379
SWIDTH 611 0
DWIDTH 11 0
BBX 10 15 1 0
BITMAP
0C00
0000
FFC0
0180
0300
0300
0600
0C00
1C00
1800
3000
6000
6000
C000
FFC0
ENDCHAR
STARTCHAR 017C
ENCODING 380
SWIDTH 500 0
DWIDTH 9 0
BBX 7 12 1 1
BITMAP
30
00
FE
06
0C
18
18
30
60
40
C0
FE
ENDCHAR
STARTCHAR 017D
ENCODING 381
SWIDTH 611 0
DWIDTH 11 0
BBX 10 16 1 0
BITMAP
1B00
0E00
0000
FFC0
0180
0300
0300
0600
0C00
1C00
1800
3000
6000
6000
C000
FFC0
ENDCHAR
STARTCHAR 017E
ENCODING 382
SWIDTH 500 0
DWIDTH 9 0
BBX 7 13 1 0
BITMAP
48
78
30
FE
06
0C
18
18
30
60
40
C0
FE
ENDCHAR
STARTCHAR 017F
ENCODING 383
SWIDTH 277 0
DWIDTH 5 0
BBX 5 13 1 0
BITMAP
38
60
60
E0
60
60
60
60
60
60
60
60
60
ENDCHAR
STARTCHAR 0180
ENCODING 384
SWIDTH 555 0
DWIDTH 10 0
BBX 9 13 1 0
BITMAP
6000
F800
6000
6E00
7300
6180
6180
6180
6180
6180
6180
7300
6E00
ENDCHAR
STARTCHAR 0181
ENCODING 385
SWIDTH 833 0
DWIDTH 15 0
BBX 14 13 1 0
BITMAP
7FF0
CC38
CC18
6C18
0C18
0C30
0FE0
0C18
0C0C
0C0C
0C0C
0C18
0FF0
ENDCHAR
STARTCHAR 0182
ENCODING 386
SWIDTH 666 0
DWIDTH 12 0
BBX 11 13 1 0
BITMAP
FF00
C000
C000
C000
C000
C000
FF80
C0C0
C060
C060
C060
C0C0
FF80
ENDCHAR
STARTCHAR 0183
ENCODING 387
SWIDTH 555 0
DWIDTH 10 0
BBX 9 13 1 0
BITMAP
FE00
C000
C000
DE00
E300
C180
C180
C180
C180
C180
C180
E300
DE00
ENDCHAR
STARTCHAR 0184
ENCODING 388
SWIDTH 722 0
DWIDTH 13 0
BBX 12 13 0 0
BITMAP
3000
7000
F000
7000
3000
3FC0
3060
3030
3030
3030
3030
3060
3FC0
ENDCHAR
STARTCHAR 0185
ENCODING 389
SWIDTH 611 0
DWIDTH 11 0
BBX 10 13 1 0
BITMAP
6000
E000
E000
EF00
7180
60C0
60C0
60C0
60C0
60C0
60C0
7180
6F00
ENDCHAR
STARTCHAR 0186
ENCODING 390
SWIDTH 722 0
DWIDTH 13 0
BBX 11 13 1 -1
BITMAP
1E00
6180
C0C0
C0C0
C060
0060
0060
0060
0060
C0C0
C0C0
6180
3F00
ENDCHAR
STARTCHAR 0187
ENCODING 391
SWIDTH 777 0
DWIDTH 14 0
BBX 13 13 1 0
BITMAP
1FB8
30E0
6060
4000
C000
C000
C000
C000
C060
6060
60C0
30C0
1F00
ENDCHAR
STARTCHAR 0188
ENCODING 392
SWIDTH 555 0
DWIDTH 10 0
BBX 10 10 1 0
BITMAP
3DC0
6700
C300
C000
C000
C000
C000
C300
6700
3C00
ENDCHAR
STARTCHAR 0189
ENCODING 393
SWIDTH 722 0
DWIDTH 13 0
BBX 11 13 1 0
BITMAP
7F00
6180
60C0
6060
6060
6060
F860
6060
6060
6060
60C0
61C0
7F00
ENDCHAR
STARTCHAR 018A
ENCODING 394
SWIDTH 888 0
DWIDTH 16 0
BBX 14 13 1 0
BITMAP
7FE0
CC38
CC18
6C0C
0C0C
0C0C
0C0C
0C0C
0C0C
0C0C
0C18
0C30
0FE0
ENDCHAR
STARTCHAR 018B
ENCODING 395
SWIDTH 666 0
DWIDTH 12 0
BBX 10 13 1 0
BITMAP
3FC0
00C0
00C0
00C0
00C0
00C0
3FC0
60C0
C0C0
C0C0
C0C0
60C0
3FC0
ENDCHAR
STARTCHAR 018C
ENCODING 396
SWIDTH 555 0
DWIDTH 10 0
BBX 8 13 1 0
BITMAP
7F
03
03
3B
67
C3
C3
C3
C3
C3
C3
67
3B
ENDCHAR
STARTCHAR 018D
ENCODING 397
SWIDTH 555 0
DWIDTH 10 0
BBX 9 13 0 -4
BITMAP
0800
7700
6300
C180
C180
C180
C180
6300
7E00
3800
1C00
0600
7F00
ENDCHAR
STARTCHAR 018E
ENCODING 398
SWIDTH 611 0
DWIDTH 11 0
BBX 9 13 1 0
BITMAP
FF80
0180
0180
0180
0180
0180
7F80
0180
0180
0180
0180
0180
FF80
ENDCHAR
STARTCHAR 018F
ENCODING 399
SWIDTH 722 0
DWIDTH 13 0
BBX 11 13 1 0
BITMAP
3F00
6180
C0C0
C040
0060
0060
0060
FFE0
C060
C0C0
E0C0
6180
3F00
ENDCHAR
STARTCHAR 0190
ENCODING 400
SWIDTH 666 0
DWIDTH 12 0
BBX 10 13 1 0
BITMAP
3F00
6180
C0C0
C0C0
C000
6000
3C00
6000
C000
C0C0
C0C0
6180
3F00
ENDCHAR
STARTCHAR 0191
ENCODING 401
SWIDTH 611 0
DWIDTH 11 0
BBX 10 17 0 -4
BITMAP
3FC0
3000
3000
3000
3000
3000
3F80
3000
3000
3000
3000
3000
3000
3000
3000
3000
E000
ENDCHAR
STARTCHAR 0192
ENCODING 402
SWIDTH 277 0
DWIDTH 5 0
BBX 5 17 0 -4
BITMAP
18
30
30
78
30
30
30
30
30
30
30
30
30
30
30
30
E0
ENDCHAR
STARTCHAR 0193
ENCODING 403
SWIDTH 833 0
DWIDTH 15 0
BBX 14 13 1 0
BITMAP
0F9C
3070
6030
6000
C000
C000
C1F0
C030
C030
6030
6070
30F0
0F10
ENDCHAR
STARTCHAR 0194
ENCODING 404
SWIDTH 666 0
DWIDTH 12 0
BBX 11 13 1 0
BITMAP
C060
60C0
60C0
3180
3180
1B00
0E00
0E00
0E00
0E00
1B00
1B00
0E00
ENDCHAR
STARTCHAR 0195
ENCODING 405
SWIDTH 833 0
DWIDTH 15 0
BBX 14 13 1 0
BITMAP
C000
C000
C000
DE00
E310
C318
C30C
C30C
C30C
C30C
C318
C318
C3E0
ENDCHAR
STARTCHAR 0196
ENCODING 406
SWIDTH 277 0
DWIDTH 5 0
BBX 4 13 1 0
BITMAP
C0
C0
C0
C0
C0
C0
C0
C0
C0
C0
C0
C0
F0
ENDCHAR
STARTCHAR 0197
ENCODING 407
SWIDTH 388 0
DWIDTH 7 0
BBX 4 13 1 0
BITMAP
60
60
60
60
60
60
F0
60
60
60
60
60
60
ENDCHAR
STARTCHAR 0198
ENCODING 408
SWIDTH 666 0
DWIDTH 12 0
BBX 11 13 1 0
BITMAP
C0E0
C100
C300
C600
CC00
DC00
F400
E600
C300
C300
C180
C0C0
C0C0
ENDCHAR
STARTCHAR 0199
ENCODING 409
SWIDTH 500 0
DWIDTH 9 0
BBX 8 13 1 0
BITMAP
70
C0
C0
C2
C4
CC
D8
F8
EC
C4
C6
C3
C3
ENDCHAR
STARTCHAR 019A
ENCODING 410
SWIDTH 333 0
DWIDTH 6 0
BBX 4 13 1 0
BITMAP
60
60
60
60
60
60
F0
60
60
60
60
60
60
ENDCHAR
STARTCHAR 019B
ENCODING 411
SWIDTH 555 0
DWIDTH 10 0
BBX 10 13 0 1
BITMAP
7200
1C00
3800
6800
5C00
1400
1400
3600
2200
6200
6300
4100
C1C0
ENDCHAR
STARTCHAR 019C
ENCODING 412
SWIDTH 888 0
DWIDTH 16 0
BBX 13 13 1 0
BITMAP
C318
C318
C318
C318
C318
C318
C318
C318
C318
C318
C318
C738
7DD8
ENDCHAR
STARTCHAR 019D
ENCODING 413
SWIDTH 722 0
DWIDTH 13 0
BBX 13 17 -1 -4
BITMAP
3818
3818
3C18
3418
3618
3318
3118
3198
30D8
30D8
3078
3038
3038
3000
3000
3000
E000
ENDCHAR
STARTCHAR 019E
ENCODING 414
SWIDTH 555 0
DWIDTH 10 0
BBX 8 13 1 -3
BITMAP
DE
E3
C3
C3
C3
C3
C3
C3
C3
C3
03
03
03
ENDCHAR
STARTCHAR 019F
ENCODING 415
SWIDTH 777 0
DWIDTH 14 0
BBX 13 13 1 0
BITMAP
0F80
3060
6030
6030
C018
C018
FFF8
C018
C018
6030
6030
3060
0F80
ENDCHAR
STARTCHAR 01A0
ENCODING 416
SWIDTH 777 0
DWIDTH 14 0
BBX 14 14 1 1
BITMAP
000C
0FCC
307C
6030
6030
C018
C018
C018
C018
C018
6030
6030
3060
0F80
ENDCHAR
STARTCHAR 01A1
ENCODING 417
SWIDTH 555 0
DWIDTH 10 0
BBX 9 12 1 0
BITMAP
0080
0180
3F80
6700
C200
C300
C300
C300
C300
C300
6600
3C00
ENDCHAR
STARTCHAR 01A2
ENCODING 418
SWIDTH 1000 0
DWIDTH 18 0
BBX 16 13 1 1
BITMAP
0F9E
3063
6033
6033
C01B
C01B
C01B
C01B
C01B
6033
6033
3063
0F83
ENDCHAR
STARTCHAR 01A3
ENCODING 419
SWIDTH 722 0
DWIDTH 13 0
BBX 11 13 1 -3
BITMAP
3FC0
6660
C360
C360
C360
C360
C360
C360
6660
3C60
0060
0060
0060
ENDCHAR
STARTCHAR 01A4
ENCODING 420
SWIDTH 833 0
DWIDTH 15 0
BBX 13 13 1 0
BITMAP
7FE0
CC38
CC18
6C18
0C18
0C30
0FE0
0C00
0C00
0C00
0C00
0C00
0C00
ENDCHAR
STARTCHAR 01A5
ENCODING 421
SWIDTH 555 0
DWIDTH 10 0
BBX 9 17 1 -4
BITMAP
6000
C000
C000
DE00
E300
C180
C180
C180
C180
C180
C180
E300
DE00
C000
C000
C000
C000
ENDCHAR
STARTCHAR 01A6
ENCODING 422
SWIDTH 666 0
DWIDTH 12 0
BBX 11 15 1 -3
BITMAP
C000
C000
FF00
C180
C0C0
C0C0
C0C0
C180
FF80
C180
C0C0
C0C0
C0C0
00C0
00E0
ENDCHAR
STARTCHAR 01A7
ENCODING 423
SWIDTH 666 0
DWIDTH 12 0
BBX 10 13 1 0
BITMAP
3F00
6180
C0C0
C0C0
01C0
0780
3E00
7000
C000
C0C0
C0C0
6180
3F00
ENDCHAR
STARTCHAR 01A8
ENCODING 424
SWIDTH 500 0
DWIDTH 9 0
BBX 7 10 1 0
BITMAP
78
C6
06
06
0C
70
C0
C6
C6
7C
ENDCHAR
STARTCHAR 01A9
ENCODING 425
SWIDTH 611 0
DWIDTH 11 0
BBX 10 13 1 0
BITMAP
FF80
C000
6000
6000
3000
1800
1C00
1800
3000
6000
6000
C000
FFC0
ENDCHAR
STARTCHAR 01AA
ENCODING 426
SWIDTH 333 0
DWIDTH 6 0
BBX 7 17 0 -4
BITMAP
70
D8
D8
78
18
18
18
18
18
18
18
18
18
18
18
18
0E
ENDCHAR
STARTCHAR 01AB
ENCODING 427
SWIDTH 277 0
DWIDTH 5 0
BBX 4 17 1 -4
BITMAP
60
60
60
F0
60
60
60
60
60
60
60
60
70
30
30
30
60
ENDCHAR
STARTCHAR 01AC
ENCODING 428
SWIDTH 611 0
DWIDTH 11 0
BBX 10 13 0 0
BITMAP
7FC0
C600
C600
6600
0600
0600
0600
0600
0600
0600
0600
0600
0600
ENDCHAR
STARTCHAR 01AD
ENCODING 429
SWIDTH 277 0
DWIDTH 5 0
BBX 4 13 1 0
BITMAP
30
60
60
F0
60
60
60
60
60
60
60
60
70
ENDCHAR
STARTCHAR 01AE
ENCODING 430
SWIDTH 611 0
DWIDTH 11 0
BBX 8 17 2 -4
BITMAP
FF
18
18
18
18
18
18
18
18
18
18
18
18
18
18
18
0E
ENDCHAR
STARTCHAR 01AF
ENCODING 431
SWIDTH 777 0
DWIDTH 14 0
BBX 13 15 1 1
BITMAP
0018
0018
C078
C060
C060
C060
C060
C060
C060
C060
C060
C060
C060
60C0
1F00
ENDCHAR
STARTCHAR 01B0
ENCODING 432
SWIDTH 611 0
DWIDTH 11 0
BBX 11 12 1 1
BITMAP
0060
0060
C3C0
C300
C300
C300
C300
C300
C300
C300
C700
7B00
ENDCHAR
STARTCHAR 01B1
ENCODING 433
SWIDTH 777 0
DWIDTH 14 0
BBX 12 13 1 1
BITMAP
F9F0
3180
60C0
4060
C060
C030
C030
C030
C060
C060
60C0
31C0
1F00
ENDCHAR
STARTCHAR 01B2
ENCODING 434
SWIDTH 722 0
DWIDTH 13 0
BBX 11 13 1 0
BITMAP
C180
C180
C0C0
C0C0
C060
C060
C060
C060
C060
C060
C0C0
6180
3F00
ENDCHAR
STARTCHAR 01B3
ENCODING 435
SWIDTH 722 0
DWIDTH 13 0
BBX 13 13 0 0
BITMAP
C038
6060
30C0
3080
1980
0F00
0F00
0600
0600
0600
0600
0600
0600
ENDCHAR
STARTCHAR 01B4
ENCODING 436
SWIDTH 611 0
DWIDTH 11 0
BBX 11 17 0 -4
BITMAP
0060
0080
0180
C100
4100
6300
6200
2200
3600
3400
1C00
1C00
1800
1800
1800
1000
7000
ENDCHAR
STARTCHAR 01B5
ENCODING 437
SWIDTH 611 0
DWIDTH 11 0
BBX 10 13 1 0
BITMAP
FFC0
0180
0380
0300
0600
0C00
3F00
1800
3000
6000
6000
C000
FFC0
ENDCHAR
STARTCHAR 01B6
ENCODING 438
SWIDTH 500 0
DWIDTH 9 0
BBX 7 10 1 0
BITMAP
FE
06
0C
0C
18
FC
20
60
C0
FE
ENDCHAR
STARTCHAR 01B7
ENCODING 439
SWIDTH 611 0
DWIDTH 11 0
BBX 10 13 1 0
BITMAP
7FC0
0180
0180
0300
0600
0F00
0180
00C0
00C0
C0C0
C0C0
6180
3F00
ENDCHAR
STARTCHAR 01B8
ENCODING 440
SWIDTH 611 0
DWIDTH 11 0
BBX 10 13 1 0
BITMAP
FF80
6000
6000
3000
1000
3800
6000
C000
C000
C0C0
C0C0
6180
3F00
ENDCHAR
STARTCHAR 01B9
ENCODING 441
SWIDTH 500 0
DWIDTH 9 0
BBX 8 13 1 -3
BITMAP
7E
60
30
10
18
78
60
C0
C0
C3
C3
66
3C
ENDCHAR
STARTCHAR 01BA
ENCODING 442
SWIDTH 500 0
DWIDTH 9 0
BBX 8 14 1 -4
BITMAP
FE
06
0C
08
18
1E
07
03
03
07
FC
C0
C4
7E
ENDCHAR
STARTCHAR 01BB
ENCODING 443
SWIDTH 555 0
DWIDTH 10 0
BBX 9 13 1 0
BITMAP
3E00
6300
C180
C180
0180
0380
3700
3E00
3F00
7100
4000
C000
FF80
ENDCHAR
STARTCHAR 01BE
ENCODING 446
SWIDTH 500 0
DWIDTH 9 0
BBX 8 13 1 0
BITMAP
18
18
18
3C
18
18
0C
06
03
C3
C3
67
3C
ENDCHAR
STARTCHAR 01BF
ENCODING 447
SWIDTH 555 0
DWIDTH 10 0
BBX 9 13 1 -4
BITMAP
DF00
F180
C180
C180
C180
C300
C600
CC00
D800
F000
C000
C000
C000
ENDCHAR
STARTCHAR 01C0
ENCODING 448
SWIDTH 277 0
DWIDTH 5 0
BBX 2 17 2 -4
BITMAP
C0
C0
C0
C0
C0
C0
C0
C0
C0
C0
C0
C0
C0
C0
C0
C0
C0
ENDCHAR
STARTCHAR 01C1
ENCODING 449
SWIDTH 388 0
DWIDTH 7 0
BBX 4 17 2 -4
BITMAP
F0
F0
F0
F0
F0
F0
F0
F0
F0
F0
F0
F0
F0
F0
F0
F0
F0
ENDCHAR
STARTCHAR 01C2
ENCODING 450
SWIDTH 611 0
DWIDTH 11 0
BBX 6 17 3 -4
BITMAP
30
30
30
30
30
30
30
FC
30
30
FC
30
30
30
30
30
30
ENDCHAR
STARTCHAR 01C3
ENCODING 451
SWIDTH 277 0
DWIDTH 5 0
BBX 2 13 2 0
BITMAP
C0
C0
C0
C0
C0
C0
C0
C0
C0
C0
80
00
C0
ENDCHAR
STARTCHAR 01C4
ENCODING 452
SWIDTH 1277 0
DWIDTH 23 0
BBX 21 16 1 0
BITMAP
0001A0
0000E0
000000
FF0FF8
C18018
C0C030
C06030
C06060
C060C0
C06180
C06180
C06300
C06600
C0CE00
C18C00
FF1FF8
ENDCHAR
STARTCHAR 01C5
ENCODING 453
SWIDTH 1166 0
DWIDTH 21 0
BBX 20 13 1 0
BITMAP
FF0440
C18280
C0C380
C06FE0
C06060
C06040
C060C0
C06180
C06300
C06300
C0C600
C18C00
FF0FF0
ENDCHAR
STARTCHAR 01C6
ENCODING 454
SWIDTH 1055 0
DWIDTH 19 0
BBX 17 13 1 0
BITMAP
031200
031600
030C00
3B3F80
670100
C30300
C30600
C30400
C30C00
C31800
C33000
673000
3B7F80
ENDCHAR
STARTCHAR 01C7
ENCODING 455
SWIDTH 1055 0
DWIDTH 19 0
BBX 16 13 1 0
BITMAP
C003
C003
C003
C003
C003
C003
C003
C003
C003
C063
C033
C033
FF1E
ENDCHAR
STARTCHAR 01C8
ENCODING 456
SWIDTH 777 0
DWIDTH 14 0
BBX 13 17 1 -4
BITMAP
C018
C000
C000
C018
C018
C018
C018
C018
C018
C018
C018
C018
FF18
0018
0018
0018
0070
ENDCHAR
STARTCHAR 01C9
ENCODING 457
SWIDTH 444 0
DWIDTH 8 0
BBX 7 17 1 -4
BITMAP
C6
C0
C0
C6
C6
C6
C6
C6
C6
C6
C6
C6
C6
06
06
06
1C
ENDCHAR
STARTCHAR 01CA
ENCODING 458
SWIDTH 1222 0
DWIDTH 22 0
BBX 19 13 1 0
BITMAP
E06060
E06060
F06060
D06060
D86060
CC6060
C46060
C66060
C36060
C36C60
C1EC60
C0E660
C0E3C0
ENDCHAR
STARTCHAR 01CB
ENCODING 459
SWIDTH 944 0
DWIDTH 17 0
BBX 16 17 1 -4
BITMAP
E063
E060
F060
D063
D863
CC63
C463
C663
C363
C363
C1E3
C0E3
C0E3
0003
0003
0003
000E
ENDCHAR
STARTCHAR 01CC
ENCODING 460
SWIDTH 777 0
DWIDTH 14 0
BBX 13 17 1 -4
BITMAP
0018
0000
0000
DE18
E718
C318
C318
C318
C318
C318
C318
C318
C318
0018
0018
0018
0070
ENDCHAR
STARTCHAR 01CD
ENCODING 461
SWIDTH 666 0
DWIDTH 12 0
BBX 12 16 0 0
BITMAP
0D80
0700
0000
0600
0F00
0F00
0900
1980
1980
1080
30C0
3FC0
2040
6060
6060
C030
ENDCHAR
STARTCHAR 01CE
ENCODING 462
SWIDTH 555 0
DWIDTH 10 0
BBX 9 13 1 0
BITMAP
4400
2800
3800
7E00
E300
C300
0300
0F00
7B00
C300
C300
C700
7B80
ENDCHAR
STARTCHAR 01CF
ENCODING 463
SWIDTH 277 0
DWIDTH 5 0
BBX 5 16 1 0
BITMAP
D8
70
00
60
60
60
60
60
60
60
60
60
60
60
60
60
ENDCHAR
STARTCHAR 01D0
ENCODING 464
SWIDTH 277 0
DWIDTH 5 0
BBX 4 13 0 0
BITMAP
90
B0
60
60
60
60
60
60
60
60
60
60
60
ENDCHAR
STARTCHAR 01D1
ENCODING 465
SWIDTH 777 0
DWIDTH 14 0
BBX 13 16 1 0
BITMAP
0D80
0700
0000
0F80
3060
6030
6030
C018
C018
C018
C018
C018
6030
6030
3060
0F80
ENDCHAR
STARTCHAR 01D2
ENCODING 466
SWIDTH 555 0
DWIDTH 10 0
BBX 8 13 1 0
BITMAP
44
28
38
3C
66
C3
C3
C3
C3
C3
C3
66
3C
ENDCHAR
STARTCHAR 01D3
ENCODING 467
SWIDTH 722 0
DWIDTH 13 0
BBX 11 16 1 0
BITMAP
0D80
0700
0000
C060
C060
C060
C060
C060
C060
C060
C060
C060
C060
C060
60C0
1F00
ENDCHAR
STARTCHAR 01D4
ENCODING 468
SWIDTH 555 0
DWIDTH 10 0
BBX 8 13 1 0
BITMAP
44
28
38
C3
C3
C3
C3
C3
C3
C3
C3
C7
7B
ENDCHAR
STARTCHAR 01D5
ENCODING 469
SWIDTH 722 0
DWIDTH 13 0
BBX 11 18 1 0
BITMAP
1F00
0000
0000
1980
0000
C060
C060
C060
C060
C060
C060
C060
C060
C060
C060
C060
60C0
1F00
ENDCHAR
STARTCHAR 01D6
ENCODING 470
SWIDTH 555 0
DWIDTH 10 0
BBX 8 15 1 1
BITMAP
7C
00
00
66
00
C3
C3
C3
C3
C3
C3
C3
C3
C7
7B
ENDCHAR
STARTCHAR 01D7
ENCODING 471
SWIDTH 722 0
DWIDTH 13 0
BBX 11 18 1 0
BITMAP
0600
0C00
0000
0000
1980
C060
C060
C060
C060
C060
C060
C060
C060
C060
C060
C060
60C0
1F00
ENDCHAR
STARTCHAR 01D8
ENCODING 472
SWIDTH 555 0
DWIDTH 10 0
BBX 8 16 1 0
BITMAP
06
04
08
00
66
00
C3
C3
C3
C3
C3
C3
C3
C3
C7
7B
ENDCHAR
STARTCHAR 01D9
ENCODING 473
SWIDTH 722 0
DWIDTH 13 0
BBX 11 17 1 0
BITMAP
0D80
0700
0000
1980
C060
C060
C060
C060
C060
C060
C060
C060
C060
C060
C060
60C0
1F00
ENDCHAR
STARTCHAR 01DA
ENCODING 474
SWIDTH 555 0
DWIDTH 10 0
BBX 8 16 1 0
BITMAP
44
28
38
00
66
00
C3
C3
C3
C3
C3
C3
C3
C3
C7
7B
ENDCHAR
STARTCHAR 01DB
ENCODING 475
SWIDTH 722 0
DWIDTH 13 0
BBX 11 17 1 0
BITMAP
1800
0C00
0000
1980
C060
C060
C060
C060
C060
C060
C060
C060
C060
C060
C060
60C0
1F00
ENDCHAR
STARTCHAR 01DC
ENCODING 476
SWIDTH 555 0
DWIDTH 10 0
BBX 8 16 1 0
BITMAP
60
20
10
00
66
00
C3
C3
C3
C3
C3
C3
C3
C3
C7
7B
ENDCHAR
STARTCHAR 01DD
ENCODING 477
SWIDTH 555 0
DWIDTH 10 0
BBX 8 10 1 0
BITMAP
7C
C6
C6
03
03
FF
C6
C6
6C
38
ENDCHAR
STARTCHAR 01DE
ENCODING 478
SWIDTH 666 0
DWIDTH 12 0
BBX 12 18 0 0
BITMAP
1F00
0000
0000
1980
0000
0600
0F00
0F00
0900
1980
1980
1080
30C0
3FC0
2040
6060
6060
C030
ENDCHAR
STARTCHAR 01DF
ENCODING 479
SWIDTH 555 0
DWIDTH 10 0
BBX 9 15 1 0
BITMAP
7C00
0000
0000
0000
6600
7E00
E300
C300
0300
0F00
7B00
C300
C300
C700
7B80
ENDCHAR
STARTCHAR 01E0
ENCODING 480
SWIDTH 666 0
DWIDTH 12 0
BBX 12 18 0 0
BITMAP
1F00
0000
0000
0600
0600
0600
0F00
0F00
0900
1980
1980
1080
30C0
3FC0
2040
6060
6060
C030
ENDCHAR
STARTCHAR 01E1
ENCODING 481
SWIDTH 555 0
DWIDTH 10 0
BBX 9 15 1 0
BITMAP
7C00
0000
0000
0000
1800
7E00
E300
C300
0300
0F00
7B00
C300
C300
C700
7B80
ENDCHAR
STARTCHAR 01E2
ENCODING 482
SWIDTH 1000 0
DWIDTH 18 0
BBX 16 16 1 1
BITMAP
01F0
0000
0000
07FF
04C0
0CC0
08C0
18C0
18C0
30FF
30C0
3FC0
60C0
60C0
C0C0
C0FF
ENDCHAR
STARTCHAR 01E3
ENCODING 483
SWIDTH 888 0
DWIDTH 16 0
BBX 15 13 1 0
BITMAP
0F80
0000
0000
7EF8
E38C
C306
0306
3FFE
E300
C300
C306
C78C
78F8
ENDCHAR
STARTCHAR 01E4
ENCODING 484
SWIDTH 777 0
DWIDTH 14 0
BBX 13 13 1 0
BITMAP
0F80
30E0
6060
6030
C000
C000
C1F0
C030
C030
61F8
6030
3070
0F90
ENDCHAR
STARTCHAR 01E5
ENCODING 485
SWIDTH 555 0
DWIDTH 10 0
BBX 9 14 1 -4
BITMAP
3B00
6700
C300
C300
C300
C300
C300
C300
6700
3B00
0300
CF80
E600
3C00
ENDCHAR
STARTCHAR 01E6
ENCODING 486
SWIDTH 777 0
DWIDTH 14 0
BBX 12 16 1 0
BITMAP
0D80
0700
0000
0F80
30E0
6060
6030
C000
C000
C1F0
C030
C030
6030
6070
30F0
0F10
ENDCHAR
STARTCHAR 01E7
ENCODING 487
SWIDTH 555 0
DWIDTH 10 0
BBX 8 17 1 -4
BITMAP
48
68
30
3B
67
C3
C3
C3
C3
C3
C3
67
3B
03
03
C6
7C
ENDCHAR
STARTCHAR 01E8
ENCODING 488
SWIDTH 666 0
DWIDTH 12 0
BBX 10 16 1 0
BITMAP
0D80
0700
0000
C0C0
C180
C300
C600
CC00
DC00
FC00
E600
C300
C300
C180
C0C0
C0C0
ENDCHAR
STARTCHAR 01E9
ENCODING 489
SWIDTH 500 0
DWIDTH 9 0
BBX 8 16 1 0
BITMAP
4C
28
38
C0
C0
C0
C2
C4
CC
D8
F8
EC
C4
C6
C3
C3
ENDCHAR
STARTCHAR 01EA
ENCODING 490
SWIDTH 777 0
DWIDTH 14 0
BBX 13 17 1 -4
BITMAP
0FC0
3860
6030
6030
C018
C018
C018
C018
C018
6030
6030
38E0
0FC0
0600
0C00
0C00
0700
ENDCHAR
STARTCHAR 01EB
ENCODING 491
SWIDTH 555 0
DWIDTH 10 0
BBX 9 14 1 -4
BITMAP
3E00
6300
C180
C180
C180
C180
C180
6380
7300
3E00
1800
3000
3000
1C00
ENDCHAR
STARTCHAR 01EC
ENCODING 492
SWIDTH 777 0
DWIDTH 14 0
BBX 13 20 1 -3
BITMAP
1F00
0000
0000
0FC0
3860
6030
6030
C018
C018
C018
C018
C018
6030
6030
38E0
0FC0
0600
0C00
0C00
0700
ENDCHAR
STARTCHAR 01ED
ENCODING 493
SWIDTH 555 0
DWIDTH 10 0
BBX 9 16 1 -3
BITMAP
7C00
0000
3E00
6300
C180
C180
C180
C180
C180
6380
7300
3E00
1800
3000
3000
1C00
ENDCHAR
STARTCHAR 01EE
ENCODING 494
SWIDTH 611 0
DWIDTH 11 0
BBX 10 16 1 0
BITMAP
1B00
0E00
0000
7FC0
0180
0180
0300
0600
0F00
0180
00C0
00C0
C0C0
C0C0
6180
3F00
ENDCHAR
STARTCHAR 01EF
ENCODING 495
SWIDTH 500 0
DWIDTH 9 0
BBX 9 16 0 -3
BITMAP
2600
3400
1800
7F00
0300
0600
0400
0C00
0E00
0300
0180
0180
C180
C180
6300
3E00
ENDCHAR
STARTCHAR 01F0
ENCODING 496
SWIDTH 222 0
DWIDTH 4 0
BBX 5 17 -1 -4
BITMAP
88
50
70
30
30
30
30
30
30
30
30
30
30
30
30
30
E0
ENDCHAR
STARTCHAR 01F1
ENCODING 497
SWIDTH 1277 0
DWIDTH 23 0
BBX 22 13 1 0
BITMAP
FF0FFC
C18018
C0C018
C06030
C06060
C060E0
C060C0
C06180
C06300
C06300
C0C600
C18C00
FF0FFC
ENDCHAR
STARTCHAR 01F2
ENCODING 498
SWIDTH 1166 0
DWIDTH 21 0
BBX 20 13 1 0
BITMAP
FF0000
C18000
C0C000
C06FE0
C06060
C06040
C060C0
C06180
C06300
C06300
C0C600
C18C00
FF0FF0
ENDCHAR
STARTCHAR 01F3
ENCODING 499
SWIDTH 1055 0
DWIDTH 19 0
BBX 17 13 1 0
BITMAP
030000
030000
030000
3B3F80
670180
C30300
C30600
C30600
C30C00
C31800
C31000
673000
3B3F80
ENDCHAR
STARTCHAR 01F4
ENCODING 500
SWIDTH 777 0
DWIDTH 14 0
BBX 12 16 1 0
BITMAP
0300
0600
0000
0F80
30E0
6060
6030
C000
C000
C1F0
C030
C030
6030
6070
30F0
0F10
ENDCHAR
STARTCHAR 01F5
ENCODING 501
SWIDTH 555 0
DWIDTH 10 0
BBX 8 17 1 -4
BITMAP
06
0C
08
3B
67
C3
C3
C3
C3
C3
C3
67
3B
03
03
C6
7C
ENDCHAR
STARTCHAR 01F7
ENCODING 503
SWIDTH 611 0
DWIDTH 11 0
BBX 10 13 1 0
BITMAP
DF80
F0C0
C0C0
C0C0
C1C0
C180
C700
CE00
DC00
F000
C000
C000
C000
ENDCHAR
STARTCHAR 01F8
ENCODING 504
SWIDTH 722 0
DWIDTH 13 0
BBX 11 16 1 0
BITMAP
0C00
0600
0000
E060
E060
F060
D060
D860
CC60
C460
C660
C360
C360
C1E0
C0E0
C0E0
ENDCHAR
STARTCHAR 01F9
ENCODING 505
SWIDTH 555 0
DWIDTH 10 0
BBX 8 13 1 0
BITMAP
60
30
18
DE
E7
C3
C3
C3
C3
C3
C3
C3
C3
ENDCHAR
STARTCHAR 01FA
ENCODING 506
SWIDTH 666 0
DWIDTH 12 0
BBX 10 16 1 0
BITMAP
0C00
1800
0E00
1B00
1B00
0400
0C00
1E00
1E00
3300
3300
6180
7F80
C0C0
C0C0
8040
ENDCHAR
STARTCHAR 01FB
ENCODING 507
SWIDTH 555 0
DWIDTH 10 0
BBX 9 16 1 0
BITMAP
1800
3000
1C00
3600
3600
1C00
7E00
E300
C300
0300
0F00
7B00
C300
C300
C700
7B80
ENDCHAR
STARTCHAR 01FC
ENCODING 508
SWIDTH 1000 0
DWIDTH 18 0
BBX 16 16 1 0
BITMAP
0030
0060
0000
07FF
04C0
0CC0
08C0
18C0
18C0
30FF
30C0
3FC0
60C0
60C0
C0C0
C0FF
ENDCHAR
STARTCHAR 01FD
ENCODING 509
SWIDTH 888 0
DWIDTH 16 0
BBX 15 13 1 0
BITMAP
00C0
0080
0180
7EF8
E38C
C306
0306
3FFE
E300
C300
C306
C78C
78F8
ENDCHAR
STARTCHAR 01FE
ENCODING 510
SWIDTH 777 0
DWIDTH 14 0
BBX 13 16 1 0
BITMAP
0300
0600
0000
0FD8
3060
6070
60F0
C198
C118
C218
C418
C818
7030
6030
7060
8F80
ENDCHAR
STARTCHAR 01FF
ENCODING 511
SWIDTH 611 0
DWIDTH 11 0
BBX 8 13 1 -1
BITMAP
06
06
0C
3D
66
C7
CB
CB
D3
D3
E3
66
BC
ENDCHAR
STARTCHAR 0200
ENCODING 512
SWIDTH 666 0
DWIDTH 12 0
BBX 12 16 0 0
BITMAP
1E00
0B00
0000
0600
0F00
0F00
0900
1980
1980
1080
30C0
3FC0
2040
6060
6060
C030
ENDCHAR
STARTCHAR 0201
ENCODING 513
SWIDTH 555 0
DWIDTH 10 0
BBX 9 13 1 0
BITMAP
D800
6800
2C00
7E00
E300
C300
0300
0F00
7B00
C300
C300
C700
7B80
ENDCHAR
STARTCHAR 0202
ENCODING 514
SWIDTH 666 0
DWIDTH 12 0
BBX 12 16 0 0
BITMAP
0F00
1080
0000
0600
0F00
0F00
0900
1980
1980
1080
30C0
3FC0
2040
6060
6060
C030
ENDCHAR
STARTCHAR 0203
ENCODING 515
SWIDTH 555 0
DWIDTH 10 0
BBX 9 13 1 0
BITMAP
1800
6600
0000
7E00
E300
C300
0300
0F00
7B00
C300
C300
C700
7B80
ENDCHAR
STARTCHAR 0204
ENCODING 516
SWIDTH 611 0
DWIDTH 11 0
BBX 9 16 1 0
BITMAP
1E00
0B00
0000
FF80
C000
C000
C000
C000
C000
FF00
C000
C000
C000
C000
C000
FF80
ENDCHAR
STARTCHAR 0205
ENCODING 517
SWIDTH 555 0
DWIDTH 10 0
BBX 8 13 1 0
BITMAP
D8
6C
24
3C
66
C3
C3
FF
C0
C0
C3
66
3C
ENDCHAR
STARTCHAR 0206
ENCODING 518
SWIDTH 611 0
DWIDTH 11 0
BBX 9 16 1 0
BITMAP
1E00
2100
0000
FF80
C000
C000
C000
C000
C000
FF00
C000
C000
C000
C000
C000
FF80
ENDCHAR
STARTCHAR 0207
ENCODING 519
SWIDTH 555 0
DWIDTH 10 0
BBX 8 13 1 0
BITMAP
18
66
00
3C
66
C3
C3
FF
C0
C0
C3
66
3C
ENDCHAR
STARTCHAR 0208
ENCODING 520
SWIDTH 277 0
DWIDTH 5 0
BBX 5 16 0 0
BITMAP
F0
58
00
30
30
30
30
30
30
30
30
30
30
30
30
30
ENDCHAR
STARTCHAR 0209
ENCODING 521
SWIDTH 277 0
DWIDTH 5 0
BBX 6 13 -1 0
BITMAP
D8
48
2C
30
30
30
30
30
30
30
30
30
30
ENDCHAR
STARTCHAR 020A
ENCODING 522
SWIDTH 277 0
DWIDTH 5 0
BBX 6 16 0 0
BITMAP
78
8C
00
30
30
30
30
30
30
30
30
30
30
30
30
30
ENDCHAR
STARTCHAR 020B
ENCODING 523
SWIDTH 277 0
DWIDTH 5 0
BBX 5 13 0 0
BITMAP
60
98
00
60
60
60
60
60
60
60
60
60
60
ENDCHAR
STARTCHAR 020C
ENCODING 524
SWIDTH 777 0
DWIDTH 14 0
BBX 13 16 1 0
BITMAP
1E00
0B00
0000
0F80
3060
6030
6030
C018
C018
C018
C018
C018
6030
6030
3060
0F80
ENDCHAR
STARTCHAR 020D
ENCODING 525
SWIDTH 555 0
DWIDTH 10 0
BBX 8 13 1 0
BITMAP
D8
48
2C
3C
66
C3
C3
C3
C3
C3
C3
66
3C
ENDCHAR
STARTCHAR 020E
ENCODING 526
SWIDTH 777 0
DWIDTH 14 0
BBX 13 16 1 0
BITMAP
0F00
1080
0000
0F80
3060
6030
6030
C018
C018
C018
C018
C018
6030
6030
3060
0F80
ENDCHAR
STARTCHAR 020F
ENCODING 527
SWIDTH 555 0
DWIDTH 10 0
BBX 8 13 1 0
BITMAP
18
66
00
3C
66
C3
C3
C3
C3
C3
C3
66
3C
ENDCHAR
STARTCHAR 0210
ENCODING 528
SWIDTH 722 0
DWIDTH 13 0
BBX 12 16 1 0
BITMAP
3C00
1600
0000
FF80
C0E0
C060
C060
C060
C0C0
FF80
C0E0
C060
C060
C060
C060
C070
ENDCHAR
STARTCHAR 0211
ENCODING 529
SWIDTH 333 0
DWIDTH 6 0
BBX 6 13 0 0
BITMAP
D8
58
68
6C
70
60
60
60
60
60
60
60
60
ENDCHAR
STARTCHAR 0212
ENCODING 530
SWIDTH 722 0
DWIDTH 13 0
BBX 12 16 1 0
BITMAP
1E00
3100
0000
FF80
C0E0
C060
C060
C060
C0C0
FF80
C0E0
C060
C060
C060
C060
C070
ENDCHAR
STARTCHAR 0213
ENCODING 531
SWIDTH 333 0
DWIDTH 6 0
BBX 5 13 1 0
BITMAP
70
D8
00
D8
E0
C0
C0
C0
C0
C0
C0
C0
C0
ENDCHAR
STARTCHAR 0214
ENCODING 532
SWIDTH 722 0
DWIDTH 13 0
BBX 11 16 1 0
BITMAP
1E00
0B00
0000
C060
C060
C060
C060
C060
C060
C060
C060
C060
C060
C060
60C0
1F00
ENDCHAR
STARTCHAR 0215
ENCODING 533
SWIDTH 555 0
DWIDTH 10 0
BBX 8 13 1 0
BITMAP
6C
2C
34
C3
C3
C3
C3
C3
C3
C3
C3
C7
7B
ENDCHAR
STARTCHAR 0216
ENCODING 534
SWIDTH 722 0
DWIDTH 13 0
BBX 11 16 1 0
BITMAP
0F00
1100
0000
C060
C060
C060
C060
C060
C060
C060
C060
C060
C060
C060
60C0
1F00
ENDCHAR
STARTCHAR 0217
ENCODING 535
SWIDTH 555 0
DWIDTH 10 0
BBX 8 13 1 0
BITMAP
18
66
00
C3
C3
C3
C3
C3
C3
C3
C3
C7
7B
ENDCHAR
STARTCHAR 0218
ENCODING 536
SWIDTH 666 0
DWIDTH 12 0
BBX 10 18 1 -5
BITMAP
3F00
6180
C0C0
C0C0
C000
7800
1F00
0380
00C0
C0C0
C0C0
6180
3F00
0000
0000
0C00
0400
0C00
ENDCHAR
STARTCHAR 0219
ENCODING 537
SWIDTH 500 0
DWIDTH 9 0
BBX 8 15 1 -5
BITMAP
3E
E3
C0
C0
E0
3C
07
C3
E3
7E
00
00
30
10
30
ENDCHAR
STARTCHAR 021A
ENCODING 538
SWIDTH 611 0
DWIDTH 11 0
BBX 8 18 2 -5
BITMAP
FF
18
18
18
18
18
18
18
18
18
18
18
18
00
00
30
10
30
ENDCHAR
STARTCHAR 021B
ENCODING 539
SWIDTH 277 0
DWIDTH 5 0
BBX 4 17 1 -5
BITMAP
60
60
F0
60
60
60
60
60
60
60
60
70
00
00
60
20
60
ENDCHAR
STARTCHAR 021C
ENCODING 540
SWIDTH 555 0
DWIDTH 10 0
BBX 8 14 1 -2
BITMAP
3E
67
C3
C3
07
0C
3E
03
03
03
07
1E
78
E0
ENDCHAR
STARTCHAR 021D
ENCODING 541
SWIDTH 388 0
DWIDTH 7 0
BBX 7 11 0 -2
BITMAP
7C
C6
C6
06
1C
36
06
06
1C
78
40
ENDCHAR
STARTCHAR 021E
ENCODING 542
SWIDTH 722 0
DWIDTH 13 0
BBX 11 16 1 0
BITMAP
0D80
0700
0000
C060
C060
C060
C060
C060
C060
FFE0
C060
C060
C060
C060
C060
C060
ENDCHAR
STARTCHAR 021F
ENCODING 543
SWIDTH 555 0
DWIDTH 10 0
BBX 8 16 1 0
BITMAP
24
2C
18
C0
C0
C0
DE
E3
C3
C3
C3
C3
C3
C3
C3
C3
ENDCHAR
STARTCHAR 0220
ENCODING 544
SWIDTH 722 0
DWIDTH 13 0
BBX 11 17 1 -4
BITMAP
FF80
E0C0
C060
C060
C060
C060
C060
C060
C060
C060
C060
C060
C060
0060
0060
0060
0060
ENDCHAR
STARTCHAR 0224
ENCODING 548
SWIDTH 611 0
DWIDTH 11 0
BBX 9 17 2 -4
BITMAP
FF80
0180
0300
0600
0400
0C00
0800
1000
3000
2000
4000
8000
FF80
0180
0180
0180
0700
ENDCHAR
STARTCHAR 0225
ENCODING 549
SWIDTH 500 0
DWIDTH 9 0
BBX 7 14 2 -4
BITMAP
FE
04
0C
18
10
30
20
40
80
FE
06
06
06
1C
ENDCHAR
STARTCHAR 0226
ENCODING 550
SWIDTH 666 0
DWIDTH 12 0
BBX 12 15 0 1
BITMAP
0600
0000
0600
0F00
0F00
0900
1980
1980
1080
30C0
3FC0
2040
6060
6060
C030
ENDCHAR
STARTCHAR 0227
ENCODING 551
SWIDTH 555 0
DWIDTH 10 0
BBX 9 12 1 1
BITMAP
1800
0000
7E00
E300
C300
0300
0F00
7B00
C300
C300
C700
7B80
ENDCHAR
STARTCHAR 0228
ENCODING 552
SWIDTH 611 0
DWIDTH 11 0
BBX 9 17 1 -4
BITMAP
FF80
C000
C000
C000
C000
C000
FF00
C000
C000
C000
C000
C000
FF80
0400
0F00
0300
1E00
ENDCHAR
STARTCHAR 0229
ENCODING 553
SWIDTH 555 0
DWIDTH 10 0
BBX 8 14 1 -4
BITMAP
3C
66
C3
C3
C3
FF
C0
C3
66
3C
10
1C
0C
38
ENDCHAR
STARTCHAR 022A
ENCODING 554
SWIDTH 777 0
DWIDTH 14 0
BBX 13 18 1 0
BITMAP
1F00
0000
0000
1980
0000
0F80
3060
6030
6030
C018
C018
C018
C018
C018
6030
6030
3060
0F80
ENDCHAR
STARTCHAR 022B
ENCODING 555
SWIDTH 555 0
DWIDTH 10 0
BBX 8 15 1 0
BITMAP
7C
00
00
00
66
3C
66
C3
C3
C3
C3
C3
C3
66
3C
ENDCHAR
STARTCHAR 022C
ENCODING 556
SWIDTH 777 0
DWIDTH 14 0
BBX 13 18 1 1
BITMAP
1F00
0000
0D00
1300
0000
0F80
3060
6030
6030
C018
C018
C018
C018
C018
6030
6030
3060
0F80
ENDCHAR
STARTCHAR 022D
ENCODING 557
SWIDTH 555 0
DWIDTH 10 0
BBX 8 15 1 0
BITMAP
7C
00
00
74
48
3C
66
C3
C3
C3
C3
C3
C3
66
3C
ENDCHAR
STARTCHAR 022E
ENCODING 558
SWIDTH 777 0
DWIDTH 14 0
BBX 13 15 1 1
BITMAP
0600
0000
0F80
3060
6030
6030
C018
C018
C018
C018
C018
6030
6030
3060
0F80
ENDCHAR
STARTCHAR 022F
ENCODING 559
SWIDTH 555 0
DWIDTH 10 0
BBX 8 12 1 0
BITMAP
18
00
3C
66
C3
C3
C3
C3
C3
C3
66
3C
ENDCHAR
STARTCHAR 0230
ENCODING 560
SWIDTH 777 0
DWIDTH 14 0
BBX 13 18 1 1
BITMAP
1F00
0000
0000
0600
0000
0F80
3060
6030
6030
C018
C018
C018
C018
C018
6030
6030
3060
0F80
ENDCHAR
STARTCHAR 0231
ENCODING 561
SWIDTH 555 0
DWIDTH 10 0
BBX 8 15 1 0
BITMAP
7C
00
00
00
18
3C
66
C3
C3
C3
C3
C3
C3
66
3C
ENDCHAR
STARTCHAR 0232
ENCODING 562
SWIDTH 666 0
DWIDTH 12 0
BBX 12 16 0 0
BITMAP
1F00
0000
0000
C030
6060
30C0
30C0
1980
1D80
0F00
0600
0600
0600
0600
0600
0600
ENDCHAR
STARTCHAR 0233
ENCODING 563
SWIDTH 500 0
DWIDTH 9 0
BBX 8 16 0 -3
BITMAP
3E
00
C1
43
63
62
26
36
34
1C
1C
18
18
18
10
60
ENDCHAR
STARTCHAR 0237
ENCODING 567
SWIDTH 222 0
DWIDTH 4 0
BBX 4 14 -1 -4
BITMAP
30
30
30
30
30
30
30
30
30
30
30
30
30
E0
ENDCHAR
STARTCHAR 0238
ENCODING 568
SWIDTH 888 0
DWIDTH 16 0
BBX 15 13 1 0
BITMAP
0300
0300
0300
3B78
678C
C306
C306
C306
C306
C306
C306
678C
3B78
ENDCHAR
STARTCHAR 0239
ENCODING 569
SWIDTH 888 0
DWIDTH 16 0
BBX 15 13 1 -3
BITMAP
3B78
678C
C306
C306
C306
C306
C306
C306
678C
3B78
0300
0300
0300
ENDCHAR
STARTCHAR 0250
ENCODING 592
SWIDTH 555 0
DWIDTH 10 0
BBX 9 10 0 0
BITMAP
FF00
7180
6180
6380
7F00
6000
6000
6180
7300
1E00
ENDCHAR
STARTCHAR 0251
ENCODING 593
SWIDTH 555 0
DWIDTH 10 0
BBX 9 10 1 0
BITMAP
3B00
6700
C700
C300
C300
C300
C300
C300
6700
3B80
ENDCHAR
STARTCHAR 0252
ENCODING 594
SWIDTH 555 0
DWIDTH 10 0
BBX 9 10 0 0
BITMAP
FF00
7180
7180
6180
6180
6180
7180
7180
7B00
6400
ENDCHAR
STARTCHAR 0253
ENCODING 595
SWIDTH 555 0
DWIDTH 10 0
BBX 9 13 1 0
BITMAP
6000
C000
C000
DE00
E300
C180
C180
C180
C180
C180
C180
E300
DE00
ENDCHAR
STARTCHAR 0254
ENCODING 596
SWIDTH 500 0
DWIDTH 9 0
BBX 8 10 0 0
BITMAP
7C
E6
C3
03
03
03
03
C3
66
38
ENDCHAR
STARTCHAR 0255
ENCODING 597
SWIDTH 500 0
DWIDTH 9 0
BBX 8 10 1 -1
BITMAP
3E
67
43
C0
C0
C0
CE
F3
63
FE
ENDCHAR
STARTCHAR 0256
ENCODING 598
SWIDTH 611 0
DWIDTH 11 0
BBX 10 17 1 -4
BITMAP
0300
0300
0300
3B00
6700
C300
C300
C300
C300
C300
C300
6700
3B00
0300
0300
0300
01C0
ENDCHAR
STARTCHAR 0257
ENCODING 599
SWIDTH 611 0
DWIDTH 11 0
BBX 10 13 1 0
BITMAP
01C0
0300
0300
3B00
6700
C300
C300
C300
C300
C300
C300
6700
3B00
ENDCHAR
STARTCHAR 0258
ENCODING 600
SWIDTH 555 0
DWIDTH 10 0
BBX 8 10 1 0
BITMAP
3C
66
C3
C3
FF
03
03
C3
66
3C
ENDCHAR
STARTCHAR 0259
ENCODING 601
SWIDTH 555 0
DWIDTH 10 0
BBX 8 10 1 0
BITMAP
7C
C6
C6
03
03
FF
C6
C6
6C
38
ENDCHAR
STARTCHAR 025A
ENCODING 602
SWIDTH 777 0
DWIDTH 14 0
BBX 13 11 1 0
BITMAP
00C0
3DC0
6740
C340
0368
FF30
C300
C300
C200
6600
3C00
ENDCHAR
STARTCHAR 025B
ENCODING 603
SWIDTH 500 0
DWIDTH 9 0
BBX 7 10 1 0
BITMAP
3C
C6
C0
C0
40
30
C0
C6
C6
7C
ENDCHAR
STARTCHAR 025C
ENCODING 604
SWIDTH 500 0
DWIDTH 9 0
BBX 7 10 1 0
BITMAP
78
C6
06
06
04
18
06
C6
C6
7C
ENDCHAR
STARTCHAR 025D
ENCODING 605
SWIDTH 722 0
DWIDTH 13 0
BBX 12 11 1 0
BITMAP
0180
7B80
C680
06C0
0650
1870
0600
0600
C600
C600
7C00
ENDCHAR
STARTCHAR 025E
ENCODING 606
SWIDTH 500 0
DWIDTH 9 0
BBX 8 10 1 0
BITMAP
3C
67
C3
C3
C2
CC
C3
C3
63
3E
ENDCHAR
STARTCHAR 025F
ENCODING 607
SWIDTH 277 0
DWIDTH 5 0
BBX 5 14 0 -4
BITMAP
30
30
30
30
30
78
30
30
30
30
30
30
30
E0
ENDCHAR
STARTCHAR 0260
ENCODING 608
SWIDTH 611 0
DWIDTH 11 0
BBX 10 15 1 -4
BITMAP
01C0
3B00
6700
C300
C300
C300
C300
C300
C300
6700
3B00
0300
0300
C600
7C00
ENDCHAR
STARTCHAR 0261
ENCODING 609
SWIDTH 555 0
DWIDTH 10 0
BBX 9 14 1 -4
BITMAP
3F80
6700
C300
C300
C300
C300
C300
C300
6700
3B00
0300
0300
C600
7C00
ENDCHAR
STARTCHAR 0262
ENCODING 610
SWIDTH 555 0
DWIDTH 10 0
BBX 9 10 1 0
BITMAP
1E00
6300
4180
C000
C000
C780
C180
C180
6380
3E80
ENDCHAR
STARTCHAR 0263
ENCODING 611
SWIDTH 500 0
DWIDTH 9 0
BBX 7 14 1 -4
BITMAP
82
C6
44
6C
2C
28
38
10
10
38
6C
6C
6C
38
ENDCHAR
STARTCHAR 0264
ENCODING 612
SWIDTH 555 0
DWIDTH 10 0
BBX 10 9 0 0
BITMAP
3700
4C80
CCC0
1E00
3200
3300
3300
3300
1E00
ENDCHAR
STARTCHAR 0265
ENCODING 613
SWIDTH 555 0
DWIDTH 10 0
BBX 8 13 1 -3
BITMAP
C3
C3
C3
C3
C3
C3
C7
C7
EB
33
03
03
03
ENDCHAR
STARTCHAR 0266
ENCODING 614
SWIDTH 555 0
DWIDTH 10 0
BBX 8 13 1 0
BITMAP
60
C0
C0
DE
E3
C3
C3
C3
C3
C3
C3
C3
C3
ENDCHAR
STARTCHAR 0267
ENCODING 615
SWIDTH 555 0
DWIDTH 10 0
BBX 8 17 1 -4
BITMAP
60
C0
C0
DE
E3
C3
C3
C3
C3
C3
C3
C3
C3
03
03
03
06
ENDCHAR
STARTCHAR 0268
ENCODING 616
SWIDTH 277 0
DWIDTH 5 0
BBX 4 13 1 0
BITMAP
60
00
00
60
60
60
60
F0
60
60
60
60
60
ENDCHAR
STARTCHAR 0269
ENCODING 617
SWIDTH 277 0
DWIDTH 5 0
BBX 4 10 1 0
BITMAP
C0
C0
C0
C0
C0
C0
C0
C0
C0
F0
ENDCHAR
STARTCHAR 026A
ENCODING 618
SWIDTH 277 0
DWIDTH 5 0
BBX 4 10 0 0
BITMAP
F0
60
60
60
60
60
60
60
60
F0
ENDCHAR
STARTCHAR 026B
ENCODING 619
SWIDTH 500 0
DWIDTH 9 0
BBX 8 13 0 0
BITMAP
18
18
18
18
18
78
99
1F
18
18
18
18
18
ENDCHAR
STARTCHAR 026C
ENCODING 620
SWIDTH 444 0
DWIDTH 8 0
BBX 7 13 0 0
BITMAP
18
18
18
18
78
D8
D8
7E
18
18
18
18
18
ENDCHAR
STARTCHAR 026D
ENCODING 621
SWIDTH 277 0
DWIDTH 5 0
BBX 4 17 1 -4
BITMAP
C0
C0
C0
C0
C0
C0
C0
C0
C0
C0
C0
C0
C0
C0
C0
C0
70
ENDCHAR
STARTCHAR 026E
ENCODING 622
SWIDTH 611 0
DWIDTH 11 0
BBX 10 16 1 -3
BITMAP
C000
C000
C000
FF00
C100
C200
C600
C400
C780
C1C0
C0C0
C0C0
C0C0
0080
3180
1F00
ENDCHAR
STARTCHAR 026F
ENCODING 623
SWIDTH 833 0
DWIDTH 15 0
BBX 13 10 1 0
BITMAP
C618
C618
C618
C618
C618
C618
C618
CE38
FF58
2198
ENDCHAR
STARTCHAR 0270
ENCODING 624
SWIDTH 833 0
DWIDTH 15 0
BBX 13 13 1 -3
BITMAP
C318
C318
C318
C318
C318
C318
C318
C318
C738
79D8
0018
0018
0018
ENDCHAR
STARTCHAR 0271
ENCODING 625
SWIDTH 833 0
DWIDTH 15 0
BBX 13 14 1 -4
BITMAP
DEF0
E398
C318
C318
C318
C318
C318
C318
C318
C318
0018
0018
0018
0030
ENDCHAR
STARTCHAR 0272
ENCODING 626
SWIDTH 555 0
DWIDTH 10 0
BBX 10 14 0 -4
BITMAP
3780
39C0
30C0
30C0
30C0
30C0
30C0
30C0
30C0
30C0
3000
3000
3000
E000
ENDCHAR
STARTCHAR 0273
ENCODING 627
SWIDTH 555 0
DWIDTH 10 0
BBX 10 14 1 -4
BITMAP
DE00
E700
C300
C300
C300
C300
C300
C300
C300
C300
0300
0300
0300
01C0
ENDCHAR
STARTCHAR 0274
ENCODING 628
SWIDTH 555 0
DWIDTH 10 0
BBX 8 10 1 0
BITMAP
E3
E3
F3
D3
D3
CB
CB
CF
C7
C7
ENDCHAR
STARTCHAR 0275
ENCODING 629
SWIDTH 555 0
DWIDTH 10 0
BBX 8 10 1 0
BITMAP
3C
66
C3
C3
FF
C3
C3
C2
66
3C
ENDCHAR
STARTCHAR 0276
ENCODING 630
SWIDTH 777 0
DWIDTH 14 0
BBX 12 10 1 0
BITMAP
3FF0
6700
C300
C300
C3E0
C300
C300
C300
6700
3FF0
ENDCHAR
STARTCHAR 0277
ENCODING 631
SWIDTH 722 0
DWIDTH 13 0
BBX 12 9 1 0
BITMAP
1F80
70E0
6060
C630
C630
C630
C630
6660
39C0
ENDCHAR
STARTCHAR 0278
ENCODING 632
SWIDTH 722 0
DWIDTH 13 0
BBX 12 16 1 -3
BITMAP
0600
0600
0600
3F80
6660
C660
C630
C630
C630
C630
C660
6660
1F80
0600
0600
0600
ENDCHAR
STARTCHAR 0279
ENCODING 633
SWIDTH 333 0
DWIDTH 6 0
BBX 5 10 0 0
BITMAP
18
18
18
18
18
18
18
38
78
98
ENDCHAR
STARTCHAR 027A
ENCODING 634
SWIDTH 333 0
DWIDTH 6 0
BBX 5 13 0 -1
BITMAP
18
18
18
18
18
18
18
18
18
18
18
38
D8
ENDCHAR
STARTCHAR 027B
ENCODING 635
SWIDTH 388 0
DWIDTH 7 0
BBX 7 14 0 -4
BITMAP
18
18
18
18
18
18
18
18
38
D8
18
18
18
0E
ENDCHAR
STARTCHAR 027C
ENCODING 636
SWIDTH 333 0
DWIDTH 6 0
BBX 5 13 1 -3
BITMAP
D8
E0
C0
C0
C0
C0
C0
C0
C0
C0
C0
C0
C0
ENDCHAR
STARTCHAR 027D
ENCODING 637
SWIDTH 333 0
DWIDTH 6 0
BBX 5 14 1 -4
BITMAP
D8
E0
C0
C0
C0
C0
C0
C0
C0
C0
C0
C0
C0
70
ENDCHAR
STARTCHAR 027E
ENCODING 638
SWIDTH 388 0
DWIDTH 7 0
BBX 6 10 1 0
BITMAP
78
CC
C0
C0
C0
C0
C0
C0
C0
C0
ENDCHAR
STARTCHAR 027F
ENCODING 639
SWIDTH 388 0
DWIDTH 7 0
BBX 6 13 0 -3
BITMAP
78
CC
0C
0C
0C
0C
0C
0C
0C
0C
0C
0C
0C
ENDCHAR
STARTCHAR 0280
ENCODING 640
SWIDTH 555 0
DWIDTH 10 0
BBX 8 10 1 0
BITMAP
FE
C3
C3
C3
FE
C8
CC
C6
C3
C1
ENDCHAR
STARTCHAR 0281
ENCODING 641
SWIDTH 555 0
DWIDTH 10 0
BBX 8 10 1 0
BITMAP
C3
C6
CC
C8
D8
FE
C3
C3
CE
F8
ENDCHAR
STARTCHAR 0282
ENCODING 642
SWIDTH 500 0
DWIDTH 9 0
BBX 8 14 1 -4
BITMAP
3E
E3
C0
C0
E0
3C
07
C3
E3
FE
C0
C0
C0
60
ENDCHAR
STARTCHAR 0283
ENCODING 643
SWIDTH 277 0
DWIDTH 5 0
BBX 6 17 0 -4
BITMAP
1C
30
30
30
30
30
30
30
30
30
30
30
30
30
30
30
E0
ENDCHAR
STARTCHAR 0284
ENCODING 644
SWIDTH 277 0
DWIDTH 5 0
BBX 5 17 0 -4
BITMAP
18
30
30
30
30
30
30
30
78
30
30
30
30
30
30
30
E0
ENDCHAR
STARTCHAR 0285
ENCODING 645
SWIDTH 333 0
DWIDTH 6 0
BBX 6 14 0 -4
BITMAP
E0
30
30
30
30
30
30
30
30
30
30
30
30
1C
ENDCHAR
STARTCHAR 0286
ENCODING 646
SWIDTH 444 0
DWIDTH 8 0
BBX 8 17 0 -4
BITMAP
07
0C
0C
0C
0C
0C
0C
0C
0C
0C
0C
0C
0C
7C
CF
CD
78
ENDCHAR
STARTCHAR 0287
ENCODING 647
SWIDTH 277 0
DWIDTH 5 0
BBX 4 12 0 1
BITMAP
E0
60
60
60
60
60
60
60
60
F0
60
60
ENDCHAR
STARTCHAR 0288
ENCODING 648
SWIDTH 277 0
DWIDTH 5 0
BBX 4 16 1 -4
BITMAP
60
60
F0
60
60
60
60
60
60
60
60
60
60
60
60
70
ENDCHAR
STARTCHAR 0289
ENCODING 649
SWIDTH 611 0
DWIDTH 11 0
BBX 10 10 1 0
BITMAP
6180
6180
6180
6180
FFC0
6180
6180
6180
7380
3D80
ENDCHAR
STARTCHAR 028A
ENCODING 650
SWIDTH 611 0
DWIDTH 11 0
BBX 10 9 1 0
BITMAP
F3C0
3300
6180
C0C0
C0C0
C0C0
6180
6180
1E00
ENDCHAR
STARTCHAR 028B
ENCODING 651
SWIDTH 500 0
DWIDTH 9 0
BBX 8 10 1 0
BITMAP
C0
CC
C6
C3
C3
C3
C3
C6
C6
F8
ENDCHAR
STARTCHAR 028C
ENCODING 652
SWIDTH 500 0
DWIDTH 9 0
BBX 9 10 0 0
BITMAP
1C00
1C00
1400
3600
3600
2200
6300
6300
4100
C180
ENDCHAR
STARTCHAR 028D
ENCODING 653
SWIDTH 722 0
DWIDTH 13 0
BBX 13 10 0 0
BITMAP
18C0
38E0
38A0
2CA0
2DB0
6530
6510
4710
C718
C218
ENDCHAR
STARTCHAR 028E
ENCODING 654
SWIDTH 500 0
DWIDTH 9 0
BBX 8 14 0 0
BITMAP
07
0C
08
08
18
1C
34
34
26
66
62
43
C3
C1
ENDCHAR
STARTCHAR 028F
ENCODING 655
SWIDTH 500 0
DWIDTH 9 0
BBX 8 10 1 0
BITMAP
81
C3
66
66
3C
18
18
18
18
18
ENDCHAR
STARTCHAR 0290
ENCODING 656
SWIDTH 555 0
DWIDTH 10 0
BBX 9 13 2 -4
BITMAP
FE00
0400
0800
1800
1000
2000
4000
8000
FE00
0600
0600
0600
0380
ENDCHAR
STARTCHAR 0291
ENCODING 657
SWIDTH 500 0
DWIDTH 9 0
BBX 9 12 0 -2
BITMAP
3F00
0300
0600
0C00
0800
1800
3700
6D80
CD80
FF00
0C00
0C00
ENDCHAR
STARTCHAR 0292
ENCODING 658
SWIDTH 500 0
DWIDTH 9 0
BBX 9 13 0 -3
BITMAP
7F00
0300
0600
0400
0C00
0E00
0300
0180
0180
C180
C180
6300
3E00
ENDCHAR
STARTCHAR 0293
ENCODING 659
SWIDTH 555 0
DWIDTH 10 0
BBX 9 12 1 -2
BITMAP
FE00
0600
0C00
0800
1800
1C00
1E00
0300
0300
7F00
C780
7C00
ENDCHAR
STARTCHAR 0294
ENCODING 660
SWIDTH 500 0
DWIDTH 9 0
BBX 8 13 1 0
BITMAP
3C
67
C3
C3
03
1E
1C
18
18
18
18
18
18
ENDCHAR
STARTCHAR 0295
ENCODING 661
SWIDTH 500 0
DWIDTH 9 0
BBX 8 13 1 0
BITMAP
3C
E6
C3
C3
C0
78
38
18
18
18
18
18
18
ENDCHAR
STARTCHAR 0296
ENCODING 662
SWIDTH 500 0
DWIDTH 9 0
BBX 8 13 0 -1
BITMAP
18
18
18
18
18
18
18
78
C0
C3
C3
C6
7E
ENDCHAR
STARTCHAR 0297
ENCODING 663
SWIDTH 722 0
DWIDTH 13 0
BBX 11 17 1 -4
BITMAP
1F80
30C0
6060
6060
C000
C000
C000
C000
C000
C000
C000
C000
C060
6060
60C0
30C0
1F00
ENDCHAR
STARTCHAR 0298
ENCODING 664
SWIDTH 777 0
DWIDTH 14 0
BBX 13 13 1 0
BITMAP
0F80
3060
6030
6030
C018
C318
C018
C018
C018
6030
6030
3060
0F80
ENDCHAR
STARTCHAR 0299
ENCODING 665
SWIDTH 500 0
DWIDTH 9 0
BBX 7 9 1 1
BITMAP
FC
C6
C6
FC
FC
C6
C2
C6
FC
ENDCHAR
STARTCHAR 029A
ENCODING 666
SWIDTH 500 0
DWIDTH 9 0
BBX 8 10 1 0
BITMAP
3C
E6
C3
C3
43
33
C3
C3
C6
7C
ENDCHAR
STARTCHAR 029B
ENCODING 667
SWIDTH 611 0
DWIDTH 11 0
BBX 11 10 1 1
BITMAP
1EE0
6380
4180
C000
C000
C780
C180
C180
6380
3E80
ENDCHAR
STARTCHAR 029C
ENCODING 668
SWIDTH 555 0
DWIDTH 10 0
BBX 8 10 1 0
BITMAP
C3
C3
C3
C3
C3
FF
C3
C3
C3
C3
ENDCHAR
STARTCHAR 029D
ENCODING 669
SWIDTH 444 0
DWIDTH 8 0
BBX 8 17 0 -4
BITMAP
0C
00
00
0C
0C
0C
0C
0C
0C
0C
0C
0C
0C
7C
CF
CD
78
ENDCHAR
STARTCHAR 029E
ENCODING 670
SWIDTH 500 0
DWIDTH 9 0
BBX 8 14 0 -4
BITMAP
C3
C3
63
23
33
1F
1F
1B
33
63
C3
03
03
03
ENDCHAR
STARTCHAR 029F
ENCODING 671
SWIDTH 388 0
DWIDTH 7 0
BBX 5 10 1 0
BITMAP
C0
C0
C0
C0
C0
C0
C0
C0
C0
F8
ENDCHAR
STARTCHAR 02A0
ENCODING 672
SWIDTH 611 0
DWIDTH 11 0
BBX 10 14 1 -3
BITMAP
01C0
3F00
6700
C300
C300
C300
C300
C300
C300
6700
3B00
0300
0300
0300
ENDCHAR
STARTCHAR 02A1
ENCODING 673
SWIDTH 500 0
DWIDTH 9 0
BBX 8 13 1 0
BITMAP
3C
67
C3
C3
03
1E
1C
3C
18
18
18
18
18
ENDCHAR
STARTCHAR 02A2
ENCODING 674
SWIDTH 500 0
DWIDTH 9 0
BBX 8 13 1 0
BITMAP
3C
E6
C3
C3
C0
78
38
3C
18
18
18
18
18
ENDCHAR
STARTCHAR 02A3
ENCODING 675
SWIDTH 944 0
DWIDTH 17 0
BBX 14 13 1 0
BITMAP
0300
0300
0300
3FFC
6704
C308
C310
C310
C320
C340
C380
6780
3FFC
ENDCHAR
STARTCHAR 02A4
ENCODING 676
SWIDTH 944 0
DWIDTH 17 0
BBX 16 16 1 -3
BITMAP
0300
0300
0300
3FFC
6704
C308
C318
C310
C31E
C307
C303
6703
3B03
0082
00C6
007C
ENDCHAR
STARTCHAR 02A5
ENCODING 677
SWIDTH 944 0
DWIDTH 17 0
BBX 16 14 1 -1
BITMAP
0300
0300
0300
3FFC
6704
C308
C318
C310
C320
C36E
C3DB
67DB
3FFE
0018
ENDCHAR
STARTCHAR 02A6
ENCODING 678
SWIDTH 722 0
DWIDTH 13 0
BBX 12 12 1 0
BITMAP
6000
6000
F3E0
6C30
6C00
6C00
6E00
63C0
6070
6030
6030
7FC0
ENDCHAR
STARTCHAR 02A7
ENCODING 679
SWIDTH 500 0
DWIDTH 9 0
BBX 9 17 1 -4
BITMAP
0380
6600
6600
FE00
6600
6600
6600
6600
6600
6600
6600
6600
7E00
0600
0600
0600
0C00
ENDCHAR
STARTCHAR 02A8
ENCODING 680
SWIDTH 777 0
DWIDTH 14 0
BBX 13 13 1 -1
BITMAP
6000
6000
F3C0
6660
6C30
6C00
6C00
6C00
6C70
64D8
6ED8
7BF0
00C0
ENDCHAR
STARTCHAR 02A9
ENCODING 681
SWIDTH 777 0
DWIDTH 14 0
BBX 13 17 1 -4
BITMAP
3000
6000
6000
FEF0
6738
6618
6618
6618
6618
6618
6618
6618
6618
0018
0018
0018
0030
ENDCHAR
STARTCHAR 02AA
ENCODING 682
SWIDTH 666 0
DWIDTH 12 0
BBX 11 13 1 0
BITMAP
C000
C000
C000
C7C0
DC60
D800
D800
DC00
C780
C0E0
C060
F060
DFC0
ENDCHAR
STARTCHAR 02AB
ENCODING 683
SWIDTH 555 0
DWIDTH 10 0
BBX 8 13 1 0
BITMAP
C0
C0
C0
FF
C1
C2
C4
C4
C8
D0
E0
E0
FF
ENDCHAR
STARTCHAR 02AC
ENCODING 684
SWIDTH 555 0
DWIDTH 10 0
BBX 8 14 1 0
BITMAP
89
99
59
59
56
66
26
89
99
59
59
56
66
26
ENDCHAR
STARTCHAR 02AD
ENCODING 685
SWIDTH 500 0
DWIDTH 9 0
BBX 8 9 1 2
BITMAP
FF
C3
00
00
00
00
00
FF
C3
ENDCHAR
STARTCHAR 02AE
ENCODING 686
SWIDTH 555 0
DWIDTH 10 0
BBX 10 16 0 -3
BITMAP
E000
3000
3000
30C0
30C0
30C0
30C0
30C0
30C0
30C0
30C0
31C0
1EC0
00C0
00C0
00C0
ENDCHAR
STARTCHAR 02AF
ENCODING 687
SWIDTH 611 0
DWIDTH 11 0
BBX 12 17 0 -4
BITMAP
E000
3000
3000
3000
30C0
30C0
30C0
30C0
30C0
30C0
30C0
31C0
1EC0
00C0
00C0
00C0
0070
ENDCHAR
STARTCHAR 02B0
ENCODING 688
SWIDTH 333 0
DWIDTH 6 0
BBX 5 8 1 8
BITMAP
80
80
F8
88
88
88
88
88
ENDCHAR
STARTCHAR 02B1
ENCODING 689
SWIDTH 333 0
DWIDTH 6 0
BBX 5 8 1 8
BITMAP
80
80
F8
88
88
88
88
88
ENDCHAR
STARTCHAR 02B2
ENCODING 690
SWIDTH 166 0
DWIDTH 3 0
BBX 3 10 0 6
BITMAP
60
60
60
60
60
60
60
60
60
C0
ENDCHAR
STARTCHAR 02B3
ENCODING 691
SWIDTH 222 0
DWIDTH 4 0
BBX 2 7 1 7
BITMAP
80
C0
80
80
80
80
80
ENDCHAR
STARTCHAR 02B4
ENCODING 692
SWIDTH 222 0
DWIDTH 4 0
BBX 2 7 1 6
BITMAP
40
40
40
40
40
C0
40
ENDCHAR
STARTCHAR 02B5
ENCODING 693
SWIDTH 277 0
DWIDTH 5 0
BBX 4 9 0 4
BITMAP
20
20
20
20
20
E0
20
20
30
ENDCHAR
STARTCHAR 02B6
ENCODING 694
SWIDTH 333 0
DWIDTH 6 0
BBX 6 7 0 7
BITMAP
CC
C8
D0
F8
CC
C8
30
ENDCHAR
STARTCHAR 02B7
ENCODING 695
SWIDTH 500 0
DWIDTH 9 0
BBX 8 7 0 7
BITMAP
89
99
59
59
56
66
26
ENDCHAR
STARTCHAR 02B8
ENCODING 696
SWIDTH 333 0
DWIDTH 6 0
BBX 6 10 0 4
BITMAP
84
88
48
48
50
30
20
20
20
40
ENDCHAR
STARTCHAR 02B9
ENCODING 697
SWIDTH 277 0
DWIDTH 5 0
BBX 3 5 1 8
BITMAP
60
60
40
C0
80
ENDCHAR
STARTCHAR 02BA
ENCODING 698
SWIDTH 444 0
DWIDTH 8 0
BBX 7 5 1 8
BITMAP
66
66
44
CC
88
ENDCHAR
STARTCHAR 02BB
ENCODING 699
SWIDTH 222 0
DWIDTH 4 0
BBX 2 5 2 9
BITMAP
40
80
80
80
C0
ENDCHAR
STARTCHAR 02BC
ENCODING 700
SWIDTH 277 0
DWIDTH 5 0
BBX 2 5 1 8
BITMAP
C0
40
40
40
80
ENDCHAR
STARTCHAR 02BD
ENCODING 701
SWIDTH 222 0
DWIDTH 4 0
BBX 2 5 2 8
BITMAP
C0
80
80
80
40
ENDCHAR
STARTCHAR 02BE
ENCODING 702
SWIDTH 277 0
DWIDTH 5 0
BBX 2 4 2 10
BITMAP
80
40
40
80
ENDCHAR
STARTCHAR 02BF
ENCODING 703
SWIDTH 277 0
DWIDTH 5 0
BBX 2 4 1 10
BITMAP
40
80
80
40
ENDCHAR
STARTCHAR 02C0
ENCODING 704
SWIDTH 333 0
DWIDTH 6 0
BBX 6 7 0 7
BITMAP
78
84
04
0C
30
20
20
ENDCHAR
STARTCHAR 02C1
ENCODING 705
SWIDTH 333 0
DWIDTH 6 0
BBX 6 7 0 7
BITMAP
78
84
80
C0
30
10
10
ENDCHAR
STARTCHAR 02C2
ENCODING 706
SWIDTH 333 0
DWIDTH 6 0
BBX 5 4 1 10
BITMAP
18
E0
C0
38
ENDCHAR
STARTCHAR 02C3
ENCODING 707
SWIDTH 333 0
DWIDTH 6 0
BBX 5 4 0 9
BITMAP
C0
38
38
C0
ENDCHAR
STARTCHAR 02C4
ENCODING 708
SWIDTH 333 0
DWIDTH 6 0
BBX 4 3 1 10
BITMAP
60
A0
90
ENDCHAR
STARTCHAR 02C5
ENCODING 709
SWIDTH 333 0
DWIDTH 6 0
BBX 4 3 1 11
BITMAP
90
A0
60
ENDCHAR
STARTCHAR 02C6
ENCODING 710
SWIDTH 333 0
DWIDTH 6 0
BBX 5 3 0 10
BITMAP
70
50
88
ENDCHAR
STARTCHAR 02C7
ENCODING 711
SWIDTH 333 0
DWIDTH 6 0
BBX 5 3 0 10
BITMAP
88
50
70
ENDCHAR
STARTCHAR 02C8
ENCODING 712
SWIDTH 277 0
DWIDTH 5 0
BBX 2 4 1 11
BITMAP
C0
C0
C0
C0
ENDCHAR
STARTCHAR 02C9
ENCODING 713
SWIDTH 333 0
DWIDTH 6 0
BBX 5 1 0 12
BITMAP
F8
ENDCHAR
STARTCHAR 02CA
ENCODING 714
SWIDTH 333 0
DWIDTH 6 0
BBX 4 3 2 11
BITMAP
30
60
C0
ENDCHAR
STARTCHAR 02CB
ENCODING 715
SWIDTH 333 0
DWIDTH 6 0
BBX 4 3 0 10
BITMAP
C0
60
30
ENDCHAR
STARTCHAR 02CC
ENCODING 716
SWIDTH 222 0
DWIDTH 4 0
BBX 2 4 2 -5
BITMAP
C0
C0
C0
C0
ENDCHAR
STARTCHAR 02CD
ENCODING 717
SWIDTH 333 0
DWIDTH 6 0
BBX 5 1 0 -2
BITMAP
F8
ENDCHAR
STARTCHAR 02CE
ENCODING 718
SWIDTH 333 0
DWIDTH 6 0
BBX 4 3 1 -5
BITMAP
C0
60
30
ENDCHAR
STARTCHAR 02CF
ENCODING 719
SWIDTH 333 0
DWIDTH 6 0
BBX 4 3 1 -3
BITMAP
30
60
C0
ENDCHAR
STARTCHAR 02D0
ENCODING 720
SWIDTH 333 0
DWIDTH 6 0
BBX 2 10 2 0
BITMAP
C0
00
00
00
00
00
00
00
00
C0
ENDCHAR
STARTCHAR 02D1
ENCODING 721
SWIDTH 333 0
DWIDTH 6 0
BBX 2 1 2 8
BITMAP
C0
ENDCHAR
STARTCHAR 02D2
ENCODING 722
SWIDTH 277 0
DWIDTH 5 0
BBX 2 4 2 0
BITMAP
80
40
40
80
ENDCHAR
STARTCHAR 02D3
ENCODING 723
SWIDTH 277 0
DWIDTH 5 0
BBX 2 4 1 0
BITMAP
40
80
80
40
ENDCHAR
STARTCHAR 02D4
ENCODING 724
SWIDTH 333 0
DWIDTH 6 0
BBX 4 4 1 3
BITMAP
60
60
60
F0
ENDCHAR
STARTCHAR 02D5
ENCODING 725
SWIDTH 333 0
DWIDTH 6 0
BBX 4 4 1 3
BITMAP
F0
60
60
60
ENDCHAR
STARTCHAR 02D6
ENCODING 726
SWIDTH 333 0
DWIDTH 6 0
BBX 4 5 1 2
BITMAP
60
60
F0
60
60
ENDCHAR
STARTCHAR 02D7
ENCODING 727
SWIDTH 333 0
DWIDTH 6 0
BBX 5 1 0 4
BITMAP
F8
ENDCHAR
STARTCHAR 02D8
ENCODING 728
SWIDTH 333 0
DWIDTH 6 0
BBX 6 2 0 11
BITMAP
84
78
ENDCHAR
STARTCHAR 02D9
ENCODING 729
SWIDTH 333 0
DWIDTH 6 0
BBX 2 1 2 11
BITMAP
C0
ENDCHAR
STARTCHAR 02DA
ENCODING 730
SWIDTH 333 0
DWIDTH 6 0
BBX 5 4 1 10
BITMAP
70
D8
D8
70
ENDCHAR
STARTCHAR 02DB
ENCODING 731
SWIDTH 333 0
DWIDTH 6 0
BBX 4 4 1 -4
BITMAP
60
C0
C0
70
ENDCHAR
STARTCHAR 02DC
ENCODING 732
SWIDTH 333 0
DWIDTH 6 0
BBX 5 2 0 11
BITMAP
C8
B8
ENDCHAR
STARTCHAR 02DD
ENCODING 733
SWIDTH 333 0
DWIDTH 6 0
BBX 6 3 0 10
BITMAP
6C
D8
90
ENDCHAR
STARTCHAR 02DE
ENCODING 734
SWIDTH 333 0
DWIDTH 6 0
BBX 6 6 0 4
BITMAP
60
E0
A0
30
14
1C
ENDCHAR
STARTCHAR 02DF
ENCODING 735
SWIDTH 333 0
DWIDTH 6 0
BBX 5 4 0 10
BITMAP
88
70
70
08
ENDCHAR
STARTCHAR 02E0
ENCODING 736
SWIDTH 333 0
DWIDTH 6 0
BBX 5 10 0 4
BITMAP
C8
48
48
30
30
20
30
30
78
20
ENDCHAR
STARTCHAR 02E1
ENCODING 737
SWIDTH 166 0
DWIDTH 3 0
BBX 1 8 1 8
BITMAP
80
80
80
80
80
80
80
80
ENDCHAR
STARTCHAR 02E2
ENCODING 738
SWIDTH 333 0
DWIDTH 6 0
BBX 5 6 1 8
BITMAP
F8
80
80
70
88
F0
ENDCHAR
STARTCHAR 02E3
ENCODING 739
SWIDTH 333 0
DWIDTH 6 0
BBX 5 7 0 7
BITMAP
88
48
30
20
30
58
C8
ENDCHAR
STARTCHAR 02E4
ENCODING 740
SWIDTH 333 0
DWIDTH 6 0
BBX 5 8 1 8
BITMAP
F0
98
80
E0
20
20
20
20
ENDCHAR
STARTCHAR 02E5
ENCODING 741
SWIDTH 500 0
DWIDTH 9 0
BBX 7 14 2 0
BITMAP
FE
06
06
06
06
06
06
06
06
06
06
06
06
06
ENDCHAR
STARTCHAR 02E6
ENCODING 742
SWIDTH 500 0
DWIDTH 9 0
BBX 7 14 2 0
BITMAP
06
06
06
FE
06
06
06
06
06
06
06
06
06
06
ENDCHAR
STARTCHAR 02E7
ENCODING 743
SWIDTH 500 0
DWIDTH 9 0
BBX 7 14 2 0
BITMAP
06
06
06
06
06
06
FE
06
06
06
06
06
06
06
ENDCHAR
STARTCHAR 02E8
ENCODING 744
SWIDTH 500 0
DWIDTH 9 0
BBX 7 14 2 0
BITMAP
06
06
06
06
06
06
06
06
06
06
FE
06
06
06
ENDCHAR
STARTCHAR 02E9
ENCODING 745
SWIDTH 500 0
DWIDTH 9 0
BBX 7 14 2 0
BITMAP
06
06
06
06
06
06
06
06
06
06
06
06
06
FE
ENDCHAR
STARTCHAR 02EA
ENCODING 746
SWIDTH 500 0
DWIDTH 9 0
BBX 7 10 1 0
BITMAP
C0
C0
C0
C0
C0
C0
C0
C0
C0
FE
ENDCHAR
STARTCHAR 02EB
ENCODING 747
SWIDTH 500 0
DWIDTH 9 0
BBX 7 11 1 0
BITMAP
C0
C0
C0
C0
C0
FE
C0
C0
C0
C0
C0
ENDCHAR
STARTCHAR 02EC
ENCODING 748
SWIDTH 333 0
DWIDTH 6 0
BBX 5 3 0 -4
BITMAP
88
50
70
ENDCHAR
STARTCHAR 02ED
ENCODING 749
SWIDTH 333 0
DWIDTH 6 0
BBX 5 4 0 11
BITMAP
F8
00
00
F8
ENDCHAR
STARTCHAR 02EE
ENCODING 750
SWIDTH 388 0
DWIDTH 7 0
BBX 5 4 1 9
BITMAP
D8
48
48
90
ENDCHAR
STARTCHAR 02EF
ENCODING 751
SWIDTH 333 0
DWIDTH 6 0
BBX 4 3 1 -3
BITMAP
90
A0
60
ENDCHAR
STARTCHAR 02F0
ENCODING 752
SWIDTH 333 0
DWIDTH 6 0
BBX 4 3 1 -4
BITMAP
60
A0
90
ENDCHAR
STARTCHAR 02F1
ENCODING 753
SWIDTH 333 0
DWIDTH 6 0
BBX 5 4 1 -4
BITMAP
18
E0
C0
38
ENDCHAR
STARTCHAR 02F2
ENCODING 754
SWIDTH 333 0
DWIDTH 6 0
BBX 5 4 0 -5
BITMAP
C0
38
38
C0
ENDCHAR
STARTCHAR 02F3
ENCODING 755
SWIDTH 333 0
DWIDTH 6 0
BBX 5 4 1 -5
BITMAP
70
D8
D8
70
ENDCHAR
STARTCHAR 02F4
ENCODING 756
SWIDTH 277 0
DWIDTH 5 0
BBX 4 3 0 6
BITMAP
C0
60
30
ENDCHAR
STARTCHAR 02F5
ENCODING 757
SWIDTH 333 0
DWIDTH 6 0
BBX 5 3 0 6
BITMAP
D8
48
68
ENDCHAR
STARTCHAR 02F6
ENCODING 758
SWIDTH 333 0
DWIDTH 6 0
BBX 6 3 0 6
BITMAP
6C
D8
90
ENDCHAR
STARTCHAR 02F7
ENCODING 759
SWIDTH 333 0
DWIDTH 6 0
BBX 5 2 0 -3
BITMAP
C8
B8
ENDCHAR
STARTCHAR 02F8
ENCODING 760
SWIDTH 277 0
DWIDTH 5 0
BBX 2 10 1 1
BITMAP
C0
00
00
00
00
00
00
00
00
C0
ENDCHAR
STARTCHAR 02F9
ENCODING 761
SWIDTH 222 0
DWIDTH 4 0
BBX 3 4 0 9
BITMAP
E0
C0
C0
C0
ENDCHAR
STARTCHAR 02FA
ENCODING 762
SWIDTH 222 0
DWIDTH 4 0
BBX 3 4 1 9
BITMAP
E0
60
60
60
ENDCHAR
STARTCHAR 02FB
ENCODING 763
SWIDTH 222 0
DWIDTH 4 0
BBX 3 4 0 -1
BITMAP
C0
C0
C0
E0
ENDCHAR
STARTCHAR 02FC
ENCODING 764
SWIDTH 222 0
DWIDTH 4 0
BBX 3 4 1 -1
BITMAP
60
60
60
E0
ENDCHAR
STARTCHAR 02FD
ENCODING 765
SWIDTH 333 0
DWIDTH 6 0
BBX 6 3 0 -4
BITMAP
CC
CC
FC
ENDCHAR
STARTCHAR 02FE
ENCODING 766
SWIDTH 333 0
DWIDTH 6 0
BBX 5 3 0 -4
BITMAP
C0
C0
F8
ENDCHAR
STARTCHAR 02FF
ENCODING 767
SWIDTH 333 0
DWIDTH 6 0
BBX 6 3 0 -4
BITMAP
40
FC
40
ENDCHAR
STARTCHAR 0300
ENCODING 768
SWIDTH 0 0
DWIDTH 0 0
BBX 4 3 -6 10
BITMAP
C0
60
30
ENDCHAR
STARTCHAR 0301
ENCODING 769
SWIDTH 0 0
DWIDTH 0 0
BBX 4 3 -4 10
BITMAP
30
60
C0
ENDCHAR
STARTCHAR 0302
ENCODING 770
SWIDTH 0 0
DWIDTH 0 0
BBX 5 3 -6 10
BITMAP
70
50
88
ENDCHAR
STARTCHAR 0303
ENCODING 771
SWIDTH 0 0
DWIDTH 0 0
BBX 5 2 -6 11
BITMAP
C8
B8
ENDCHAR
STARTCHAR 0304
ENCODING 772
SWIDTH 0 0
DWIDTH 0 0
BBX 5 1 -6 12
BITMAP
F8
ENDCHAR
STARTCHAR 0305
ENCODING 773
SWIDTH 0 0
DWIDTH 0 0
BBX 10 1 -8 12
BITMAP
FFC0
ENDCHAR
STARTCHAR 0306
ENCODING 774
SWIDTH 0 0
DWIDTH 0 0
BBX 6 2 -6 11
BITMAP
84
78
ENDCHAR
STARTCHAR 0307
ENCODING 775
SWIDTH 0 0
DWIDTH 0 0
BBX 2 1 -4 11
BITMAP
C0
ENDCHAR
STARTCHAR 0308
ENCODING 776
SWIDTH 0 0
DWIDTH 0 0
BBX 6 1 -6 11
BITMAP
CC
ENDCHAR
STARTCHAR 0309
ENCODING 777
SWIDTH 0 0
DWIDTH 0 0
BBX 3 4 -5 10
BITMAP
C0
20
20
C0
ENDCHAR
STARTCHAR 030A
ENCODING 778
SWIDTH 0 0
DWIDTH 0 0
BBX 5 4 -5 10
BITMAP
70
D8
D8
70
ENDCHAR
STARTCHAR 030B
ENCODING 779
SWIDTH 0 0
DWIDTH 0 0
BBX 5 3 -5 11
BITMAP
D8
90
A0
ENDCHAR
STARTCHAR 030C
ENCODING 780
SWIDTH 0 0
DWIDTH 0 0
BBX 5 3 -6 10
BITMAP
88
50
70
ENDCHAR
STARTCHAR 030D
ENCODING 781
SWIDTH 0 0
DWIDTH 0 0
BBX 2 4 -4 11
BITMAP
C0
C0
C0
C0
ENDCHAR
STARTCHAR 030E
ENCODING 782
SWIDTH 0 0
DWIDTH 0 0
BBX 4 4 -5 11
BITMAP
F0
F0
F0
F0
ENDCHAR
STARTCHAR 030F
ENCODING 783
SWIDTH 0 0
DWIDTH 0 0
BBX 5 3 -7 10
BITMAP
D8
48
68
ENDCHAR
STARTCHAR 0310
ENCODING 784
SWIDTH 0 0
DWIDTH 0 0
BBX 6 3 -6 11
BITMAP
30
84
78
ENDCHAR
STARTCHAR 0311
ENCODING 785
SWIDTH 0 0
DWIDTH 0 0
BBX 6 2 -6 10
BITMAP
78
84
ENDCHAR
STARTCHAR 0312
ENCODING 786
SWIDTH 0 0
DWIDTH 0 0
BBX 2 3 -4 10
BITMAP
40
80
C0
ENDCHAR
STARTCHAR 0313
ENCODING 787
SWIDTH 0 0
DWIDTH 0 0
BBX 2 3 -4 10
BITMAP
C0
40
C0
ENDCHAR
STARTCHAR 0314
ENCODING 788
SWIDTH 0 0
DWIDTH 0 0
BBX 2 3 -4 10
BITMAP
C0
80
C0
ENDCHAR
STARTCHAR 0315
ENCODING 789
SWIDTH 0 0
DWIDTH 0 0
BBX 2 3 0 11
BITMAP
C0
40
80
ENDCHAR
STARTCHAR 0316
ENCODING 790
SWIDTH 0 0
DWIDTH 0 0
BBX 4 3 -6 -5
BITMAP
C0
60
30
ENDCHAR
STARTCHAR 0317
ENCODING 791
SWIDTH 0 0
DWIDTH 0 0
BBX 3 3 -4 -5
BITMAP
60
60
C0
ENDCHAR
STARTCHAR 0318
ENCODING 792
SWIDTH 0 0
DWIDTH 0 0
BBX 3 3 -4 -5
BITMAP
60
E0
60
ENDCHAR
STARTCHAR 0319
ENCODING 793
SWIDTH 0 0
DWIDTH 0 0
BBX 3 3 -5 -4
BITMAP
C0
E0
C0
ENDCHAR
STARTCHAR 031A
ENCODING 794
SWIDTH 0 0
DWIDTH 0 0
BBX 4 4 -2 9
BITMAP
F0
30
30
30
ENDCHAR
STARTCHAR 031B
ENCODING 795
SWIDTH 0 0
DWIDTH 0 0
BBX 3 3 -1 10
BITMAP
60
60
E0
ENDCHAR
STARTCHAR 031C
ENCODING 796
SWIDTH 0 0
DWIDTH 0 0
BBX 2 4 -5 -4
BITMAP
40
80
80
40
ENDCHAR
STARTCHAR 031D
ENCODING 797
SWIDTH 0 0
DWIDTH 0 0
BBX 4 2 -5 -4
BITMAP
60
F0
ENDCHAR
STARTCHAR 031E
ENCODING 798
SWIDTH 0 0
DWIDTH 0 0
BBX 4 2 -5 -3
BITMAP
F0
60
ENDCHAR
STARTCHAR 031F
ENCODING 799
SWIDTH 0 0
DWIDTH 0 0
BBX 4 3 -5 -5
BITMAP
60
F0
60
ENDCHAR
STARTCHAR 0320
ENCODING 800
SWIDTH 0 0
DWIDTH 0 0
BBX 5 1 -8 -3
BITMAP
F8
ENDCHAR
STARTCHAR 0321
ENCODING 801
SWIDTH 0 0
DWIDTH 0 0
BBX 4 4 -4 -4
BITMAP
30
30
30
E0
ENDCHAR
STARTCHAR 0322
ENCODING 802
SWIDTH 0 0
DWIDTH 0 0
BBX 4 4 -2 -4
BITMAP
C0
C0
C0
70
ENDCHAR
STARTCHAR 0323
ENCODING 803
SWIDTH 0 0
DWIDTH 0 0
BBX 2 1 -5 -2
BITMAP
C0
ENDCHAR
STARTCHAR 0324
ENCODING 804
SWIDTH 0 0
DWIDTH 0 0
BBX 6 1 -7 -2
BITMAP
CC
ENDCHAR
STARTCHAR 0325
ENCODING 805
SWIDTH 0 0
DWIDTH 0 0
BBX 5 4 -6 -4
BITMAP
F0
D8
D8
20
ENDCHAR
STARTCHAR 0326
ENCODING 806
SWIDTH 0 0
DWIDTH 0 0
BBX 2 3 -5 -5
BITMAP
C0
40
C0
ENDCHAR
STARTCHAR 0327
ENCODING 807
SWIDTH 0 0
DWIDTH 0 0
BBX 5 3 -6 -3
BITMAP
70
18
F0
ENDCHAR
STARTCHAR 0328
ENCODING 808
SWIDTH 0 0
DWIDTH 0 0
BBX 4 4 -5 -4
BITMAP
60
C0
C0
70
ENDCHAR
STARTCHAR 0329
ENCODING 809
SWIDTH 0 0
DWIDTH 0 0
BBX 2 4 -5 -4
BITMAP
C0
C0
C0
C0
ENDCHAR
STARTCHAR 032A
ENCODING 810
SWIDTH 0 0
DWIDTH 0 0
BBX 5 2 -5 -4
BITMAP
F8
D8
ENDCHAR
STARTCHAR 032B
ENCODING 811
SWIDTH 0 0
DWIDTH 0 0
BBX 6 2 -6 -2
BITMAP
94
6C
ENDCHAR
STARTCHAR 032C
ENCODING 812
SWIDTH 0 0
DWIDTH 0 0
BBX 5 3 -6 -5
BITMAP
88
50
70
ENDCHAR
STARTCHAR 032D
ENCODING 813
SWIDTH 0 0
DWIDTH 0 0
BBX 4 3 -5 -4
BITMAP
60
70
D0
ENDCHAR
STARTCHAR 032E
ENCODING 814
SWIDTH 0 0
DWIDTH 0 0
BBX 6 2 -6 -4
BITMAP
84
FC
ENDCHAR
STARTCHAR 032F
ENCODING 815
SWIDTH 0 0
DWIDTH 0 0
BBX 6 2 -6 -4
BITMAP
30
CC
ENDCHAR
STARTCHAR 0330
ENCODING 816
SWIDTH 0 0
DWIDTH 0 0
BBX 5 2 -7 -4
BITMAP
48
B8
ENDCHAR
STARTCHAR 0331
ENCODING 817
SWIDTH 0 0
DWIDTH 0 0
BBX 5 1 -7 -3
BITMAP
F8
ENDCHAR
STARTCHAR 0332
ENCODING 818
SWIDTH 0 0
DWIDTH 0 0
BBX 10 1 -10 -3
BITMAP
FFC0
ENDCHAR
STARTCHAR 0333
ENCODING 819
SWIDTH 0 0
DWIDTH 0 0
BBX 10 3 -10 -5
BITMAP
FFC0
0000
FFC0
ENDCHAR
STARTCHAR 0334
ENCODING 820
SWIDTH 0 0
DWIDTH 0 0
BBX 5 2 -8 4
BITMAP
C8
B8
ENDCHAR
STARTCHAR 0335
ENCODING 821
SWIDTH 0 0
DWIDTH 0 0
BBX 5 1 -8 4
BITMAP
F8
ENDCHAR
STARTCHAR 0336
ENCODING 822
SWIDTH 0 0
DWIDTH 0 0
BBX 10 1 -12 4
BITMAP
FFC0
ENDCHAR
STARTCHAR 0337
ENCODING 823
SWIDTH 0 0
DWIDTH 0 0
BBX 11 11 -12 1
BITMAP
0020
0040
0080
0100
0200
0400
0800
1000
2000
4000
8000
ENDCHAR
STARTCHAR 0338
ENCODING 824
SWIDTH 0 0
DWIDTH 0 0
BBX 11 14 -12 -1
BITMAP
0020
0040
00C0
0180
0100
0200
0400
0C00
0800
1000
2000
6000
4000
8000
ENDCHAR
STARTCHAR 0339
ENCODING 825
SWIDTH 0 0
DWIDTH 0 0
BBX 2 4 -4 -5
BITMAP
80
40
40
80
ENDCHAR
STARTCHAR 033A
ENCODING 826
SWIDTH 0 0
DWIDTH 0 0
BBX 5 2 -7 -2
BITMAP
D8
F8
ENDCHAR
STARTCHAR 033B
ENCODING 827
SWIDTH 0 0
DWIDTH 0 0
BBX 6 4 -7 -5
BITMAP
FC
CC
CC
FC
ENDCHAR
STARTCHAR 033C
ENCODING 828
SWIDTH 0 0
DWIDTH 0 0
BBX 6 2 -7 -4
BITMAP
D8
A4
ENDCHAR
STARTCHAR 033D
ENCODING 829
SWIDTH 0 0
DWIDTH 0 0
BBX 4 3 -5 10
BITMAP
90
40
90
ENDCHAR
STARTCHAR 033E
ENCODING 830
SWIDTH 0 0
DWIDTH 0 0
BBX 3 5 -4 11
BITMAP
E0
C0
60
60
C0
ENDCHAR
STARTCHAR 033F
ENCODING 831
SWIDTH 0 0
DWIDTH 0 0
BBX 10 3 -10 11
BITMAP
FFC0
0000
FFC0
ENDCHAR
STARTCHAR 0340
ENCODING 832
SWIDTH 0 0
DWIDTH 0 0
BBX 4 3 -6 11
BITMAP
C0
60
30
ENDCHAR
STARTCHAR 0341
ENCODING 833
SWIDTH 0 0
DWIDTH 0 0
BBX 4 3 -4 10
BITMAP
30
60
C0
ENDCHAR
STARTCHAR 0342
ENCODING 834
SWIDTH 0 0
DWIDTH 0 0
BBX 5 2 -6 11
BITMAP
C8
B8
ENDCHAR
STARTCHAR 0343
ENCODING 835
SWIDTH 0 0
DWIDTH 0 0
BBX 2 3 -4 10
BITMAP
C0
40
C0
ENDCHAR
STARTCHAR 0344
ENCODING 836
SWIDTH 0 0
DWIDTH 0 0
BBX 6 3 -6 11
BITMAP
10
10
EC
ENDCHAR
STARTCHAR 0345
ENCODING 837
SWIDTH 0 0
DWIDTH 0 0
BBX 4 2 -6 -4
BITMAP
D0
F0
ENDCHAR
STARTCHAR 0346
ENCODING 838
SWIDTH 0 0
DWIDTH 0 0
BBX 5 2 -5 10
BITMAP
F8
D8
ENDCHAR
STARTCHAR 0347
ENCODING 839
SWIDTH 0 0
DWIDTH 0 0
BBX 5 3 -7 -4
BITMAP
F8
00
F8
ENDCHAR
STARTCHAR 0348
ENCODING 840
SWIDTH 0 0
DWIDTH 0 0
BBX 4 4 -6 -4
BITMAP
F0
F0
F0
F0
ENDCHAR
STARTCHAR 0349
ENCODING 841
SWIDTH 0 0
DWIDTH 0 0
BBX 3 2 -4 -4
BITMAP
E0
60
ENDCHAR
STARTCHAR 034A
ENCODING 842
SWIDTH 0 0
DWIDTH 0 0
BBX 5 3 -7 11
BITMAP
10
F8
40
ENDCHAR
STARTCHAR 034B
ENCODING 843
SWIDTH 0 0
DWIDTH 0 0
BBX 4 5 -7 11
BITMAP
30
D0
B0
00
60
ENDCHAR
STARTCHAR 034C
ENCODING 844
SWIDTH 0 0
DWIDTH 0 0
BBX 5 5 -7 10
BITMAP
48
B8
00
68
98
ENDCHAR
STARTCHAR 034D
ENCODING 845
SWIDTH 0 0
DWIDTH 0 0
BBX 9 3 -10 -3
BITMAP
4100
FF80
4100
ENDCHAR
STARTCHAR 034E
ENCODING 846
SWIDTH 0 0
DWIDTH 0 0
BBX 5 4 -7 -5
BITMAP
20
F8
20
20
ENDCHAR
STARTCHAR 034F
ENCODING 847
SWIDTH 0 0
DWIDTH 0 0
BBX 0 0 0 0
BITMAP
ENDCHAR
STARTCHAR 0350
ENCODING 848
SWIDTH 0 0
DWIDTH 0 0
BBX 5 4 -6 9
BITMAP
C0
38
38
C0
ENDCHAR
STARTCHAR 0351
ENCODING 849
SWIDTH 0 0
DWIDTH 0 0
BBX 2 4 -5 11
BITMAP
40
80
80
40
ENDCHAR
STARTCHAR 0352
ENCODING 850
SWIDTH 0 0
DWIDTH 0 0
BBX 6 4 -7 11
BITMAP
7C
C4
00
30
ENDCHAR
STARTCHAR 0353
ENCODING 851
SWIDTH 0 0
DWIDTH 0 0
BBX 4 3 -7 -4
BITMAP
90
60
D0
ENDCHAR
STARTCHAR 0354
ENCODING 852
SWIDTH 0 0
DWIDTH 0 0
BBX 5 4 -7 -4
BITMAP
18
E0
C0
38
ENDCHAR
STARTCHAR 0355
ENCODING 853
SWIDTH 0 0
DWIDTH 0 0
BBX 5 4 -7 -5
BITMAP
C0
38
38
C0
ENDCHAR
STARTCHAR 0356
ENCODING 854
SWIDTH 0 0
DWIDTH 0 0
BBX 8 3 -9 -4
BITMAP
C2
35
C0
ENDCHAR
STARTCHAR 0357
ENCODING 855
SWIDTH 0 0
DWIDTH 0 0
BBX 2 4 -4 10
BITMAP
80
40
40
80
ENDCHAR
STARTCHAR 0358
ENCODING 856
SWIDTH 0 0
DWIDTH 0 0
BBX 2 1 -6 12
BITMAP
C0
ENDCHAR
STARTCHAR 0359
ENCODING 857
SWIDTH 0 0
DWIDTH 0 0
BBX 5 4 -8 -5
BITMAP
20
F8
20
50
ENDCHAR
STARTCHAR 035A
ENCODING 858
SWIDTH 0 0
DWIDTH 0 0
BBX 8 4 -9 -4
BITMAP
66
99
99
66
ENDCHAR
STARTCHAR 035B
ENCODING 859
SWIDTH 0 0
DWIDTH 0 0
BBX 4 3 -6 11
BITMAP
40
F0
20
ENDCHAR
STARTCHAR 035C
ENCODING 860
SWIDTH 0 0
DWIDTH 0 0
BBX 12 2 -6 -4
BITMAP
C030
3FC0
ENDCHAR
STARTCHAR 035D
ENCODING 861
SWIDTH 0 0
DWIDTH 0 0
BBX 12 2 -6 11
BITMAP
C030
3FC0
ENDCHAR
STARTCHAR 035E
ENCODING 862
SWIDTH 0 0
DWIDTH 0 0
BBX 12 1 -6 11
BITMAP
FFF0
ENDCHAR
STARTCHAR 035F
ENCODING 863
SWIDTH 0 0
DWIDTH 0 0
BBX 12 1 -6 -3
BITMAP
FFF0
ENDCHAR
STARTCHAR 0360
ENCODING 864
SWIDTH 0 0
DWIDTH 0 0
BBX 12 3 -6 10
BITMAP
7800
8F10
03E0
ENDCHAR
STARTCHAR 0361
ENCODING 865
SWIDTH 0 0
DWIDTH 0 0
BBX 12 2 -6 13
BITMAP
3FC0
C030
ENDCHAR
STARTCHAR 0362
ENCODING 866
SWIDTH 0 0
DWIDTH 0 0
BBX 10 3 -5 -4
BITMAP
0080
FFC0
0080
ENDCHAR
STARTCHAR 0363
ENCODING 867
SWIDTH 0 0
DWIDTH 0 0
BBX 3 4 -6 10
BITMAP
60
20
E0
A0
ENDCHAR
STARTCHAR 0364
ENCODING 868
SWIDTH 0 0
DWIDTH 0 0
BBX 3 4 -7 10
BITMAP
60
A0
C0
60
ENDCHAR
STARTCHAR 0365
ENCODING 869
SWIDTH 0 0
DWIDTH 0 0
BBX 1 4 -6 11
BITMAP
80
80
80
80
ENDCHAR
STARTCHAR 0366
ENCODING 870
SWIDTH 0 0
DWIDTH 0 0
BBX 3 4 -7 10
BITMAP
60
A0
A0
60
ENDCHAR
STARTCHAR 0367
ENCODING 871
SWIDTH 0 0
DWIDTH 0 0
BBX 3 4 -7 10
BITMAP
80
A0
A0
A0
ENDCHAR
STARTCHAR 0368
ENCODING 872
SWIDTH 0 0
DWIDTH 0 0
BBX 3 4 -6 10
BITMAP
60
80
80
60
ENDCHAR
STARTCHAR 0369
ENCODING 873
SWIDTH 0 0
DWIDTH 0 0
BBX 3 4 -6 11
BITMAP
60
A0
A0
60
ENDCHAR
STARTCHAR 036A
ENCODING 874
SWIDTH 0 0
DWIDTH 0 0
BBX 3 5 -6 10
BITMAP
80
E0
A0
A0
80
ENDCHAR
STARTCHAR 036B
ENCODING 875
SWIDTH 0 0
DWIDTH 0 0
BBX 5 4 -8 10
BITMAP
F8
A8
A8
80
ENDCHAR
STARTCHAR 036C
ENCODING 876
SWIDTH 0 0
DWIDTH 0 0
BBX 2 4 -6 10
BITMAP
C0
80
80
80
ENDCHAR
STARTCHAR 036D
ENCODING 877
SWIDTH 0 0
DWIDTH 0 0
BBX 2 5 -6 10
BITMAP
40
C0
40
40
40
ENDCHAR
STARTCHAR 036E
ENCODING 878
SWIDTH 0 0
DWIDTH 0 0
BBX 3 4 -7 10
BITMAP
80
A0
A0
40
ENDCHAR
STARTCHAR 036F
ENCODING 879
SWIDTH 0 0
DWIDTH 0 0
BBX 3 4 -6 10
BITMAP
A0
40
40
A0
ENDCHAR
STARTCHAR 0374
ENCODING 884
SWIDTH 277 0
DWIDTH 5 0
BBX 3 5 1 8
BITMAP
60
60
40
C0
80
ENDCHAR
STARTCHAR 0375
ENCODING 885
SWIDTH 222 0
DWIDTH 4 0
BBX 2 3 0 -3
BITMAP
40
40
80
ENDCHAR
STARTCHAR 037A
ENCODING 890
SWIDTH 333 0
DWIDTH 6 0
BBX 4 2 2 -4
BITMAP
D0
F0
ENDCHAR
STARTCHAR 037B
ENCODING 891
SWIDTH 444 0
DWIDTH 8 0
BBX 7 10 1 0
BITMAP
F8
0C
0C
06
06
06
06
0E
0C
F8
ENDCHAR
STARTCHAR 037C
ENCODING 892
SWIDTH 444 0
DWIDTH 8 0
BBX 7 10 1 -1
BITMAP
3E
60
E0
C0
C0
DC
C0
E0
60
3E
ENDCHAR
STARTCHAR 037D
ENCODING 893
SWIDTH 444 0
DWIDTH 8 0
BBX 7 10 1 0
BITMAP
F8
0C
0C
06
06
E6
06
0E
0C
F8
ENDCHAR
STARTCHAR 037E
ENCODING 894
SWIDTH 277 0
DWIDTH 5 0
BBX 3 12 1 -3
BITMAP
C0
00
00
00
00
00
00
00
60
20
20
40
ENDCHAR
STARTCHAR 0384
ENCODING 900
SWIDTH 333 0
DWIDTH 6 0
BBX 4 3 2 10
BITMAP
30
60
C0
ENDCHAR
STARTCHAR 0385
ENCODING 901
SWIDTH 333 0
DWIDTH 6 0
BBX 6 3 0 11
BITMAP
10
10
EC
ENDCHAR
STARTCHAR 0386
ENCODING 902
SWIDTH 666 0
DWIDTH 12 0
BBX 12 13 0 1
BITMAP
3600
6F00
4F00
0900
1980
1980
1080
30C0
3FC0
2040
6060
6060
C030
ENDCHAR
STARTCHAR 0387
ENCODING 903
SWIDTH 277 0
DWIDTH 5 0
BBX 2 1 2 9
BITMAP
C0
ENDCHAR
STARTCHAR 0388
ENCODING 904
SWIDTH 777 0
DWIDTH 14 0
BBX 13 13 0 0
BITMAP
3FF8
6C00
CC00
0C00
0C00
0C00
0FF0
0C00
0C00
0C00
0C00
0C00
0FF8
ENDCHAR
STARTCHAR 0389
ENCODING 905
SWIDTH 888 0
DWIDTH 16 0
BBX 15 13 0 0
BITMAP
3C06
6C06
CC06
0C06
0C06
0C06
0FFE
0C06
0C06
0C06
0C06
0C06
0C06
ENDCHAR
STARTCHAR 038A
ENCODING 906
SWIDTH 388 0
DWIDTH 7 0
BBX 6 13 0 0
BITMAP
3C
6C
CC
0C
0C
0C
0C
0C
0C
0C
0C
0C
0C
ENDCHAR
STARTCHAR 038C
ENCODING 908
SWIDTH 888 0
DWIDTH 16 0
BBX 14 13 1 0
BITMAP
67E0
DC30
9818
300C
300C
300C
600C
300C
300C
300C
1818
1C30
07E0
ENDCHAR
STARTCHAR 038E
ENCODING 910
SWIDTH 888 0
DWIDTH 16 0
BBX 14 13 1 1
BITMAP
780C
CC0C
8E18
0618
0330
0360
01E0
00C0
00C0
00C0
00C0
00C0
00C0
ENDCHAR
STARTCHAR 038F
ENCODING 911
SWIDTH 833 0
DWIDTH 15 0
BBX 14 13 0 0
BITMAP
37E0
6C30
D818
180C
300C
300C
300C
300C
300C
1818
0830
0420
3E7C
ENDCHAR
STARTCHAR 0390
ENCODING 912
SWIDTH 277 0
DWIDTH 5 0
BBX 6 15 -1 0
BITMAP
08
10
DC
00
00
30
30
30
30
30
30
30
30
30
1C
ENDCHAR
STARTCHAR 0391
ENCODING 913
SWIDTH 666 0
DWIDTH 12 0
BBX 12 13 0 0
BITMAP
0600
0F00
0F00
0900
1980
1980
1080
30C0
3FC0
2040
6060
6060
C030
ENDCHAR
STARTCHAR 0392
ENCODING 914
SWIDTH 666 0
DWIDTH 12 0
BBX 11 13 1 0
BITMAP
FF00
C180
C0C0
C0C0
C0C0
C180
FF00
C0C0
C060
C060
C060
C0C0
FF80
ENDCHAR
STARTCHAR 0393
ENCODING 915
SWIDTH 611 0
DWIDTH 11 0
BBX 8 13 1 0
BITMAP
FF
C0
C0
C0
C0
C0
C0
C0
C0
C0
C0
C0
C0
ENDCHAR
STARTCHAR 0394
ENCODING 916
SWIDTH 722 0
DWIDTH 13 0
BBX 12 13 0 0
BITMAP
0600
0F00
0F00
0900
1980
1880
10C0
30C0
3060
2060
6060
6030
FFF0
ENDCHAR
STARTCHAR 0395
ENCODING 917
SWIDTH 611 0
DWIDTH 11 0
BBX 9 13 1 0
BITMAP
FF80
C000
C000
C000
C000
C000
FF00
C000
C000
C000
C000
C000
FF80
ENDCHAR
STARTCHAR 0396
ENCODING 918
SWIDTH 611 0
DWIDTH 11 0
BBX 10 13 1 0
BITMAP
FFC0
0180
0300
0300
0600
0C00
1C00
1800
3000
6000
6000
C000
FFC0
ENDCHAR
STARTCHAR 0397
ENCODING 919
SWIDTH 722 0
DWIDTH 13 0
BBX 11 13 1 0
BITMAP
C060
C060
C060
C060
C060
C060
FFE0
C060
C060
C060
C060
C060
C060
ENDCHAR
STARTCHAR 0398
ENCODING 920
SWIDTH 777 0
DWIDTH 14 0
BBX 13 13 1 0
BITMAP
0F80
3060
6030
6030
C018
C018
DF98
C018
C018
6030
6030
3060
0F80
ENDCHAR
STARTCHAR 0399
ENCODING 921
SWIDTH 277 0
DWIDTH 5 0
BBX 2 13 2 0
BITMAP
C0
C0
C0
C0
C0
C0
C0
C0
C0
C0
C0
C0
C0
ENDCHAR
STARTCHAR 039A
ENCODING 922
SWIDTH 666 0
DWIDTH 12 0
BBX 10 13 1 0
BITMAP
C0C0
C180
C300
C600
CC00
DC00
FC00
E600
C300
C300
C180
C0C0
C0C0
ENDCHAR
STARTCHAR 039B
ENCODING 923
SWIDTH 666 0
DWIDTH 12 0
BBX 12 13 0 0
BITMAP
0600
0F00
0F00
0900
1980
1980
1080
30C0
30C0
2040
6060
6060
C030
ENDCHAR
STARTCHAR 039C
ENCODING 924
SWIDTH 833 0
DWIDTH 15 0
BBX 13 13 1 0
BITMAP
E038
E038
F078
F078
D058
D8D8
D8D8
C898
CD98
CD98
C518
C718
C718
ENDCHAR
STARTCHAR 039D
ENCODING 925
SWIDTH 722 0
DWIDTH 13 0
BBX 11 13 1 0
BITMAP
E060
E060
F060
D060
D860
CC60
C460
C660
C360
C360
C1E0
C0E0
C0E0
ENDCHAR
STARTCHAR 039E
ENCODING 926
SWIDTH 611 0
DWIDTH 11 0
BBX 10 13 1 0
BITMAP
FF80
0000
0000
0000
0000
0000
7F00
0000
0000
0000
0000
0000
FFC0
ENDCHAR
STARTCHAR 039F
ENCODING 927
SWIDTH 777 0
DWIDTH 14 0
BBX 13 13 1 0
BITMAP
0F80
3060
6030
6030
C018
C018
C018
C018
C018
6030
6030
3060
0F80
ENDCHAR
STARTCHAR 03A0
ENCODING 928
SWIDTH 722 0
DWIDTH 13 0
BBX 11 13 1 0
BITMAP
FFE0
C060
C060
C060
C060
C060
C060
C060
C060
C060
C060
C060
C060
ENDCHAR
STARTCHAR 03A1
ENCODING 929
SWIDTH 666 0
DWIDTH 12 0
BBX 10 13 1 0
BITMAP
FF00
C180
C0C0
C0C0
C0C0
C180
FF00
C000
C000
C000
C000
C000
C000
ENDCHAR
STARTCHAR 03A3
ENCODING 931
SWIDTH 611 0
DWIDTH 11 0
BBX 10 13 1 0
BITMAP
FFC0
6000
6000
3000
1800
1C00
0C00
1800
3000
3000
6000
C000
FFC0
ENDCHAR
STARTCHAR 03A4
ENCODING 932
SWIDTH 611 0
DWIDTH 11 0
BBX 8 13 2 1
BITMAP
FF
18
18
18
18
18
18
18
18
18
18
18
18
ENDCHAR
STARTCHAR 03A5
ENCODING 933
SWIDTH 666 0
DWIDTH 12 0
BBX 12 13 0 1
BITMAP
C030
6060
30C0
30C0
1980
0F00
0F00
0600
0600
0600
0600
0600
0600
ENDCHAR
STARTCHAR 03A6
ENCODING 934
SWIDTH 722 0
DWIDTH 13 0
BBX 12 13 1 0
BITMAP
0600
0600
1F80
76E0
E670
C630
C630
C630
E670
76E0
1F80
0600
0600
ENDCHAR
STARTCHAR 03A7
ENCODING 935
SWIDTH 666 0
DWIDTH 12 0
BBX 10 13 1 0
BITMAP
C0C0
6180
6180
3300
1E00
1C00
0C00
1E00
3200
3300
6180
C1C0
C0C0
ENDCHAR
STARTCHAR 03A8
ENCODING 936
SWIDTH 777 0
DWIDTH 14 0
BBX 12 13 1 0
BITMAP
C630
C630
C630
C630
C630
C630
C630
E670
3FC0
0600
0600
0600
0600
ENDCHAR
STARTCHAR 03A9
ENCODING 937
SWIDTH 777 0
DWIDTH 14 0
BBX 12 13 1 0
BITMAP
1F80
30C0
6060
6030
C030
C030
C030
C030
C030
6060
20C0
1080
F9F0
ENDCHAR
STARTCHAR 03AA
ENCODING 938
SWIDTH 277 0
DWIDTH 5 0
BBX 6 15 0 1
BITMAP
CC
00
30
30
30
30
30
30
30
30
30
30
30
30
30
ENDCHAR
STARTCHAR 03AB
ENCODING 939
SWIDTH 666 0
DWIDTH 12 0
BBX 12 15 0 1
BITMAP
1980
0000
C030
6060
30C0
30C0
1980
0F00
0F00
0600
0600
0600
0600
0600
0600
ENDCHAR
STARTCHAR 03AC
ENCODING 940
SWIDTH 555 0
DWIDTH 10 0
BBX 9 13 1 0
BITMAP
0600
0400
0800
3B00
6700
C300
C300
C300
C300
C300
C300
6700
3F80
ENDCHAR
STARTCHAR 03AD
ENCODING 941
SWIDTH 500 0
DWIDTH 9 0
BBX 8 13 1 0
BITMAP
06
0C
08
7E
C3
C0
C0
30
40
C0
C0
C3
7E
ENDCHAR
STARTCHAR 03AE
ENCODING 942
SWIDTH 555 0
DWIDTH 10 0
BBX 9 15 0 -2
BITMAP
0300
0600
0400
CF00
7180
6180
6180
6180
6180
6180
6180
6180
6180
0180
0180
ENDCHAR
STARTCHAR 03AF
ENCODING 943
SWIDTH 333 0
DWIDTH 6 0
BBX 4 13 1 1
BITMAP
30
60
40
C0
C0
C0
C0
C0
C0
C0
C0
C0
70
ENDCHAR
STARTCHAR 03B0
ENCODING 944
SWIDTH 555 0
DWIDTH 10 0
BBX 8 15 1 0
BITMAP
08
08
76
00
00
C3
C3
C3
C3
C3
C3
C3
C3
E7
7E
ENDCHAR
STARTCHAR 03B1
ENCODING 945
SWIDTH 555 0
DWIDTH 10 0
BBX 9 10 1 0
BITMAP
3B00
6700
C300
C300
C300
C300
C300
C300
6700
3F80
ENDCHAR
STARTCHAR 03B2
ENCODING 946
SWIDTH 555 0
DWIDTH 10 0
BBX 9 16 1 -3
BITMAP
3C00
6600
C300
C300
C300
C600
CC00
C300
C180
C180
C180
E300
DE00
C000
C000
C000
ENDCHAR
STARTCHAR 03B3
ENCODING 947
SWIDTH 500 0
DWIDTH 9 0
BBX 9 13 0 -3
BITMAP
C080
6180
6100
3300
3300
1200
1E00
0C00
0C00
0C00
0C00
0C00
0C00
ENDCHAR
STARTCHAR 03B4
ENCODING 948
SWIDTH 555 0
DWIDTH 10 0
BBX 9 13 1 0
BITMAP
7F00
7000
1800
0C00
3E00
6300
C180
C180
C180
C180
C180
6300
3E00
ENDCHAR
STARTCHAR 03B5
ENCODING 949
SWIDTH 500 0
DWIDTH 9 0
BBX 8 10 1 0
BITMAP
7E
C3
C0
C0
30
40
C0
C0
C3
7E
ENDCHAR
STARTCHAR 03B6
ENCODING 950
SWIDTH 444 0
DWIDTH 8 0
BBX 7 16 1 -4
BITMAP
FC
18
30
30
60
60
C0
C0
C0
C0
E0
78
1E
06
06
04
ENDCHAR
STARTCHAR 03B7
ENCODING 951
SWIDTH 555 0
DWIDTH 10 0
BBX 9 12 0 -2
BITMAP
CF00
7180
6180
6180
6180
6180
6180
6180
6180
6180
0180
0180
ENDCHAR
STARTCHAR 03B8
ENCODING 952
SWIDTH 500 0
DWIDTH 9 0
BBX 8 13 1 0
BITMAP
3C
66
42
C3
C3
C3
FF
C3
C3
C3
C2
66
3C
ENDCHAR
STARTCHAR 03B9
ENCODING 953
SWIDTH 277 0
DWIDTH 5 0
BBX 4 10 1 0
BITMAP
C0
C0
C0
C0
C0
C0
C0
C0
C0
70
ENDCHAR
STARTCHAR 03BA
ENCODING 954
SWIDTH 500 0
DWIDTH 9 0
BBX 8 10 1 0
BITMAP
C6
CC
D8
F8
F8
F8
CC
C6
C6
C3
ENDCHAR
STARTCHAR 03BB
ENCODING 955
SWIDTH 555 0
DWIDTH 10 0
BBX 10 13 0 0
BITMAP
7000
1000
1800
0800
1C00
1400
1400
3600
2200
6200
6300
4100
C1C0
ENDCHAR
STARTCHAR 03BC
ENCODING 956
SWIDTH 555 0
DWIDTH 10 0
BBX 8 12 1 -2
BITMAP
C3
C3
C3
C3
C3
C3
C3
E7
FF
C0
C0
C0
ENDCHAR
STARTCHAR 03BD
ENCODING 957
SWIDTH 500 0
DWIDTH 9 0
BBX 9 10 0 0
BITMAP
C180
4100
6300
6200
2200
3600
3400
1400
1C00
1800
ENDCHAR
STARTCHAR 03BE
ENCODING 958
SWIDTH 500 0
DWIDTH 9 0
BBX 8 16 1 -4
BITMAP
FE
30
60
60
60
30
1C
60
C0
C0
C0
E0
3F
03
03
03
ENDCHAR
STARTCHAR 03BF
ENCODING 959
SWIDTH 555 0
DWIDTH 10 0
BBX 9 10 1 0
BITMAP
3E00
6300
C180
C180
C180
C180
C180
C180
6300
3E00
ENDCHAR
STARTCHAR 03C0
ENCODING 960
SWIDTH 611 0
DWIDTH 11 0
BBX 10 10 1 0
BITMAP
FFC0
6180
6180
6180
6180
6180
6180
6180
6180
61C0
ENDCHAR
STARTCHAR 03C1
ENCODING 961
SWIDTH 555 0
DWIDTH 10 0
BBX 9 13 1 -3
BITMAP
3E00
6300
C180
C180
C180
C180
C180
C180
E300
DE00
C000
C000
C000
ENDCHAR
STARTCHAR 03C2
ENCODING 962
SWIDTH 555 0
DWIDTH 10 0
BBX 8 12 1 -3
BITMAP
3C
67
C3
C0
C0
C0
E0
70
3E
03
03
02
ENDCHAR
STARTCHAR 03C3
ENCODING 963
SWIDTH 611 0
DWIDTH 11 0
BBX 10 10 1 0
BITMAP
3FC0
6300
C180
C180
C180
C180
C180
4100
6300
3E00
ENDCHAR
STARTCHAR 03C4
ENCODING 964
SWIDTH 500 0
DWIDTH 9 0
BBX 7 10 1 0
BITMAP
FE
30
30
30
30
30
30
30
30
1C
ENDCHAR
STARTCHAR 03C5
ENCODING 965
SWIDTH 555 0
DWIDTH 10 0
BBX 8 10 1 0
BITMAP
C3
C3
C3
C3
C3
C3
C3
C3
E7
7E
ENDCHAR
STARTCHAR 03C6
ENCODING 966
SWIDTH 722 0
DWIDTH 13 0
BBX 12 13 1 -3
BITMAP
2780
6660
6660
C630
C630
C630
C630
6660
6660
3FC0
0600
0600
0600
ENDCHAR
STARTCHAR 03C7
ENCODING 967
SWIDTH 555 0
DWIDTH 10 0
BBX 10 14 0 -4
BITMAP
E0C0
2180
3180
1300
1B00
0E00
0E00
0E00
0E00
1A00
3300
3100
6180
C0C0
ENDCHAR
STARTCHAR 03C8
ENCODING 968
SWIDTH 722 0
DWIDTH 13 0
BBX 11 13 1 -3
BITMAP
C060
C660
C660
C660
C660
C660
C660
C660
66C0
3F80
0600
0600
0600
ENDCHAR
STARTCHAR 03C9
ENCODING 969
SWIDTH 722 0
DWIDTH 13 0
BBX 12 10 1 0
BITMAP
30C0
6060
6060
C630
C630
C630
C630
C630
6660
39C0
ENDCHAR
STARTCHAR 03CA
ENCODING 970
SWIDTH 277 0
DWIDTH 5 0
BBX 6 12 -1 0
BITMAP
CC
00
30
30
30
30
30
30
30
30
30
1C
ENDCHAR
STARTCHAR 03CB
ENCODING 971
SWIDTH 555 0
DWIDTH 10 0
BBX 8 12 1 0
BITMAP
66
00
C3
C3
C3
C3
C3
C3
C3
C3
E7
7E
ENDCHAR
STARTCHAR 03CC
ENCODING 972
SWIDTH 555 0
DWIDTH 10 0
BBX 9 13 1 1
BITMAP
0600
0C00
0800
3E00
6300
C180
C180
C180
C180
C180
C180
6300
3E00
ENDCHAR
STARTCHAR 03CD
ENCODING 973
SWIDTH 555 0
DWIDTH 10 0
BBX 8 13 1 1
BITMAP
04
0C
18
C3
C3
C3
C3
C3
C3
C3
C3
E7
7E
ENDCHAR
STARTCHAR 03CE
ENCODING 974
SWIDTH 722 0
DWIDTH 13 0
BBX 12 13 1 1
BITMAP
0180
0300
0200
30C0
6060
6060
C630
C630
C630
C630
C630
6660
39C0
ENDCHAR
STARTCHAR 03D1
ENCODING 977
SWIDTH 555 0
DWIDTH 10 0
BBX 9 13 1 0
BITMAP
1E00
1200
3300
3300
3300
3300
3F80
0300
C300
C300
C300
6600
3C00
ENDCHAR
STARTCHAR 03D2
ENCODING 978
SWIDTH 666 0
DWIDTH 12 0
BBX 12 13 0 0
BITMAP
C0F0
2100
3300
1E00
1E00
0C00
0C00
0C00
0C00
0C00
0C00
0C00
0C00
ENDCHAR
STARTCHAR 03D3
ENCODING 979
SWIDTH 888 0
DWIDTH 16 0
BBX 15 13 0 0
BITMAP
7C1E
6632
C360
0140
01C0
01C0
01C0
01C0
0180
0180
0180
0180
0180
ENDCHAR
STARTCHAR 03D4
ENCODING 980
SWIDTH 666 0
DWIDTH 12 0
BBX 12 15 0 1
BITMAP
3300
0000
C0F0
2100
3300
1E00
1E00
0C00
0C00
0C00
0C00
0C00
0C00
0C00
0C00
ENDCHAR
STARTCHAR 03D5
ENCODING 981
SWIDTH 722 0
DWIDTH 13 0
BBX 12 16 1 -3
BITMAP
0600
0600
0600
3F80
6660
6660
C630
C630
C630
C630
6630
6660
1FC0
0600
0600
0600
ENDCHAR
STARTCHAR 03D6
ENCODING 982
SWIDTH 722 0
DWIDTH 13 0
BBX 12 10 1 0
BITMAP
FFF0
6060
4020
C630
C630
C630
C630
C630
6660
39C0
ENDCHAR
STARTCHAR 03D7
ENCODING 983
SWIDTH 555 0
DWIDTH 10 0
BBX 9 14 1 -4
BITMAP
E180
3B00
1E00
1E00
1C00
3C00
3C00
6C00
C780
C380
0180
0180
0180
0300
ENDCHAR
STARTCHAR 03F0
ENCODING 1008
SWIDTH 555 0
DWIDTH 10 0
BBX 11 10 0 0
BITMAP
7840
CCC0
0D80
0F00
0F00
1E00
1E00
3600
6760
63C0
ENDCHAR
STARTCHAR 03F1
ENCODING 1009
SWIDTH 555 0
DWIDTH 10 0
BBX 9 13 1 -3
BITMAP
3E00
6300
C180
C180
C180
C180
C180
C180
E300
DE00
C000
4000
3F00
ENDCHAR
STARTCHAR 03F2
ENCODING 1010
SWIDTH 444 0
DWIDTH 8 0
BBX 7 10 1 -1
BITMAP
3E
60
E0
C0
C0
C0
C0
E0
60
3E
ENDCHAR
STARTCHAR 03F3
ENCODING 1011
SWIDTH 222 0
DWIDTH 4 0
BBX 4 17 0 -4
BITMAP
30
00
00
30
30
30
30
30
30
30
30
30
30
30
30
30
E0
ENDCHAR
STARTCHAR 03F4
ENCODING 1012
SWIDTH 777 0
DWIDTH 14 0
BBX 13 13 1 0
BITMAP
0F80
3060
6030
6030
C018
C018
FFF8
C018
C018
6030
6030
3060
0F80
ENDCHAR
STARTCHAR 03F5
ENCODING 1013
SWIDTH 333 0
DWIDTH 6 0
BBX 4 10 1 0
BITMAP
30
40
C0
C0
F0
C0
C0
C0
60
30
ENDCHAR
STARTCHAR 03F6
ENCODING 1014
SWIDTH 333 0
DWIDTH 6 0
BBX 4 10 1 -1
BITMAP
C0
60
30
30
30
F0
30
30
20
C0
ENDCHAR
STARTCHAR 03F9
ENCODING 1017
SWIDTH 611 0
DWIDTH 11 0
BBX 10 13 1 0
BITMAP
0FC0
3000
6000
6000
C000
C000
C000
C000
C000
6000
6000
3000
0FC0
ENDCHAR
STARTCHAR 03FD
ENCODING 1021
SWIDTH 611 0
DWIDTH 11 0
BBX 10 13 0 0
BITMAP
FC00
0300
0180
0180
00C0
00C0
00C0
00C0
00C0
0180
0180
0300
FC00
ENDCHAR
STARTCHAR 03FE
ENCODING 1022
SWIDTH 611 0
DWIDTH 11 0
BBX 10 13 1 0
BITMAP
0FC0
3000
6000
6000
C000
C000
C000
C700
C000
6000
6000
3000
0FC0
ENDCHAR
STARTCHAR 03FF
ENCODING 1023
SWIDTH 611 0
DWIDTH 11 0
BBX 10 13 0 0
BITMAP
FC00
0300
0180
0180
00C0
00C0
00C0
1CC0
00C0
0180
0180
0300
FC00
ENDCHAR
STARTCHAR 0400
ENCODING 1024
SWIDTH 666 0
DWIDTH 12 0
BBX 9 16 1 0
BITMAP
1800
0C00
0000
FF80
C000
C000
C000
C000
C000
FF00
C000
C000
C000
C000
C000
FF80
ENDCHAR
STARTCHAR 0401
ENCODING 1025
SWIDTH 666 0
DWIDTH 12 0
BBX 9 15 1 1
BITMAP
3300
0000
FF80
C000
C000
C000
C000
C000
FF00
C000
C000
C000
C000
C000
FF80
ENDCHAR
STARTCHAR 0402
ENCODING 1026
SWIDTH 777 0
DWIDTH 14 0
BBX 12 16 1 -3
BITMAP
FF00
1800
1800
1800
1800
1FE0
1830
1830
1830
1830
1830
1830
1830
0030
0030
00E0
ENDCHAR
STARTCHAR 0403
ENCODING 1027
SWIDTH 611 0
DWIDTH 11 0
BBX 8 16 1 0
BITMAP
0C
18
00
FF
C0
C0
C0
C0
C0
C0
C0
C0
C0
C0
C0
C0
ENDCHAR
STARTCHAR 0404
ENCODING 1028
SWIDTH 722 0
DWIDTH 13 0
BBX 11 13 1 0
BITMAP
1F80
30C0
6060
6060
C000
C000
FF00
C000
C060
4060
60C0
30C0
1F00
ENDCHAR
STARTCHAR 0405
ENCODING 1029
SWIDTH 666 0
DWIDTH 12 0
BBX 10 13 1 0
BITMAP
3F00
6180
C0C0
C0C0
C000
7800
1F00
0380
00C0
C0C0
C0C0
6180
3F00
ENDCHAR
STARTCHAR 0406
ENCODING 1030
SWIDTH 277 0
DWIDTH 5 0
BBX 2 13 2 0
BITMAP
C0
C0
C0
C0
C0
C0
C0
C0
C0
C0
C0
C0
C0
ENDCHAR
STARTCHAR 0407
ENCODING 1031
SWIDTH 277 0
DWIDTH 5 0
BBX 6 15 0 1
BITMAP
CC
00
30
30
30
30
30
30
30
30
30
30
30
30
30
ENDCHAR
STARTCHAR 0408
ENCODING 1032
SWIDTH 555 0
DWIDTH 10 0
BBX 7 13 1 0
BITMAP
06
06
06
06
06
06
06
06
06
C6
C6
C4
78
ENDCHAR
STARTCHAR 0409
ENCODING 1033
SWIDTH 1000 0
DWIDTH 18 0
BBX 17 13 1 0
BITMAP
3F8000
318000
318000
318000
318000
318000
31FE00
318300
318180
218180
618180
618300
C1FE00
ENDCHAR
STARTCHAR 040A
ENCODING 1034
SWIDTH 1000 0
DWIDTH 18 0
BBX 17 13 1 0
BITMAP
C0C000
C0C000
C0C000
C0C000
C0C000
C0C000
FFFE00
C0C300
C0C180
C0C180
C0C180
C0C300
C0FE00
ENDCHAR
STARTCHAR 040B
ENCODING 1035
SWIDTH 777 0
DWIDTH 14 0
BBX 12 13 1 0
BITMAP
FF00
1800
1800
1800
1800
1FE0
1830
1830
1830
1830
1830
1830
1830
ENDCHAR
STARTCHAR 040C
ENCODING 1036
SWIDTH 611 0
DWIDTH 11 0
BBX 10 16 1 0
BITMAP
0C00
1800
0000
C180
C300
C600
CC00
D800
F000
F000
F800
DC00
CE00
C700
C380
C1C0
ENDCHAR
STARTCHAR 040D
ENCODING 1037
SWIDTH 722 0
DWIDTH 13 0
BBX 11 16 1 0
BITMAP
0C00
0600
0000
C0E0
C0E0
C1E0
C160
C360
C660
C460
CC60
D860
D860
F060
E060
E060
ENDCHAR
STARTCHAR 040E
ENCODING 1038
SWIDTH 611 0
DWIDTH 11 0
BBX 10 16 1 1
BITMAP
2100
1E00
0000
C0C0
C180
6180
6300
3300
3600
1E00
1C00
0C00
1800
1800
3000
3000
ENDCHAR
STARTCHAR 040F
ENCODING 1039
SWIDTH 722 0
DWIDTH 13 0
BBX 11 15 1 -2
BITMAP
C060
C060
C060
C060
C060
C060
C060
C060
C060
C060
C060
C060
FFE0
0600
0600
ENDCHAR
STARTCHAR 0410
ENCODING 1040
SWIDTH 666 0
DWIDTH 12 0
BBX 12 13 0 0
BITMAP
0600
0F00
0F00
0900
1980
1980
1080
30C0
3FC0
2040
6060
6060
C030
ENDCHAR
STARTCHAR 0411
ENCODING 1041
SWIDTH 666 0
DWIDTH 12 0
BBX 11 13 1 0
BITMAP
FF00
C000
C000
C000
C000
C000
FF80
C0C0
C060
C060
C060
C0C0
FF80
ENDCHAR
STARTCHAR 0412
ENCODING 1042
SWIDTH 666 0
DWIDTH 12 0
BBX 11 13 1 0
BITMAP
FF00
C180
C0C0
C0C0
C0C0
C180
FF00
C0C0
C060
C060
C060
C0C0
FF80
ENDCHAR
STARTCHAR 0413
ENCODING 1043
SWIDTH 611 0
DWIDTH 11 0
BBX 8 13 1 0
BITMAP
FF
C0
C0
C0
C0
C0
C0
C0
C0
C0
C0
C0
C0
ENDCHAR
STARTCHAR 0414
ENCODING 1044
SWIDTH 833 0
DWIDTH 15 0
BBX 14 16 1 -3
BITMAP
1FF0
1830
1830
1830
1830
1830
1830
1830
1830
1830
1030
3030
FFFC
C00C
C00C
C00C
ENDCHAR
STARTCHAR 0415
ENCODING 1045
SWIDTH 666 0
DWIDTH 12 0
BBX 9 13 1 0
BITMAP
FF80
C000
C000
C000
C000
C000
FF00
C000
C000
C000
C000
C000
FF80
ENDCHAR
STARTCHAR 0416
ENCODING 1046
SWIDTH 888 0
DWIDTH 16 0
BBX 16 13 0 0
BITMAP
6186
318C
1998
1998
0DB0
07E0
03C0
07E0
0DB0
1998
318C
6186
C183
ENDCHAR
STARTCHAR 0417
ENCODING 1047
SWIDTH 666 0
DWIDTH 12 0
BBX 10 13 1 0
BITMAP
3F00
6180
C0C0
C0C0
00C0
0180
0F00
0180
00C0
C0C0
C0C0
6180
3F00
ENDCHAR
STARTCHAR 0418
ENCODING 1048
SWIDTH 722 0
DWIDTH 13 0
BBX 11 13 1 0
BITMAP
C0E0
C0E0
C1E0
C160
C360
C660
C460
CC60
D860
D860
F060
E060
E060
ENDCHAR
STARTCHAR 0419
ENCODING 1049
SWIDTH 722 0
DWIDTH 13 0
BBX 11 16 1 1
BITMAP
1100
1F00
0000
C0E0
C0E0
C1E0
C160
C360
C660
C460
CC60
D860
D860
F060
E060
E060
ENDCHAR
STARTCHAR 041A
ENCODING 1050
SWIDTH 611 0
DWIDTH 11 0
BBX 10 13 1 0
BITMAP
C180
C300
C600
CC00
D800
F000
F000
F800
DC00
CE00
C700
C380
C1C0
ENDCHAR
STARTCHAR 041B
ENCODING 1051
SWIDTH 666 0
DWIDTH 12 0
BBX 10 13 1 0
BITMAP
3FC0
30C0
30C0
30C0
30C0
30C0
30C0
30C0
30C0
20C0
60C0
60C0
C0C0
ENDCHAR
STARTCHAR 041C
ENCODING 1052
SWIDTH 833 0
DWIDTH 15 0
BBX 13 13 1 0
BITMAP
E038
E038
F078
F078
D058
D8D8
D8D8
C898
CD98
CD98
C518
C718
C718
ENDCHAR
STARTCHAR 041D
ENCODING 1053
SWIDTH 722 0
DWIDTH 13 0
BBX 11 13 1 0
BITMAP
C060
C060
C060
C060
C060
C060
FFE0
C060
C060
C060
C060
C060
C060
ENDCHAR
STARTCHAR 041E
ENCODING 1054
SWIDTH 777 0
DWIDTH 14 0
BBX 13 13 1 0
BITMAP
0F80
3060
6030
6030
C018
C018
C018
C018
C018
6030
6030
3060
0F80
ENDCHAR
STARTCHAR 041F
ENCODING 1055
SWIDTH 722 0
DWIDTH 13 0
BBX 11 13 1 0
BITMAP
FFE0
C060
C060
C060
C060
C060
C060
C060
C060
C060
C060
C060
C060
ENDCHAR
STARTCHAR 0420
ENCODING 1056
SWIDTH 666 0
DWIDTH 12 0
BBX 10 13 1 0
BITMAP
FF00
C180
C0C0
C0C0
C0C0
C180
FF00
C000
C000
C000
C000
C000
C000
ENDCHAR
STARTCHAR 0421
ENCODING 1057
SWIDTH 722 0
DWIDTH 13 0
BBX 11 13 1 0
BITMAP
1F80
30C0
6060
4060
C000
C000
C000
C000
C060
4060
60C0
30C0
1F00
ENDCHAR
STARTCHAR 0422
ENCODING 1058
SWIDTH 611 0
DWIDTH 11 0
BBX 8 13 2 0
BITMAP
FF
18
18
18
18
18
18
18
18
18
18
18
18
ENDCHAR
STARTCHAR 0423
ENCODING 1059
SWIDTH 611 0
DWIDTH 11 0
BBX 10 13 1 0
BITMAP
C0C0
C180
6180
6300
3300
3600
1E00
1C00
0C00
1800
1800
3000
3000
ENDCHAR
STARTCHAR 0424
ENCODING 1060
SWIDTH 833 0
DWIDTH 15 0
BBX 14 13 1 0
BITMAP
0300
0300
1FE0
7338
E31C
C30C
C30C
C30C
E31C
7338
3FF0
0300
0300
ENDCHAR
STARTCHAR 0425
ENCODING 1061
SWIDTH 666 0
DWIDTH 12 0
BBX 10 13 1 0
BITMAP
C0C0
6180
6180
3300
1E00
1C00
0C00
1E00
3200
3300
6180
C1C0
C0C0
ENDCHAR
STARTCHAR 0426
ENCODING 1062
SWIDTH 722 0
DWIDTH 13 0
BBX 13 15 1 -2
BITMAP
C060
C060
C060
C060
C060
C060
C060
C060
C060
C060
C060
C060
FFF8
0018
0018
ENDCHAR
STARTCHAR 0427
ENCODING 1063
SWIDTH 611 0
DWIDTH 11 0
BBX 9 13 1 0
BITMAP
C180
C180
C180
C180
C180
C180
C180
7F80
0180
0180
0180
0180
0180
ENDCHAR
STARTCHAR 0428
ENCODING 1064
SWIDTH 833 0
DWIDTH 15 0
BBX 13 13 1 0
BITMAP
C318
C318
C318
C318
C318
C318
C318
C318
C318
C318
C318
C318
FFF8
ENDCHAR
STARTCHAR 0429
ENCODING 1065
SWIDTH 833 0
DWIDTH 15 0
BBX 15 15 1 -2
BITMAP
C318
C318
C318
C318
C318
C318
C318
C318
C318
C318
C318
C318
FFFE
0006
0006
ENDCHAR
STARTCHAR 042A
ENCODING 1066
SWIDTH 833 0
DWIDTH 15 0
BBX 13 13 2 0
BITMAP
F800
1800
1800
1800
1800
1FE0
1830
1818
1818
1818
1818
1830
1FE0
ENDCHAR
STARTCHAR 042B
ENCODING 1067
SWIDTH 888 0
DWIDTH 16 0
BBX 14 13 1 0
BITMAP
C00C
C00C
C00C
C00C
C00C
FF8C
C0CC
C06C
C06C
C06C
C06C
C0CC
FF8C
ENDCHAR
STARTCHAR 042C
ENCODING 1068
SWIDTH 666 0
DWIDTH 12 0
BBX 11 13 1 0
BITMAP
C000
C000
C000
C000
C000
FF80
C0C0
C060
C060
C060
C060
C0C0
FF80
ENDCHAR
STARTCHAR 042D
ENCODING 1069
SWIDTH 722 0
DWIDTH 13 0
BBX 11 13 1 0
BITMAP
3F00
6180
E0C0
C040
0060
0020
1FE0
0020
C060
C060
6040
6180
1F00
ENDCHAR
STARTCHAR 042E
ENCODING 1070
SWIDTH 1000 0
DWIDTH 18 0
BBX 17 13 1 0
BITMAP
C0F800
C30600
C60300
C60300
CC0180
CC0180
FC0180
CC0180
CC0180
C60300
C60300
C30600
C0F800
ENDCHAR
STARTCHAR 042F
ENCODING 1071
SWIDTH 666 0
DWIDTH 12 0
BBX 10 13 1 0
BITMAP
3FC0
60C0
C0C0
C0C0
C0C0
60C0
3FC0
0CC0
18C0
30C0
60C0
60C0
C0C0
ENDCHAR
STARTCHAR 0430
ENCODING 1072
SWIDTH 555 0
DWIDTH 10 0
BBX 9 10 1 0
BITMAP
7E00
E300
C300
0300
0F00
7B00
C300
C300
C700
7B80
ENDCHAR
STARTCHAR 0431
ENCODING 1073
SWIDTH 555 0
DWIDTH 10 0
BBX 8 14 1 0
BITMAP
03
1F
78
40
FC
E6
C3
C3
C3
C3
C3
C3
66
3C
ENDCHAR
STARTCHAR 0432
ENCODING 1074
SWIDTH 500 0
DWIDTH 9 0
BBX 7 9 1 1
BITMAP
FC
C6
C6
FC
FC
C6
C2
C6
FC
ENDCHAR
STARTCHAR 0433
ENCODING 1075
SWIDTH 388 0
DWIDTH 7 0
BBX 5 10 1 0
BITMAP
F8
C0
C0
C0
C0
C0
C0
C0
C0
C0
ENDCHAR
STARTCHAR 0434
ENCODING 1076
SWIDTH 555 0
DWIDTH 10 0
BBX 11 12 0 -2
BITMAP
1F80
1980
1980
1980
1980
1980
1980
3180
3180
FFE0
C060
C060
ENDCHAR
STARTCHAR 0435
ENCODING 1077
SWIDTH 555 0
DWIDTH 10 0
BBX 8 10 1 0
BITMAP
3C
66
C3
C3
FF
C0
C0
C3
66
3C
ENDCHAR
STARTCHAR 0436
ENCODING 1078
SWIDTH 777 0
DWIDTH 14 0
BBX 12 10 1 0
BITMAP
C630
6660
36C0
1F80
0F00
1F80
36C0
6660
C630
8610
ENDCHAR
STARTCHAR 0437
ENCODING 1079
SWIDTH 500 0
DWIDTH 9 0
BBX 7 10 1 0
BITMAP
78
C6
06
06
04
18
06
C6
C6
7C
ENDCHAR
STARTCHAR 0438
ENCODING 1080
SWIDTH 555 0
DWIDTH 10 0
BBX 8 10 1 0
BITMAP
C7
C7
CF
CB
CB
D3
D3
F3
E3
E3
ENDCHAR
STARTCHAR 0439
ENCODING 1081
SWIDTH 555 0
DWIDTH 10 0
BBX 8 12 1 1
BITMAP
66
18
C7
C7
CF
CB
CB
D3
D3
F3
E3
E3
ENDCHAR
STARTCHAR 043A
ENCODING 1082
SWIDTH 500 0
DWIDTH 9 0
BBX 7 10 1 0
BITMAP
C6
CC
D8
D0
E0
F0
D8
CC
C6
C2
ENDCHAR
STARTCHAR 043B
ENCODING 1083
SWIDTH 500 0
DWIDTH 9 0
BBX 7 10 1 0
BITMAP
7E
66
66
66
66
66
66
46
C6
86
ENDCHAR
STARTCHAR 043C
ENCODING 1084
SWIDTH 611 0
DWIDTH 11 0
BBX 9 10 1 0
BITMAP
E380
E380
E380
F780
F780
D580
DD80
C980
C980
C180
ENDCHAR
STARTCHAR 043D
ENCODING 1085
SWIDTH 555 0
DWIDTH 10 0
BBX 8 10 1 0
BITMAP
C3
C3
C3
C3
C3
FF
C3
C3
C3
C3
ENDCHAR
STARTCHAR 043E
ENCODING 1086
SWIDTH 555 0
DWIDTH 10 0
BBX 8 10 1 0
BITMAP
3C
66
C3
C3
C3
C3
C3
C3
66
3C
ENDCHAR
STARTCHAR 043F
ENCODING 1087
SWIDTH 555 0
DWIDTH 10 0
BBX 8 10 1 0
BITMAP
FF
C3
C3
C3
C3
C3
C3
C3
C3
C3
ENDCHAR
STARTCHAR 0440
ENCODING 1088
SWIDTH 555 0
DWIDTH 10 0
BBX 9 13 1 -3
BITMAP
DE00
E300
C180
C180
C180
C180
C180
C180
E300
DE00
C000
C000
C000
ENDCHAR
STARTCHAR 0441
ENCODING 1089
SWIDTH 500 0
DWIDTH 9 0
BBX 8 10 1 0
BITMAP
3C
66
C3
C0
C0
C0
C0
C3
66
3C
ENDCHAR
STARTCHAR 0442
ENCODING 1090
SWIDTH 388 0
DWIDTH 7 0
BBX 6 10 1 0
BITMAP
FC
30
30
30
30
30
30
30
30
30
ENDCHAR
STARTCHAR 0443
ENCODING 1091
SWIDTH 500 0
DWIDTH 9 0
BBX 8 14 0 -4
BITMAP
C1
43
63
62
26
36
34
1C
1C
18
18
18
10
60
ENDCHAR
STARTCHAR 0444
ENCODING 1092
SWIDTH 833 0
DWIDTH 15 0
BBX 14 15 1 -3
BITMAP
0300
0300
3B70
6798
C30C
C30C
C30C
C30C
C30C
C30C
6798
3B70
0300
0300
0300
ENDCHAR
STARTCHAR 0445
ENCODING 1093
SWIDTH 500 0
DWIDTH 9 0
BBX 7 10 1 0
BITMAP
86
C4
6C
38
30
38
78
4C
C4
86
ENDCHAR
STARTCHAR 0446
ENCODING 1094
SWIDTH 555 0
DWIDTH 10 0
BBX 10 12 1 -2
BITMAP
C300
C300
C300
C300
C300
C300
C300
C300
C300
FFC0
00C0
00C0
ENDCHAR
STARTCHAR 0447
ENCODING 1095
SWIDTH 500 0
DWIDTH 9 0
BBX 7 10 1 0
BITMAP
C6
C6
C6
C6
C6
7E
06
06
06
06
ENDCHAR
STARTCHAR 0448
ENCODING 1096
SWIDTH 666 0
DWIDTH 12 0
BBX 10 10 1 0
BITMAP
CCC0
CCC0
CCC0
CCC0
CCC0
CCC0
CCC0
CCC0
CCC0
FFC0
ENDCHAR
STARTCHAR 0449
ENCODING 1097
SWIDTH 722 0
DWIDTH 13 0
BBX 12 12 1 -2
BITMAP
CCC0
CCC0
CCC0
CCC0
CCC0
CCC0
CCC0
CCC0
CCC0
FFF0
0030
0030
ENDCHAR
STARTCHAR 044A
ENCODING 1098
SWIDTH 666 0
DWIDTH 12 0
BBX 9 10 2 0
BITMAP
F000
3000
3000
3000
3F00
3180
3180
3180
3180
3F00
ENDCHAR
STARTCHAR 044B
ENCODING 1099
SWIDTH 666 0
DWIDTH 12 0
BBX 10 10 1 0
BITMAP
C0C0
C0C0
C0C0
C0C0
FEC0
C3C0
C3C0
C3C0
C3C0
FEC0
ENDCHAR
STARTCHAR 044C
ENCODING 1100
SWIDTH 500 0
DWIDTH 9 0
BBX 8 10 1 0
BITMAP
C0
C0
C0
C0
FE
C3
C3
C3
C3
FE
ENDCHAR
STARTCHAR 044D
ENCODING 1101
SWIDTH 500 0
DWIDTH 9 0
BBX 8 10 1 0
BITMAP
3C
62
C3
01
1F
01
01
C3
62
3C
ENDCHAR
STARTCHAR 044E
ENCODING 1102
SWIDTH 722 0
DWIDTH 13 0
BBX 12 10 1 0
BITMAP
C7C0
CC60
D830
D830
F830
D830
D830
CC60
CC60
C7C0
ENDCHAR
STARTCHAR 044F
ENCODING 1103
SWIDTH 555 0
DWIDTH 10 0
BBX 8 10 1 0
BITMAP
7F
C3
C3
C3
7F
13
33
63
C3
83
ENDCHAR
STARTCHAR 0450
ENCODING 1104
SWIDTH 555 0
DWIDTH 10 0
BBX 8 13 1 0
BITMAP
30
30
18
3C
66
C3
C3
FF
C0
C0
C3
66
3C
ENDCHAR
STARTCHAR 0451
ENCODING 1105
SWIDTH 555 0
DWIDTH 10 0
BBX 8 12 1 1
BITMAP
66
00
3C
66
C3
C3
FF
C0
C0
C3
66
3C
ENDCHAR
STARTCHAR 0452
ENCODING 1106
SWIDTH 555 0
DWIDTH 10 0
BBX 9 16 1 -3
BITMAP
6000
F800
6000
6F00
7180
6180
6180
6180
6180
6180
6180
6180
6180
0300
0200
0400
ENDCHAR
STARTCHAR 0453
ENCODING 1107
SWIDTH 388 0
DWIDTH 7 0
BBX 5 13 1 0
BITMAP
18
10
20
F8
C0
C0
C0
C0
C0
C0
C0
C0
C0
ENDCHAR
STARTCHAR 0454
ENCODING 1108
SWIDTH 500 0
DWIDTH 9 0
BBX 8 10 1 0
BITMAP
3C
46
C3
80
F8
80
80
C3
46
3C
ENDCHAR
STARTCHAR 0455
ENCODING 1109
SWIDTH 500 0
DWIDTH 9 0
BBX 8 10 1 0
BITMAP
3E
E3
C0
C0
60
3C
07
C3
E3
7E
ENDCHAR
STARTCHAR 0456
ENCODING 1110
SWIDTH 222 0
DWIDTH 4 0
BBX 2 13 1 0
BITMAP
C0
00
00
C0
C0
C0
C0
C0
C0
C0
C0
C0
C0
ENDCHAR
STARTCHAR 0457
ENCODING 1111
SWIDTH 277 0
DWIDTH 5 0
BBX 6 12 -1 0
BITMAP
CC
00
30
30
30
30
30
30
30
30
30
30
ENDCHAR
STARTCHAR 0458
ENCODING 1112
SWIDTH 222 0
DWIDTH 4 0
BBX 4 17 0 -4
BITMAP
30
00
00
30
30
30
30
30
30
30
30
30
30
30
30
30
E0
ENDCHAR
STARTCHAR 0459
ENCODING 1113
SWIDTH 777 0
DWIDTH 14 0
BBX 13 10 1 0
BITMAP
7E00
6600
6600
6600
6600
67F0
6618
6618
4618
C7F0
ENDCHAR
STARTCHAR 045A
ENCODING 1114
SWIDTH 833 0
DWIDTH 15 0
BBX 14 10 1 0
BITMAP
C300
C300
C300
C300
C300
FFF8
C30C
C30C
C30C
C3F8
ENDCHAR
STARTCHAR 045B
ENCODING 1115
SWIDTH 555 0
DWIDTH 10 0
BBX 9 13 1 0
BITMAP
6000
F800
6000
6F00
7380
6180
6180
6180
6180
6180
6180
6180
6180
ENDCHAR
STARTCHAR 045C
ENCODING 1116
SWIDTH 500 0
DWIDTH 9 0
BBX 7 13 1 0
BITMAP
0C
18
10
C6
CC
D8
D0
E0
F0
D8
CC
C6
C2
ENDCHAR
STARTCHAR 045D
ENCODING 1117
SWIDTH 555 0
DWIDTH 10 0
BBX 8 13 1 0
BITMAP
60
30
18
C7
C7
CF
CB
CB
D3
D3
F3
E3
E3
ENDCHAR
STARTCHAR 045E
ENCODING 1118
SWIDTH 500 0
DWIDTH 9 0
BBX 8 16 0 -3
BITMAP
66
18
C1
43
63
62
26
36
34
1C
1C
18
18
18
10
60
ENDCHAR
STARTCHAR 045F
ENCODING 1119
SWIDTH 555 0
DWIDTH 10 0
BBX 8 12 1 -2
BITMAP
C3
C3
C3
C3
C3
C3
C3
C3
C3
FF
18
18
ENDCHAR
STARTCHAR 0460
ENCODING 1120
SWIDTH 944 0
DWIDTH 17 0
BBX 17 13 0 0
BITMAP
C00180
C0C180
C0C180
C0C180
C0C180
61C300
61E300
61E300
336600
373600
3E3C00
1E1C00
1C1800
ENDCHAR
STARTCHAR 0461
ENCODING 1121
SWIDTH 666 0
DWIDTH 12 0
BBX 13 10 0 0
BITMAP
C018
C618
C618
C618
E730
6F30
6F30
69E0
39E0
18C0
ENDCHAR
STARTCHAR 0462
ENCODING 1122
SWIDTH 833 0
DWIDTH 15 0
BBX 13 13 1 0
BITMAP
1800
1800
FF00
1800
1800
1FE0
1830
1818
1818
1818
1818
1830
1FE0
ENDCHAR
STARTCHAR 0463
ENCODING 1123
SWIDTH 611 0
DWIDTH 11 0
BBX 10 12 1 0
BITMAP
3000
3000
FC00
3000
3000
3000
3F80
30C0
30C0
30C0
30C0
3F80
ENDCHAR
STARTCHAR 0464
ENCODING 1124
SWIDTH 944 0
DWIDTH 17 0
BBX 15 13 2 0
BITMAP
C1F0
C61C
CC0C
CC06
D800
D800
FFE0
D800
D806
CC06
CC0C
C61C
C1F0
ENDCHAR
STARTCHAR 0465
ENCODING 1125
SWIDTH 722 0
DWIDTH 13 0
BBX 12 10 1 0
BITMAP
C7C0
CC60
D830
D800
FF00
D800
D800
CC30
CC60
C7C0
ENDCHAR
STARTCHAR 0466
ENCODING 1126
SWIDTH 777 0
DWIDTH 14 0
BBX 14 13 0 0
BITMAP
0300
0780
0780
0CC0
0CC0
1C60
1860
1870
3FF0
2310
6318
6308
C30C
ENDCHAR
STARTCHAR 0467
ENCODING 1127
SWIDTH 555 0
DWIDTH 10 0
BBX 10 10 0 0
BITMAP
0C00
0E00
1E00
1200
3300
3300
3300
7F80
5C80
CCC0
ENDCHAR
STARTCHAR 0468
ENCODING 1128
SWIDTH 1000 0
DWIDTH 18 0
BBX 16 13 2 0
BITMAP
C0C0
C1E0
C1E0
C130
C330
C318
C218
C61C
FFFC
CCC4
C8C6
C8C2
D8C3
ENDCHAR
STARTCHAR 0469
ENCODING 1129
SWIDTH 722 0
DWIDTH 13 0
BBX 12 10 1 0
BITMAP
C180
C380
C2C0
C2C0
C440
FCE0
CEE0
CBB0
DBB0
D990
ENDCHAR
STARTCHAR 046A
ENCODING 1130
SWIDTH 888 0
DWIDTH 16 0
BBX 16 13 0 0
BITMAP
1FF8
0C30
0660
03C0
03C0
03C0
07E0
07F0
0DB0
1998
318C
6186
C183
ENDCHAR
STARTCHAR 046B
ENCODING 1131
SWIDTH 777 0
DWIDTH 14 0
BBX 14 10 0 0
BITMAP
3FF0
1CE0
0CC0
0780
0780
0FC0
1B60
3330
6318
C30C
ENDCHAR
STARTCHAR 046C
ENCODING 1132
SWIDTH 1111 0
DWIDTH 20 0
BBX 18 13 2 0
BITMAP
C7FE00
C30C00
C19C00
C19800
C0F000
C0F000
FFF000
C1F800
C36C00
C66600
C46300
CC6180
D860C0
ENDCHAR
STARTCHAR 046D
ENCODING 1133
SWIDTH 944 0
DWIDTH 17 0
BBX 15 10 1 0
BITMAP
CFFC
C618
C330
C3F0
C1E0
FFE0
C3F0
C6D8
CCC4
D8C2
ENDCHAR
STARTCHAR 046E
ENCODING 1134
SWIDTH 666 0
DWIDTH 12 0
BBX 10 17 1 -3
BITMAP
2100
3F00
6180
C0C0
C0C0
00C0
0180
1F00
0180
00C0
00C0
00C0
0180
7F00
C000
C000
7F00
ENDCHAR
STARTCHAR 046F
ENCODING 1135
SWIDTH 500 0
DWIDTH 9 0
BBX 8 14 1 -3
BITMAP
42
7C
C3
03
03
0C
03
03
03
03
7E
C0
C0
7C
ENDCHAR
STARTCHAR 0470
ENCODING 1136
SWIDTH 777 0
DWIDTH 14 0
BBX 12 13 1 0
BITMAP
C630
C630
C630
C630
C630
C630
C630
E670
3FC0
0600
0600
0600
0600
ENDCHAR
STARTCHAR 0471
ENCODING 1137
SWIDTH 722 0
DWIDTH 13 0
BBX 11 13 1 -3
BITMAP
C060
C660
C660
C660
C660
C660
C660
C660
66C0
3F80
0600
0600
0600
ENDCHAR
STARTCHAR 0472
ENCODING 1138
SWIDTH 777 0
DWIDTH 14 0
BBX 13 13 1 0
BITMAP
0F80
3060
6030
6030
C018
C018
FFF8
C018
C018
6030
6030
3060
0F80
ENDCHAR
STARTCHAR 0473
ENCODING 1139
SWIDTH 555 0
DWIDTH 10 0
BBX 8 10 1 0
BITMAP
3C
66
C3
C3
FF
C3
C3
C2
66
3C
ENDCHAR
STARTCHAR 0474
ENCODING 1140
SWIDTH 777 0
DWIDTH 14 0
BBX 13 13 0 0
BITMAP
C078
6060
6040
20C0
30C0
3080
1180
1980
1900
0B00
0F00
0E00
0600
ENDCHAR
STARTCHAR 0475
ENCODING 1141
SWIDTH 555 0
DWIDTH 10 0
BBX 10 10 0 0
BITMAP
C1C0
4100
6300
6200
2200
3600
3400
1400
1C00
1800
ENDCHAR
STARTCHAR 0476
ENCODING 1142
SWIDTH 777 0
DWIDTH 14 0
BBX 13 16 0 0
BITMAP
0F00
0580
0000
C078
6060
6040
20C0
30C0
3080
1180
1980
1900
0B00
0F00
0E00
0600
ENDCHAR
STARTCHAR 0477
ENCODING 1143
SWIDTH 555 0
DWIDTH 10 0
BBX 10 13 0 0
BITMAP
6C00
3600
1200
C1C0
4100
6300
6200
2200
3600
3400
1400
1C00
1800
ENDCHAR
STARTCHAR 0478
ENCODING 1144
SWIDTH 1166 0
DWIDTH 21 0
BBX 19 17 1 -4
BITMAP
1F8000
30C000
606000
C03820
C03860
C03C60
C03C40
C034C0
C036C0
C03680
606380
30C380
1F8300
000300
000300
000200
000C00
ENDCHAR
STARTCHAR 0479
ENCODING 1145
SWIDTH 944 0
DWIDTH 17 0
BBX 15 14 1 -4
BITMAP
3D82
6686
C6C6
C6C4
C24C
C26C
C668
C638
6638
3C30
0030
0030
0020
00C0
ENDCHAR
STARTCHAR 047A
ENCODING 1146
SWIDTH 888 0
DWIDTH 16 0
BBX 14 13 1 0
BITMAP
0780
1FE0
7038
6018
C00C
C00C
C00C
C00C
C00C
6018
3030
1FE0
0780
ENDCHAR
STARTCHAR 047B
ENCODING 1147
SWIDTH 611 0
DWIDTH 11 0
BBX 10 10 1 0
BITMAP
1C00
7F00
C180
C0C0
C0C0
C0C0
C0C0
C180
7F00
1C00
ENDCHAR
STARTCHAR 047C
ENCODING 1148
SWIDTH 944 0
DWIDTH 17 0
BBX 17 17 0 0
BITMAP
01F800
021E00
07C300
014000
C00180
C0C180
C0C180
C0C180
C0C180
61C300
61E300
61E300
336600
373600
3E3C00
1E1C00
1C1800
ENDCHAR
STARTCHAR 047D
ENCODING 1149
SWIDTH 666 0
DWIDTH 12 0
BBX 13 14 0 0
BITMAP
0FC0
10F0
3718
0500
C018
C618
C618
C618
E730
6F30
6F30
69E0
39E0
18C0
ENDCHAR
STARTCHAR 047E
ENCODING 1150
SWIDTH 944 0
DWIDTH 17 0
BBX 17 16 0 0
BITMAP
1FFE00
0CCC00
000000
C00180
C0C180
C0C180
C0C180
C0C180
61C300
61E300
61E300
336600
373600
3E3C00
1E1C00
1C1800
ENDCHAR
STARTCHAR 047F
ENCODING 1151
SWIDTH 666 0
DWIDTH 12 0
BBX 13 13 0 0
BITMAP
FFF0
6660
0000
C018
C618
C618
C618
E730
6F30
6F30
69E0
39E0
18C0
ENDCHAR
STARTCHAR 0482
ENCODING 1154
SWIDTH 444 0
DWIDTH 8 0
BBX 8 14 0 -4
BITMAP
02
02
04
04
24
3F
08
08
10
F0
3E
20
20
20
ENDCHAR
STARTCHAR 0483
ENCODING 1155
SWIDTH 0 0
DWIDTH 0 0
BBX 7 5 -7 10
BITMAP
06
06
FE
C0
C0
ENDCHAR
STARTCHAR 0484
ENCODING 1156
SWIDTH 0 0
DWIDTH 0 0
BBX 6 2 -5 10
BITMAP
78
84
ENDCHAR
STARTCHAR 0485
ENCODING 1157
SWIDTH 0 0
DWIDTH 0 0
BBX 3 2 -5 11
BITMAP
E0
A0
ENDCHAR
STARTCHAR 0486
ENCODING 1158
SWIDTH 0 0
DWIDTH 0 0
BBX 3 2 -4 11
BITMAP
E0
A0
ENDCHAR
STARTCHAR 0487
ENCODING 1159
SWIDTH 0 0
DWIDTH 0 0
BBX 11 3 -10 10
BITMAP
3F00
43C0
C060
ENDCHAR
STARTCHAR 0488
ENCODING 1160
SWIDTH 0 0
DWIDTH 0 0
BBX 18 18 -13 -3
BITMAP
00C000
000000
300300
000000
000000
000000
000000
000000
C000C0
000000
000000
000000
000000
000000
300300
000000
000000
00C000
ENDCHAR
STARTCHAR 0489
ENCODING 1161
SWIDTH 0 0
DWIDTH 0 0
BBX 20 20 -14 -4
BITMAP
002000
002000
002000
0801C0
0E0300
040100
000000
000000
000000
B00070
700070
000000
000000
000000
000000
060300
1C0080
000080
002000
002000
ENDCHAR
STARTCHAR 048A
ENCODING 1162
SWIDTH 777 0
DWIDTH 14 0
BBX 13 18 1 -3
BITMAP
1100
0E00
0000
C0E0
C0E0
C1E0
C160
C360
C660
C460
CC60
D860
D860
F060
E060
E078
0018
0018
ENDCHAR
STARTCHAR 048B
ENCODING 1163
SWIDTH 555 0
DWIDTH 10 0
BBX 10 14 1 -3
BITMAP
2400
1800
C700
C700
CF00
CB00
DB00
DB00
D300
F300
E300
E3C0
00C0
00C0
ENDCHAR
STARTCHAR 048C
ENCODING 1164
SWIDTH 666 0
DWIDTH 12 0
BBX 11 13 1 0
BITMAP
6000
6000
F000
6000
6000
6000
7F80
60C0
6060
6060
6060
60C0
7F80
ENDCHAR
STARTCHAR 048D
ENCODING 1165
SWIDTH 500 0
DWIDTH 9 0
BBX 9 10 0 0
BITMAP
6000
6000
F000
6000
6000
7F00
6180
6180
6180
7F00
ENDCHAR
STARTCHAR 048E
ENCODING 1166
SWIDTH 666 0
DWIDTH 12 0
BBX 10 13 1 0
BITMAP
FF00
C180
C0C0
C0C0
C2C0
C380
FF80
C080
C000
C000
C000
C000
C000
ENDCHAR
STARTCHAR 048F
ENCODING 1167
SWIDTH 555 0
DWIDTH 10 0
BBX 9 13 1 -3
BITMAP
DE00
E300
C180
C180
C180
C180
C180
CD80
E700
DF00
C100
C000
C000
ENDCHAR
STARTCHAR 0490
ENCODING 1168
SWIDTH 611 0
DWIDTH 11 0
BBX 10 15 1 0
BITMAP
00C0
00C0
FFC0
C000
C000
C000
C000
C000
C000
C000
C000
C000
C000
C000
C000
ENDCHAR
STARTCHAR 0491
ENCODING 1169
SWIDTH 388 0
DWIDTH 7 0
BBX 6 12 1 0
BITMAP
0C
0C
FC
C0
C0
C0
C0
C0
C0
C0
C0
C0
ENDCHAR
STARTCHAR 0492
ENCODING 1170
SWIDTH 611 0
DWIDTH 11 0
BBX 9 13 1 0
BITMAP
7F80
6000
6000
6000
F000
6000
6000
6000
6000
6000
6000
6000
6000
ENDCHAR
STARTCHAR 0493
ENCODING 1171
SWIDTH 388 0
DWIDTH 7 0
BBX 6 10 0 0
BITMAP
7C
60
60
60
F0
60
60
60
60
60
ENDCHAR
STARTCHAR 0494
ENCODING 1172
SWIDTH 611 0
DWIDTH 11 0
BBX 10 16 1 -3
BITMAP
FFC0
C000
C000
C000
C000
FF00
C180
C180
C180
C180
C180
C180
C180
0180
0180
0700
ENDCHAR
STARTCHAR 0495
ENCODING 1173
SWIDTH 444 0
DWIDTH 8 0
BBX 7 13 1 -3
BITMAP
F8
C0
C0
C0
FC
E6
C6
C6
C6
C6
06
06
0C
ENDCHAR
STARTCHAR 0496
ENCODING 1174
SWIDTH 944 0
DWIDTH 17 0
BBX 17 15 0 -3
BITMAP
618700
318E00
199C00
199800
0DB000
07E000
03E000
07E000
0DB000
199800
318C00
618600
C18380
000180
000180
ENDCHAR
STARTCHAR 0497
ENCODING 1175
SWIDTH 833 0
DWIDTH 15 0
BBX 14 12 1 -3
BITMAP
4318
2330
1360
0B40
0780
0F80
1B40
3360
6330
C31C
000C
000C
ENDCHAR
STARTCHAR 0498
ENCODING 1176
SWIDTH 666 0
DWIDTH 12 0
BBX 10 17 1 -4
BITMAP
3F00
6180
C0C0
C0C0
00C0
0180
1F00
0180
00C0
C0C0
C0C0
6180
3F00
0C00
0600
0600
1C00
ENDCHAR
STARTCHAR 0499
ENCODING 1177
SWIDTH 500 0
DWIDTH 9 0
BBX 8 14 1 -4
BITMAP
7C
C7
03
03
02
0C
03
C3
C3
7E
18
0C
0C
38
ENDCHAR
STARTCHAR 049A
ENCODING 1178
SWIDTH 666 0
DWIDTH 12 0
BBX 11 15 1 -3
BITMAP
C1C0
C380
C600
CC00
D800
F000
F000
F800
DC00
C600
C300
C180
C0E0
0060
0060
ENDCHAR
STARTCHAR 049B
ENCODING 1179
SWIDTH 500 0
DWIDTH 9 0
BBX 8 12 1 -3
BITMAP
C6
CC
D8
F0
E0
E0
D0
D8
CC
C7
03
03
ENDCHAR
STARTCHAR 049C
ENCODING 1180
SWIDTH 666 0
DWIDTH 12 0
BBX 11 13 1 0
BITMAP
C060
C0C0
D980
DE00
DC00
F800
F800
F800
DE00
DB00
C180
C0C0
C060
ENDCHAR
STARTCHAR 049D
ENCODING 1181
SWIDTH 500 0
DWIDTH 9 0
BBX 8 10 1 0
BITMAP
C6
FC
F8
F0
F0
F0
F8
FC
F6
C3
ENDCHAR
STARTCHAR 049E
ENCODING 1182
SWIDTH 666 0
DWIDTH 12 0
BBX 11 13 1 0
BITMAP
6060
60C0
F180
6700
6C00
7800
7800
7C00
6600
6300
6180
60C0
6060
ENDCHAR
STARTCHAR 049F
ENCODING 1183
SWIDTH 500 0
DWIDTH 9 0
BBX 9 10 0 0
BITMAP
6100
F200
6400
6800
7000
7800
6C00
6600
6300
6180
ENDCHAR
STARTCHAR 04A0
ENCODING 1184
SWIDTH 833 0
DWIDTH 15 0
BBX 13 13 2 0
BITMAP
F818
1830
18E0
1980
1B00
1E00
1E00
1B00
1980
18C0
1860
1830
1818
ENDCHAR
STARTCHAR 04A1
ENCODING 1185
SWIDTH 666 0
DWIDTH 12 0
BBX 10 10 2 0
BITMAP
F180
3300
3600
3C00
3800
3C00
3600
3300
3180
30C0
ENDCHAR
STARTCHAR 04A2
ENCODING 1186
SWIDTH 722 0
DWIDTH 13 0
BBX 13 15 1 -2
BITMAP
C060
C060
C060
C060
C060
C060
FFE0
C060
C060
C060
C060
C060
C078
0018
0018
ENDCHAR
STARTCHAR 04A3
ENCODING 1187
SWIDTH 555 0
DWIDTH 10 0
BBX 10 12 1 -2
BITMAP
C300
C300
C300
C300
C300
FF00
C300
C300
C300
C3C0
00C0
00C0
ENDCHAR
STARTCHAR 04A4
ENCODING 1188
SWIDTH 1000 0
DWIDTH 18 0
BBX 16 13 1 0
BITMAP
C07F
C060
C060
C060
C060
C060
FFE0
C060
C060
C060
C060
C060
C060
ENDCHAR
STARTCHAR 04A5
ENCODING 1189
SWIDTH 722 0
DWIDTH 13 0
BBX 11 10 1 0
BITMAP
C3E0
C300
C300
C300
C300
FF00
C300
C300
C300
C300
ENDCHAR
STARTCHAR 04A6
ENCODING 1190
SWIDTH 1055 0
DWIDTH 19 0
BBX 17 16 1 -3
BITMAP
FFE000
C06000
C06000
C06000
C06000
C07F00
C06180
C06180
C06180
C06180
C06180
C06180
C06180
000180
000180
000700
ENDCHAR
STARTCHAR 04A7
ENCODING 1191
SWIDTH 777 0
DWIDTH 14 0
BBX 13 13 1 -3
BITMAP
FF00
C300
C300
C300
C3F0
C398
C318
C318
C318
C318
0018
0018
0030
ENDCHAR
STARTCHAR 04A8
ENCODING 1192
SWIDTH 777 0
DWIDTH 14 0
BBX 14 13 1 0
BITMAP
1C00
3000
63C0
4660
C430
CC30
CC30
CC30
CC30
CE60
6660
33CC
1FF0
ENDCHAR
STARTCHAR 04A9
ENCODING 1193
SWIDTH 611 0
DWIDTH 11 0
BBX 11 10 1 0
BITMAP
3800
6000
CF00
D980
D980
D980
D980
D980
6F60
3FC0
ENDCHAR
STARTCHAR 04AA
ENCODING 1194
SWIDTH 722 0
DWIDTH 13 0
BBX 11 17 1 -4
BITMAP
1F00
30C0
6060
4060
C000
C000
C000
C000
C060
C060
60C0
70C0
1F80
0600
0300
0300
0E00
ENDCHAR
STARTCHAR 04AB
ENCODING 1195
SWIDTH 500 0
DWIDTH 9 0
BBX 8 14 1 -4
BITMAP
3C
66
C3
C0
C0
C0
C3
C3
66
3E
18
0C
0C
38
ENDCHAR
STARTCHAR 04AC
ENCODING 1196
SWIDTH 611 0
DWIDTH 11 0
BBX 9 15 2 -2
BITMAP
FF80
1800
1800
1800
1800
1800
1800
1800
1800
1800
1800
1E00
1E00
0600
0600
ENDCHAR
STARTCHAR 04AD
ENCODING 1197
SWIDTH 388 0
DWIDTH 7 0
BBX 7 11 1 -1
BITMAP
FE
30
30
30
30
30
30
30
3C
0C
0C
ENDCHAR
STARTCHAR 04AE
ENCODING 1198
SWIDTH 666 0
DWIDTH 12 0
BBX 12 13 0 0
BITMAP
C030
6060
30C0
30C0
1980
1D80
0F00
0600
0600
0600
0600
0600
0600
ENDCHAR
STARTCHAR 04AF
ENCODING 1199
SWIDTH 611 0
DWIDTH 11 0
BBX 10 13 1 -4
BITMAP
C0C0
E180
6180
3300
3300
1E00
1E00
0C00
0C00
0C00
0C00
0C00
0C00
ENDCHAR
STARTCHAR 04B0
ENCODING 1200
SWIDTH 666 0
DWIDTH 12 0
BBX 12 13 0 0
BITMAP
C030
6060
30C0
30C0
1980
0F00
0F00
0600
3FC0
0600
0600
0600
0600
ENDCHAR
STARTCHAR 04B1
ENCODING 1201
SWIDTH 611 0
DWIDTH 11 0
BBX 10 14 1 -4
BITMAP
C0C0
C0C0
6180
6180
3300
3300
1E00
1E00
0C00
7F80
0C00
0C00
0C00
0C00
ENDCHAR
STARTCHAR 04B2
ENCODING 1202
SWIDTH 666 0
DWIDTH 12 0
BBX 11 15 1 -3
BITMAP
C0C0
C1C0
6180
3300
1600
1E00
0C00
1E00
3700
3300
6180
C1C0
C0E0
0060
0060
ENDCHAR
STARTCHAR 04B3
ENCODING 1203
SWIDTH 500 0
DWIDTH 9 0
BBX 9 12 0 -3
BITMAP
4300
6300
3600
3C00
1C00
1C00
3C00
2600
6300
C380
0180
0180
ENDCHAR
STARTCHAR 04B4
ENCODING 1204
SWIDTH 944 0
DWIDTH 17 0
BBX 15 15 2 -3
BITMAP
FF18
1818
1818
1818
1818
1818
1818
1818
1818
1818
1818
1818
1FFE
0006
0006
ENDCHAR
STARTCHAR 04B5
ENCODING 1205
SWIDTH 666 0
DWIDTH 12 0
BBX 11 12 2 -3
BITMAP
F180
6180
6180
6180
6180
6180
6180
6180
6180
7FE0
0060
0060
ENDCHAR
STARTCHAR 04B6
ENCODING 1206
SWIDTH 666 0
DWIDTH 12 0
BBX 11 15 1 -2
BITMAP
C180
C180
C180
C180
C180
C180
C180
7F80
0180
0180
0180
01E0
01E0
0060
0060
ENDCHAR
STARTCHAR 04B7
ENCODING 1207
SWIDTH 500 0
DWIDTH 9 0
BBX 9 12 1 -2
BITMAP
C600
C600
C600
C600
C600
C600
7E00
0600
0600
0780
0180
0180
ENDCHAR
STARTCHAR 04B8
ENCODING 1208
SWIDTH 611 0
DWIDTH 11 0
BBX 9 13 1 0
BITMAP
C180
C180
C180
C180
C180
CD80
CD80
7F80
0D80
0D80
0180
0180
0180
ENDCHAR
STARTCHAR 04B9
ENCODING 1209
SWIDTH 500 0
DWIDTH 9 0
BBX 7 10 1 0
BITMAP
C6
C6
C6
DE
DE
7E
1E
1E
06
06
ENDCHAR
STARTCHAR 04BA
ENCODING 1210
SWIDTH 611 0
DWIDTH 11 0
BBX 10 13 1 0
BITMAP
C000
C000
C000
C000
C000
FF80
C0C0
C0C0
C0C0
C0C0
C0C0
C0C0
C0C0
ENDCHAR
STARTCHAR 04BB
ENCODING 1211
SWIDTH 500 0
DWIDTH 9 0
BBX 7 10 1 0
BITMAP
C0
C0
C0
C0
FC
C6
C6
C6
C6
C6
ENDCHAR
STARTCHAR 04BC
ENCODING 1212
SWIDTH 888 0
DWIDTH 16 0
BBX 15 13 1 0
BITMAP
71F0
DE18
CC0C
DC04
D806
7FFE
1800
1800
1800
0C06
0C0C
061C
01F0
ENDCHAR
STARTCHAR 04BD
ENCODING 1213
SWIDTH 666 0
DWIDTH 12 0
BBX 11 10 1 0
BITMAP
6780
CCC0
D860
D860
7FE0
1800
1800
0860
0CC0
0780
ENDCHAR
STARTCHAR 04BE
ENCODING 1214
SWIDTH 888 0
DWIDTH 16 0
BBX 16 16 1 -4
BITMAP
71F8
DF0C
CE06
CC06
D807
7FFF
1800
1800
1800
0C06
0C06
070C
03F8
0060
0060
0060
ENDCHAR
STARTCHAR 04BF
ENCODING 1215
SWIDTH 666 0
DWIDTH 12 0
BBX 11 13 1 -3
BITMAP
6780
CCC0
D860
D860
7FE0
1800
1800
1860
0CC0
0780
0300
0300
0300
ENDCHAR
STARTCHAR 04C0
ENCODING 1216
SWIDTH 277 0
DWIDTH 5 0
BBX 2 13 1 0
BITMAP
C0
C0
C0
C0
C0
C0
C0
C0
C0
C0
C0
C0
C0
ENDCHAR
STARTCHAR 04C1
ENCODING 1217
SWIDTH 888 0
DWIDTH 16 0
BBX 16 16 0 1
BITMAP
0420
03C0
0000
6186
318C
1998
1998
0DB0
07E0
03C0
07E0
0DB0
1998
318C
6186
C183
ENDCHAR
STARTCHAR 04C2
ENCODING 1218
SWIDTH 777 0
DWIDTH 14 0
BBX 12 12 1 1
BITMAP
1980
0600
C630
6660
36C0
1F80
0F00
1F80
36C0
6660
C630
8610
ENDCHAR
STARTCHAR 04C3
ENCODING 1219
SWIDTH 666 0
DWIDTH 12 0
BBX 10 16 1 -3
BITMAP
C0C0
C180
C600
CC00
D800
F000
FF80
C0C0
C0C0
C0C0
C0C0
C0C0
C0C0
00C0
00C0
0380
ENDCHAR
STARTCHAR 04C4
ENCODING 1220
SWIDTH 500 0
DWIDTH 9 0
BBX 7 13 1 -3
BITMAP
C6
CC
D8
D0
E0
FC
CE
C6
C6
C6
06
06
0C
ENDCHAR
STARTCHAR 04C5
ENCODING 1221
SWIDTH 666 0
DWIDTH 12 0
BBX 12 15 1 -2
BITMAP
3FC0
30C0
30C0
30C0
30C0
30C0
30C0
30C0
30C0
20C0
60C0
60C0
C0F0
0030
0030
ENDCHAR
STARTCHAR 04C6
ENCODING 1222
SWIDTH 500 0
DWIDTH 9 0
BBX 9 12 1 -2
BITMAP
7E00
6600
6600
6600
6600
6600
6600
4600
C600
8780
0180
0180
ENDCHAR
STARTCHAR 04C7
ENCODING 1223
SWIDTH 722 0
DWIDTH 13 0
BBX 11 16 1 -3
BITMAP
C060
C060
C060
C060
C060
C060
FFE0
C060
C060
C060
C060
C060
C060
0060
0060
01C0
ENDCHAR
STARTCHAR 04C8
ENCODING 1224
SWIDTH 555 0
DWIDTH 10 0
BBX 8 13 1 -3
BITMAP
C3
C3
C3
C3
C3
FF
C3
C3
C3
C3
03
03
06
ENDCHAR
STARTCHAR 04C9
ENCODING 1225
SWIDTH 722 0
DWIDTH 13 0
BBX 13 15 1 -2
BITMAP
C060
C060
C060
C060
C060
C060
FFE0
C060
C060
C060
C060
C060
C078
0018
0018
ENDCHAR
STARTCHAR 04CA
ENCODING 1226
SWIDTH 555 0
DWIDTH 10 0
BBX 10 12 1 -2
BITMAP
C300
C300
C300
C300
C300
FF00
C300
C300
C300
C3C0
00C0
00C0
ENDCHAR
STARTCHAR 04CB
ENCODING 1227
SWIDTH 611 0
DWIDTH 11 0
BBX 9 15 1 -3
BITMAP
C180
C180
C180
C180
C180
C180
C180
7F80
0180
0180
0180
0780
0780
0600
0600
ENDCHAR
STARTCHAR 04CC
ENCODING 1228
SWIDTH 500 0
DWIDTH 9 0
BBX 7 13 1 -3
BITMAP
C6
C6
C6
C6
C6
C6
7E
06
06
1E
18
18
18
ENDCHAR
STARTCHAR 04CD
ENCODING 1229
SWIDTH 888 0
DWIDTH 16 0
BBX 15 15 1 -3
BITMAP
E038
E038
F078
F078
D058
D8D8
D8D8
C898
CD98
CD98
C518
C718
C71E
0006
0006
ENDCHAR
STARTCHAR 04CE
ENCODING 1230
SWIDTH 611 0
DWIDTH 11 0
BBX 11 12 1 -3
BITMAP
E380
E380
E380
F780
F780
D580
DD80
C980
C980
C1E0
0060
0060
ENDCHAR
STARTCHAR 04CF
ENCODING 1231
SWIDTH 277 0
DWIDTH 5 0
BBX 2 13 1 0
BITMAP
C0
C0
C0
C0
C0
C0
C0
C0
C0
C0
C0
C0
C0
ENDCHAR
STARTCHAR 04D0
ENCODING 1232
SWIDTH 666 0
DWIDTH 12 0
BBX 12 16 0 1
BITMAP
1080
0F00
0000
0600
0F00
0F00
0900
1980
1980
1080
30C0
3FC0
2040
6060
6060
C030
ENDCHAR
STARTCHAR 04D1
ENCODING 1233
SWIDTH 555 0
DWIDTH 10 0
BBX 9 13 1 1
BITMAP
4200
3C00
0000
7E00
E300
C300
0300
0F00
7B00
C300
C300
C700
7B80
ENDCHAR
STARTCHAR 04D2
ENCODING 1234
SWIDTH 666 0
DWIDTH 12 0
BBX 12 15 0 1
BITMAP
1980
0000
0600
0F00
0F00
0900
1980
1980
1080
30C0
3FC0
2040
6060
6060
C030
ENDCHAR
STARTCHAR 04D3
ENCODING 1235
SWIDTH 555 0
DWIDTH 10 0
BBX 9 12 1 0
BITMAP
6600
0000
7E00
E300
C300
0300
0F00
7B00
C300
C300
C700
7B80
ENDCHAR
STARTCHAR 04D4
ENCODING 1236
SWIDTH 1000 0
DWIDTH 18 0
BBX 16 13 1 0
BITMAP
07FF
04C0
0CC0
08C0
18C0
18C0
30FF
30C0
3FC0
60C0
60C0
C0C0
C0FF
ENDCHAR
STARTCHAR 04D5
ENCODING 1237
SWIDTH 888 0
DWIDTH 16 0
BBX 15 10 1 0
BITMAP
7EF8
E38C
C306
0306
3FFE
E300
C300
C306
C78C
78F8
ENDCHAR
STARTCHAR 04D6
ENCODING 1238
SWIDTH 666 0
DWIDTH 12 0
BBX 9 16 1 1
BITMAP
2100
1E00
0000
FF80
C000
C000
C000
C000
C000
FF00
C000
C000
C000
C000
C000
FF80
ENDCHAR
STARTCHAR 04D7
ENCODING 1239
SWIDTH 555 0
DWIDTH 10 0
BBX 8 13 1 1
BITMAP
42
3C
00
3C
66
C3
C3
FF
C0
C0
C3
66
3C
ENDCHAR
STARTCHAR 04D8
ENCODING 1240
SWIDTH 722 0
DWIDTH 13 0
BBX 11 13 1 0
BITMAP
3F00
6180
C0C0
C040
0060
0060
0060
FFE0
C060
C0C0
E0C0
6180
3F00
ENDCHAR
STARTCHAR 04D9
ENCODING 1241
SWIDTH 555 0
DWIDTH 10 0
BBX 8 10 1 -1
BITMAP
3C
66
C3
03
03
FF
C3
C3
66
3C
ENDCHAR
STARTCHAR 04DA
ENCODING 1242
SWIDTH 722 0
DWIDTH 13 0
BBX 11 15 1 1
BITMAP
3300
0000
3F00
6180
C0C0
C040
0060
0060
0060
FFE0
C060
C0C0
E0C0
6180
3F00
ENDCHAR
STARTCHAR 04DB
ENCODING 1243
SWIDTH 555 0
DWIDTH 10 0
BBX 8 13 1 -1
BITMAP
66
00
00
3C
66
C3
03
03
FF
C3
C3
66
3C
ENDCHAR
STARTCHAR 04DC
ENCODING 1244
SWIDTH 888 0
DWIDTH 16 0
BBX 16 15 0 1
BITMAP
0660
0000
6186
318C
1998
1998
0DB0
07E0
03C0
07E0
0DB0
1998
318C
6186
C183
ENDCHAR
STARTCHAR 04DD
ENCODING 1245
SWIDTH 777 0
DWIDTH 14 0
BBX 12 12 1 0
BITMAP
1980
0000
C630
6660
36C0
1F80
0F00
1F80
36C0
6660
C630
8610
ENDCHAR
STARTCHAR 04DE
ENCODING 1246
SWIDTH 666 0
DWIDTH 12 0
BBX 10 15 1 1
BITMAP
3300
0000
3F00
6180
C0C0
C0C0
00C0
0180
0F00
0180
00C0
C0C0
C0C0
6180
3F00
ENDCHAR
STARTCHAR 04DF
ENCODING 1247
SWIDTH 500 0
DWIDTH 9 0
BBX 7 12 1 0
BITMAP
CC
00
78
C6
06
06
04
18
06
C6
C6
7C
ENDCHAR
STARTCHAR 04E0
ENCODING 1248
SWIDTH 611 0
DWIDTH 11 0
BBX 10 13 1 0
BITMAP
7FC0
0180
0180
0300
0600
0F00
0180
00C0
00C0
C0C0
C0C0
6180
3F00
ENDCHAR
STARTCHAR 04E1
ENCODING 1249
SWIDTH 555 0
DWIDTH 10 0
BBX 9 13 0 -3
BITMAP
7F00
0300
0600
0400
0C00
0F00
0380
0180
0180
C180
C180
6300
3E00
ENDCHAR
STARTCHAR 04E2
ENCODING 1250
SWIDTH 722 0
DWIDTH 13 0
BBX 11 16 1 1
BITMAP
1F00
0000
0000
C0E0
C0E0
C1E0
C160
C360
C660
C460
CC60
D860
D860
F060
E060
E060
ENDCHAR
STARTCHAR 04E3
ENCODING 1251
SWIDTH 555 0
DWIDTH 10 0
BBX 8 13 1 0
BITMAP
7C
00
00
C7
C7
CF
CB
CB
D3
D3
F3
E3
E3
ENDCHAR
STARTCHAR 04E4
ENCODING 1252
SWIDTH 722 0
DWIDTH 13 0
BBX 11 15 1 1
BITMAP
1980
0000
C0E0
C0E0
C1E0
C160
C360
C660
C460
CC60
D860
D860
F060
E060
E060
ENDCHAR
STARTCHAR 04E5
ENCODING 1253
SWIDTH 555 0
DWIDTH 10 0
BBX 8 12 1 0
BITMAP
66
00
C7
C7
CF
CB
CB
D3
D3
F3
E3
E3
ENDCHAR
STARTCHAR 04E6
ENCODING 1254
SWIDTH 777 0
DWIDTH 14 0
BBX 13 15 1 1
BITMAP
1980
0000
0F80
3060
6030
6030
C018
C018
C018
C018
C018
6030
6030
3060
0F80
ENDCHAR
STARTCHAR 04E7
ENCODING 1255
SWIDTH 555 0
DWIDTH 10 0
BBX 8 12 1 0
BITMAP
66
00
3C
66
C3
C3
C3
C3
C3
C3
66
3C
ENDCHAR
STARTCHAR 04E8
ENCODING 1256
SWIDTH 777 0
DWIDTH 14 0
BBX 13 13 1 0
BITMAP
0F80
3060
6030
6030
C018
C018
FFF8
C018
C018
6030
6030
3060
0F80
ENDCHAR
STARTCHAR 04E9
ENCODING 1257
SWIDTH 555 0
DWIDTH 10 0
BBX 8 10 1 0
BITMAP
3C
66
C3
C3
FF
C3
C3
C2
66
3C
ENDCHAR
STARTCHAR 04EA
ENCODING 1258
SWIDTH 777 0
DWIDTH 14 0
BBX 13 15 1 1
BITMAP
1980
0000
0F80
3060
6030
6030
C018
C018
FFF8
C018
C018
6030
6030
3060
0F80
ENDCHAR
STARTCHAR 04EB
ENCODING 1259
SWIDTH 555 0
DWIDTH 10 0
BBX 8 12 1 0
BITMAP
66
00
3C
66
C3
C3
FF
C3
C3
C2
66
3C
ENDCHAR
STARTCHAR 04EC
ENCODING 1260
SWIDTH 722 0
DWIDTH 13 0
BBX 11 15 1 1
BITMAP
3300
0000
3F00
6180
E0C0
C040
0060
0020
1FE0
0020
C060
C060
6040
6180
1F00
ENDCHAR
STARTCHAR 04ED
ENCODING 1261
SWIDTH 500 0
DWIDTH 9 0
BBX 8 12 1 0
BITMAP
CC
00
3C
62
C3
01
1F
01
01
C3
62
3C
ENDCHAR
STARTCHAR 04EE
ENCODING 1262
SWIDTH 611 0
DWIDTH 11 0
BBX 10 16 1 1
BITMAP
3E00
0000
0000
C0C0
C180
6180
6300
3300
3600
1E00
1C00
0C00
1800
1800
3000
3000
ENDCHAR
STARTCHAR 04EF
ENCODING 1263
SWIDTH 500 0
DWIDTH 9 0
BBX 8 17 0 -4
BITMAP
3E
00
00
C1
43
63
62
26
36
34
1C
1C
18
18
18
10
60
ENDCHAR
STARTCHAR 04F0
ENCODING 1264
SWIDTH 611 0
DWIDTH 11 0
BBX 10 15 1 1
BITMAP
3300
0000
C0C0
C180
6180
6300
3300
3600
1E00
1C00
0C00
1800
1800
3000
3000
ENDCHAR
STARTCHAR 04F1
ENCODING 1265
SWIDTH 500 0
DWIDTH 9 0
BBX 8 16 0 -4
BITMAP
33
00
C1
43
63
62
26
36
34
1C
1C
18
18
18
10
60
ENDCHAR
STARTCHAR 04F2
ENCODING 1266
SWIDTH 611 0
DWIDTH 11 0
BBX 10 16 1 0
BITMAP
1E00
3400
0000
C0C0
C180
6180
6300
3300
3600
1E00
1C00
0C00
1800
1800
3000
3000
ENDCHAR
STARTCHAR 04F3
ENCODING 1267
SWIDTH 500 0
DWIDTH 9 0
BBX 8 17 0 -3
BITMAP
1A
36
24
C1
43
63
62
26
36
34
1C
1C
18
18
18
10
60
ENDCHAR
STARTCHAR 04F4
ENCODING 1268
SWIDTH 611 0
DWIDTH 11 0
BBX 9 15 1 1
BITMAP
6600
0000
C180
C180
C180
C180
C180
C180
C180
7F80
0180
0180
0180
0180
0180
ENDCHAR
STARTCHAR 04F5
ENCODING 1269
SWIDTH 500 0
DWIDTH 9 0
BBX 7 12 1 0
BITMAP
66
00
C6
C6
C6
C6
C6
7E
06
06
06
06
ENDCHAR
STARTCHAR 04F6
ENCODING 1270
SWIDTH 611 0
DWIDTH 11 0
BBX 9 15 1 -2
BITMAP
FF80
C000
C000
C000
C000
C000
C000
C000
C000
C000
C000
F000
F000
3000
3000
ENDCHAR
STARTCHAR 04F7
ENCODING 1271
SWIDTH 388 0
DWIDTH 7 0
BBX 6 11 1 -1
BITMAP
FC
C0
C0
C0
C0
C0
C0
C0
F0
30
30
ENDCHAR
STARTCHAR 04F8
ENCODING 1272
SWIDTH 888 0
DWIDTH 16 0
BBX 14 15 1 1
BITMAP
0CC0
0000
C00C
C00C
C00C
C00C
C00C
FF8C
C0CC
C06C
C06C
C06C
C06C
C0CC
FF8C
ENDCHAR
STARTCHAR 04F9
ENCODING 1273
SWIDTH 666 0
DWIDTH 12 0
BBX 10 12 1 0
BITMAP
3300
0000
C0C0
C0C0
C0C0
C0C0
FEC0
C3C0
C3C0
C3C0
C3C0
FEC0
ENDCHAR
STARTCHAR 04FA
ENCODING 1274
SWIDTH 611 0
DWIDTH 11 0
BBX 9 17 1 -4
BITMAP
7F80
6000
6000
6000
F800
6000
6000
6000
6000
6000
6000
6000
7000
3000
3000
3000
6000
ENDCHAR
STARTCHAR 04FB
ENCODING 1275
SWIDTH 388 0
DWIDTH 7 0
BBX 7 14 0 -4
BITMAP
7E
60
60
60
F0
60
60
60
60
78
18
18
18
70
ENDCHAR
STARTCHAR 04FC
ENCODING 1276
SWIDTH 666 0
DWIDTH 12 0
BBX 11 16 0 -3
BITMAP
C040
60C0
3180
3100
1B00
0E00
0C00
0E00
1B00
3180
2180
60C0
C060
0060
0060
01C0
ENDCHAR
STARTCHAR 04FD
ENCODING 1277
SWIDTH 500 0
DWIDTH 9 0
BBX 8 13 1 -3
BITMAP
C3
46
6C
3C
18
38
2C
6C
46
C3
03
03
06
ENDCHAR
STARTCHAR 04FE
ENCODING 1278
SWIDTH 666 0
DWIDTH 12 0
BBX 10 13 1 0
BITMAP
C0C0
6180
6180
3300
3200
1E00
7F80
1E00
3600
3300
6180
C1C0
C0C0
ENDCHAR
STARTCHAR 04FF
ENCODING 1279
SWIDTH 500 0
DWIDTH 9 0
BBX 8 10 0 0
BITMAP
43
62
36
1C
7E
1C
34
26
63
C3
ENDCHAR
STARTCHAR 0510
ENCODING 1296
SWIDTH 666 0
DWIDTH 12 0
BBX 10 13 1 0
BITMAP
3F00
6180
C0C0
C0C0
C000
6000
3C00
6000
C000
C0C0
C0C0
6180
3F00
ENDCHAR
STARTCHAR 0511
ENCODING 1297
SWIDTH 500 0
DWIDTH 9 0
BBX 7 10 1 0
BITMAP
3C
C6
C0
C0
40
30
C0
C6
C6
7C
ENDCHAR
STARTCHAR 0512
ENCODING 1298
SWIDTH 666 0
DWIDTH 12 0
BBX 10 16 1 -3
BITMAP
3FC0
30C0
30C0
30C0
30C0
30C0
30C0
30C0
30C0
20C0
60C0
60C0
C0C0
00C0
00C0
0380
ENDCHAR
STARTCHAR 0513
ENCODING 1299
SWIDTH 500 0
DWIDTH 9 0
BBX 7 13 1 -3
BITMAP
7E
66
66
66
66
66
66
46
C6
86
06
06
0C
ENDCHAR
STARTCHAR 051A
ENCODING 1306
SWIDTH 777 0
DWIDTH 14 0
BBX 13 14 1 -2
BITMAP
0F80
3060
6030
6030
C018
C018
C018
C018
C018
6030
61B0
3060
0FF0
0010
ENDCHAR
STARTCHAR 051B
ENCODING 1307
SWIDTH 555 0
DWIDTH 10 0
BBX 8 13 1 -3
BITMAP
3B
67
C3
C3
C3
C3
C3
C3
67
3B
03
03
03
ENDCHAR
STARTCHAR 051C
ENCODING 1308
SWIDTH 944 0
DWIDTH 17 0
BBX 16 13 0 0
BITMAP
C1C1
61C3
61C3
6143
6262
2266
3226
3626
1434
1434
1C1C
181C
0818
ENDCHAR
STARTCHAR 051D
ENCODING 1309
SWIDTH 722 0
DWIDTH 13 0
BBX 13 10 0 0
BITMAP
C618
C710
4710
6530
6D30
2DA0
29A0
38E0
38C0
18C0
ENDCHAR
STARTCHAR 051E
ENCODING 1310
SWIDTH 611 0
DWIDTH 11 0
BBX 10 13 1 0
BITMAP
C180
CF00
C700
CD80
D800
F000
F000
F800
DC00
CE00
C700
C380
C1C0
ENDCHAR
STARTCHAR 051F
ENCODING 1311
SWIDTH 500 0
DWIDTH 9 0
BBX 7 10 1 0
BITMAP
C6
DC
DE
D0
E0
F0
D8
CC
C6
C2
ENDCHAR
STARTCHAR 0524
ENCODING 1316
SWIDTH 722 0
DWIDTH 13 0
BBX 13 15 1 -2
BITMAP
FFE0
C060
C060
C060
C060
C060
C060
C060
C060
C060
C060
C060
C078
0018
0018
ENDCHAR
STARTCHAR 0525
ENCODING 1317
SWIDTH 555 0
DWIDTH 10 0
BBX 10 11 1 -1
BITMAP
FF00
C300
C300
C300
C300
C300
C300
C300
C300
C3C0
00C0
ENDCHAR
STARTCHAR 0526
ENCODING 1318
SWIDTH 611 0
DWIDTH 11 0
BBX 11 15 1 -2
BITMAP
C000
C000
C000
C000
C000
FF00
C180
C180
C180
C180
C180
C180
C1E0
0060
0060
ENDCHAR
STARTCHAR 0527
ENCODING 1319
SWIDTH 500 0
DWIDTH 9 0
BBX 9 12 1 -2
BITMAP
C000
C000
C000
C000
FC00
C600
C600
C600
C600
C780
0180
0180
ENDCHAR
STARTCHAR 0531
ENCODING 1329
SWIDTH 722 0
DWIDTH 13 0
BBX 13 14 1 -1
BITMAP
C060
C060
C060
C060
C060
C060
C060
C060
C060
C060
C060
60E0
3FB8
0010
ENDCHAR
STARTCHAR 0532
ENCODING 1330
SWIDTH 666 0
DWIDTH 12 0
BBX 11 13 1 0
BITMAP
1F00
60C0
40C0
C060
C060
C060
C060
C000
C000
FFE0
C000
C000
C000
ENDCHAR
STARTCHAR 0533
ENCODING 1331
SWIDTH 722 0
DWIDTH 13 0
BBX 11 13 1 0
BITMAP
3F00
6180
C0C0
C0C0
C0C0
C0C0
C0C0
C0C0
E0C0
60C0
3FE0
00C0
00C0
ENDCHAR
STARTCHAR 0534
ENCODING 1332
SWIDTH 722 0
DWIDTH 13 0
BBX 11 13 1 0
BITMAP
3F00
6180
C080
C0C0
C0C0
C0C0
C0C0
00C0
00C0
00E0
00C0
00C0
00C0
ENDCHAR
STARTCHAR 0535
ENCODING 1333
SWIDTH 666 0
DWIDTH 12 0
BBX 11 13 1 0
BITMAP
C000
C000
C000
FFE0
C000
C000
C060
C060
C060
C060
C040
60C0
3F00
ENDCHAR
STARTCHAR 0536
ENCODING 1334
SWIDTH 777 0
DWIDTH 14 0
BBX 13 13 1 0
BITMAP
1F00
7180
60C0
C060
C060
C060
F860
0060
00C0
0180
C300
FFF0
C018
ENDCHAR
STARTCHAR 0537
ENCODING 1335
SWIDTH 444 0
DWIDTH 8 0
BBX 6 12 1 0
BITMAP
C0
C0
C0
C0
FC
C0
C0
C0
C0
C0
C0
F0
ENDCHAR
STARTCHAR 0538
ENCODING 1336
SWIDTH 722 0
DWIDTH 13 0
BBX 11 13 1 0
BITMAP
1F00
60C0
40C0
C060
C060
C060
C060
C060
C000
C000
C000
C000
FFE0
ENDCHAR
STARTCHAR 0539
ENCODING 1337
SWIDTH 777 0
DWIDTH 14 0
BBX 14 13 1 0
BITMAP
3FE0
6030
C018
C018
C018
C7FC
CC18
CC18
CC18
CC18
CC18
CE30
C3E0
ENDCHAR
STARTCHAR 053A
ENCODING 1338
SWIDTH 666 0
DWIDTH 12 0
BBX 11 13 1 1
BITMAP
0180
0180
0180
3FE0
6180
C180
C180
C180
C180
C180
C180
6300
3E00
ENDCHAR
STARTCHAR 053B
ENCODING 1339
SWIDTH 722 0
DWIDTH 13 0
BBX 11 13 1 0
BITMAP
C000
C000
C000
FF00
E0C0
C040
C060
C060
C060
C060
C000
C000
C000
ENDCHAR
STARTCHAR 053C
ENCODING 1340
SWIDTH 388 0
DWIDTH 7 0
BBX 5 12 1 0
BITMAP
C0
C0
C0
C0
C0
C0
C0
C0
C0
C0
C0
F8
ENDCHAR
STARTCHAR 053D
ENCODING 1341
SWIDTH 833 0
DWIDTH 15 0
BBX 13 13 1 0
BITMAP
C000
C000
C000
FC18
CC18
CC18
CC18
CC18
CC18
CC18
C410
C630
C3E0
ENDCHAR
STARTCHAR 053E
ENCODING 1342
SWIDTH 777 0
DWIDTH 14 0
BBX 13 14 1 0
BITMAP
4000
FFF8
1F80
30C0
6060
6060
C030
C030
C030
C030
4070
6060
30C0
1F00
ENDCHAR
STARTCHAR 053F
ENCODING 1343
SWIDTH 722 0
DWIDTH 13 0
BBX 11 13 1 0
BITMAP
C000
C000
C000
C060
C060
C060
C060
4060
60E0
1FE0
0060
0060
0060
ENDCHAR
STARTCHAR 0540
ENCODING 1344
SWIDTH 611 0
DWIDTH 11 0
BBX 10 14 0 -1
BITMAP
01C0
0300
0600
0C00
1800
1800
3000
6000
F000
1E00
0780
01C0
00C0
0040
ENDCHAR
STARTCHAR 0541
ENCODING 1345
SWIDTH 666 0
DWIDTH 12 0
BBX 10 14 1 -1
BITMAP
3E00
6180
C0C0
C0C0
C0C0
00C0
00C0
00C0
0180
7380
DF00
CC00
7E00
0200
ENDCHAR
STARTCHAR 0542
ENCODING 1346
SWIDTH 666 0
DWIDTH 12 0
BBX 10 13 1 0
BITMAP
3E00
6300
C180
C180
C180
C180
C180
0180
0180
0180
0180
0180
01C0
ENDCHAR
STARTCHAR 0543
ENCODING 1347
SWIDTH 666 0
DWIDTH 12 0
BBX 10 13 1 1
BITMAP
0180
1380
3E00
1E00
3F00
3300
7380
6180
E180
C0C0
C0C0
C0C0
FFC0
ENDCHAR
STARTCHAR 0544
ENCODING 1348
SWIDTH 777 0
DWIDTH 14 0
BBX 12 13 1 0
BITMAP
C070
C060
C060
C060
C060
C060
C060
C060
C060
C060
4040
60C0
1F00
ENDCHAR
STARTCHAR 0545
ENCODING 1349
SWIDTH 611 0
DWIDTH 11 0
BBX 9 13 1 0
BITMAP
1E00
7300
6180
0180
0180
0300
7E00
0300
0180
0180
C180
6300
3E00
ENDCHAR
STARTCHAR 0546
ENCODING 1350
SWIDTH 777 0
DWIDTH 14 0
BBX 12 13 1 0
BITMAP
F000
3000
3000
3000
3000
3030
3030
3030
3030
3030
1020
1860
0FC0
ENDCHAR
STARTCHAR 0547
ENCODING 1351
SWIDTH 611 0
DWIDTH 11 0
BBX 9 13 1 0
BITMAP
6000
1E00
3100
6000
C000
C000
C000
C000
C180
C180
C180
6300
3E00
ENDCHAR
STARTCHAR 0548
ENCODING 1352
SWIDTH 722 0
DWIDTH 13 0
BBX 11 13 1 0
BITMAP
1F00
60C0
4040
C060
C060
C060
C060
C060
C060
C060
C060
C060
C060
ENDCHAR
STARTCHAR 0549
ENCODING 1353
SWIDTH 666 0
DWIDTH 12 0
BBX 10 13 1 0
BITMAP
3E00
6180
C0C0
C0C0
C0C0
00C0
00C0
00C0
0180
0300
7C00
3F00
0300
ENDCHAR
STARTCHAR 054A
ENCODING 1354
SWIDTH 722 0
DWIDTH 13 0
BBX 11 13 1 0
BITMAP
3F00
6CC0
CC40
CC60
CC60
CC60
0C60
0C60
0C60
0060
0060
0060
0060
ENDCHAR
STARTCHAR 054B
ENCODING 1355
SWIDTH 722 0
DWIDTH 13 0
BBX 13 13 1 0
BITMAP
1F00
71C0
60C0
C060
C060
C060
FC60
0360
01C0
0180
C300
FFF0
C018
ENDCHAR
STARTCHAR 054C
ENCODING 1356
SWIDTH 722 0
DWIDTH 13 0
BBX 12 13 1 0
BITMAP
1F00
60C0
4040
C060
C060
C060
C060
C060
C060
C070
C060
C060
C060
ENDCHAR
STARTCHAR 054D
ENCODING 1357
SWIDTH 722 0
DWIDTH 13 0
BBX 11 13 1 0
BITMAP
C060
C060
C060
C060
C060
C060
C060
C060
C060
C060
4040
60C0
3F00
ENDCHAR
STARTCHAR 054E
ENCODING 1358
SWIDTH 722 0
DWIDTH 13 0
BBX 12 13 1 0
BITMAP
0060
0060
0060
C060
C060
C060
C060
4060
60E0
1FE0
0060
0060
0070
ENDCHAR
STARTCHAR 054F
ENCODING 1359
SWIDTH 666 0
DWIDTH 12 0
BBX 10 13 1 0
BITMAP
3F00
6180
C0C0
C000
C000
7800
1F00
0380
00C0
C0C0
C0C0
6180
3F00
ENDCHAR
STARTCHAR 0550
ENCODING 1360
SWIDTH 666 0
DWIDTH 12 0
BBX 11 13 1 0
BITMAP
1F80
60C0
4060
C060
C060
C060
C060
C000
C000
C000
C000
C000
C000
ENDCHAR
STARTCHAR 0551
ENCODING 1361
SWIDTH 611 0
DWIDTH 11 0
BBX 10 13 1 0
BITMAP
3F00
6180
C0C0
C0C0
C0C0
6180
3F00
E180
00C0
00C0
C0C0
6180
3F00
ENDCHAR
STARTCHAR 0552
ENCODING 1362
SWIDTH 388 0
DWIDTH 7 0
BBX 4 12 1 0
BITMAP
C0
C0
C0
C0
F0
C0
C0
C0
C0
C0
C0
C0
ENDCHAR
STARTCHAR 0553
ENCODING 1363
SWIDTH 777 0
DWIDTH 14 0
BBX 13 13 1 0
BITMAP
0600
1F80
3660
6630
C618
C618
C618
C618
C618
6630
3660
1F80
0600
ENDCHAR
STARTCHAR 0554
ENCODING 1364
SWIDTH 611 0
DWIDTH 11 0
BBX 10 13 1 0
BITMAP
1F00
3180
60C0
60C0
60C0
60C0
7180
7F00
6000
6000
FFC0
6000
6000
ENDCHAR
STARTCHAR 0555
ENCODING 1365
SWIDTH 777 0
DWIDTH 14 0
BBX 12 13 1 0
BITMAP
0F80
30C0
6060
6060
C030
C030
C030
C030
C030
4060
6060
30C0
1F80
ENDCHAR
STARTCHAR 0556
ENCODING 1366
SWIDTH 722 0
DWIDTH 13 0
BBX 10 13 2 0
BITMAP
7C00
CC00
CC00
CC00
7F00
0D80
0CC0
0CC0
0CC0
0CC0
CCC0
ED80
3F00
ENDCHAR
STARTCHAR 0559
ENCODING 1369
SWIDTH 277 0
DWIDTH 5 0
BBX 2 4 1 10
BITMAP
40
80
80
40
ENDCHAR
STARTCHAR 055A
ENCODING 1370
SWIDTH 222 0
DWIDTH 4 0
BBX 2 3 1 8
BITMAP
C0
40
C0
ENDCHAR
STARTCHAR 055B
ENCODING 1371
SWIDTH 222 0
DWIDTH 4 0
BBX 2 2 1 11
BITMAP
40
80
ENDCHAR
STARTCHAR 055C
ENCODING 1372
SWIDTH 333 0
DWIDTH 6 0
BBX 5 1 0 11
BITMAP
F8
ENDCHAR
STARTCHAR 055D
ENCODING 1373
SWIDTH 333 0
DWIDTH 6 0
BBX 4 3 0 10
BITMAP
C0
60
30
ENDCHAR
STARTCHAR 055E
ENCODING 1374
SWIDTH 333 0
DWIDTH 6 0
BBX 6 3 0 11
BITMAP
78
A4
BC
ENDCHAR
STARTCHAR 055F
ENCODING 1375
SWIDTH 333 0
DWIDTH 6 0
BBX 5 3 0 10
BITMAP
40
C0
F8
ENDCHAR
STARTCHAR 0561
ENCODING 1377
SWIDTH 833 0
DWIDTH 15 0
BBX 13 10 1 0
BITMAP
C318
C318
C318
C318
C318
C318
C318
C318
C738
79D8
ENDCHAR
STARTCHAR 0562
ENCODING 1378
SWIDTH 555 0
DWIDTH 10 0
BBX 8 13 1 -3
BITMAP
DE
E7
C3
C3
C3
C3
C0
C0
C0
FF
C0
C0
C0
ENDCHAR
STARTCHAR 0563
ENCODING 1379
SWIDTH 555 0
DWIDTH 10 0
BBX 9 13 1 -3
BITMAP
3B00
6700
C300
C300
C300
C300
C300
C300
6700
3F80
0300
0300
0300
ENDCHAR
STARTCHAR 0564
ENCODING 1380
SWIDTH 555 0
DWIDTH 10 0
BBX 9 13 1 -3
BITMAP
DE00
E300
C300
C300
C300
C300
C300
C300
C300
C380
0300
0300
0300
ENDCHAR
STARTCHAR 0565
ENCODING 1381
SWIDTH 555 0
DWIDTH 10 0
BBX 8 13 1 1
BITMAP
C0
C0
C0
C0
FF
C0
C0
C3
C3
C3
C3
E7
7B
ENDCHAR
STARTCHAR 0566
ENCODING 1382
SWIDTH 555 0
DWIDTH 10 0
BBX 9 14 1 -4
BITMAP
3F00
6700
C300
C300
C300
C300
C300
C300
6700
3B00
0300
0300
0300
0380
ENDCHAR
STARTCHAR 0567
ENCODING 1383
SWIDTH 333 0
DWIDTH 6 0
BBX 6 14 1 -2
BITMAP
C0
C0
C0
C0
FC
C0
C0
C0
C0
C0
C0
F8
18
18
ENDCHAR
STARTCHAR 0568
ENCODING 1384
SWIDTH 555 0
DWIDTH 10 0
BBX 8 14 1 -4
BITMAP
DE
E7
C3
C3
C3
C3
C3
C3
C3
C3
C0
C0
C0
FF
ENDCHAR
STARTCHAR 0569
ENCODING 1385
SWIDTH 555 0
DWIDTH 10 0
BBX 10 13 1 -4
BITMAP
DE00
E300
C180
C180
C180
CFC0
D980
D980
D980
CF00
C000
C000
C000
ENDCHAR
STARTCHAR 056A
ENCODING 1386
SWIDTH 555 0
DWIDTH 10 0
BBX 9 13 1 0
BITMAP
0300
0300
0300
3F80
6300
C300
C300
C300
C300
C300
C300
6600
3C00
ENDCHAR
STARTCHAR 056B
ENCODING 1387
SWIDTH 555 0
DWIDTH 10 0
BBX 8 16 1 -3
BITMAP
C0
C0
C0
DE
E7
C3
C3
C3
C3
C3
C3
C3
C3
C0
C0
C0
ENDCHAR
STARTCHAR 056C
ENCODING 1388
SWIDTH 277 0
DWIDTH 5 0
BBX 3 14 1 -4
BITMAP
C0
C0
C0
C0
C0
C0
C0
C0
C0
C0
C0
C0
C0
E0
ENDCHAR
STARTCHAR 056D
ENCODING 1389
SWIDTH 777 0
DWIDTH 14 0
BBX 13 16 1 -3
BITMAP
C000
C000
C000
FE18
C618
C618
C618
C618
C618
C618
C618
C738
C3D8
C000
C000
C000
ENDCHAR
STARTCHAR 056E
ENCODING 1390
SWIDTH 555 0
DWIDTH 10 0
BBX 9 13 1 1
BITMAP
0800
1800
1800
0800
3F80
6200
C300
C300
C300
C300
C300
6600
3C00
ENDCHAR
STARTCHAR 056F
ENCODING 1391
SWIDTH 555 0
DWIDTH 10 0
BBX 8 16 1 -3
BITMAP
C0
C0
C0
C3
C3
C3
C3
C3
C3
C3
C3
C7
7B
03
03
03
ENDCHAR
STARTCHAR 0570
ENCODING 1392
SWIDTH 555 0
DWIDTH 10 0
BBX 8 13 1 0
BITMAP
C0
C0
C0
DE
E7
C3
C3
C3
C3
C3
C3
C3
C3
ENDCHAR
STARTCHAR 0571
ENCODING 1393
SWIDTH 500 0
DWIDTH 9 0
BBX 8 13 1 0
BITMAP
30
3C
04
18
3C
66
43
C3
C3
C3
C3
67
3F
ENDCHAR
STARTCHAR 0572
ENCODING 1394
SWIDTH 555 0
DWIDTH 10 0
BBX 9 14 1 -4
BITMAP
DE00
E300
C300
C300
C300
C300
C300
C300
C300
C300
0300
0300
0300
0380
ENDCHAR
STARTCHAR 0573
ENCODING 1395
SWIDTH 555 0
DWIDTH 10 0
BBX 8 13 1 0
BITMAP
01
02
04
2C
38
3C
2C
66
66
C3
C3
C3
FF
ENDCHAR
STARTCHAR 0574
ENCODING 1396
SWIDTH 555 0
DWIDTH 10 0
BBX 8 13 1 0
BITMAP
1F
18
0C
C6
C3
C3
C3
C3
C3
C3
C3
C7
7B
ENDCHAR
STARTCHAR 0575
ENCODING 1397
SWIDTH 222 0
DWIDTH 4 0
BBX 4 14 0 -4
BITMAP
30
30
30
30
30
30
30
30
30
30
30
30
30
E0
ENDCHAR
STARTCHAR 0576
ENCODING 1398
SWIDTH 500 0
DWIDTH 9 0
BBX 8 13 1 0
BITMAP
70
C0
C0
C3
C3
C3
C3
C3
C3
C3
C3
C7
7B
ENDCHAR
STARTCHAR 0577
ENCODING 1399
SWIDTH 388 0
DWIDTH 7 0
BBX 6 14 1 -4
BITMAP
78
4C
0C
0C
0C
18
18
30
30
60
60
C0
C0
FC
ENDCHAR
STARTCHAR 0578
ENCODING 1400
SWIDTH 555 0
DWIDTH 10 0
BBX 8 10 1 0
BITMAP
DE
E7
C3
C3
C3
C3
C3
C3
C3
C3
ENDCHAR
STARTCHAR 0579
ENCODING 1401
SWIDTH 388 0
DWIDTH 7 0
BBX 6 14 1 -4
BITMAP
10
30
60
60
30
18
18
10
30
60
60
C0
C0
7C
ENDCHAR
STARTCHAR 057A
ENCODING 1402
SWIDTH 833 0
DWIDTH 15 0
BBX 13 13 1 -3
BITMAP
C318
C318
C318
C318
C318
C318
C318
C318
C738
79D8
0018
0018
0018
ENDCHAR
STARTCHAR 057B
ENCODING 1403
SWIDTH 500 0
DWIDTH 9 0
BBX 8 14 1 -4
BITMAP
3C
E6
C3
C3
C3
E3
63
36
1C
18
10
20
60
7C
ENDCHAR
STARTCHAR 057C
ENCODING 1404
SWIDTH 500 0
DWIDTH 9 0
BBX 8 10 1 0
BITMAP
DE
E7
C3
C3
C3
C2
C6
C4
C8
CE
ENDCHAR
STARTCHAR 057D
ENCODING 1405
SWIDTH 555 0
DWIDTH 10 0
BBX 8 9 1 1
BITMAP
C3
C3
C3
C3
C3
C3
C3
C7
7B
ENDCHAR
STARTCHAR 057E
ENCODING 1406
SWIDTH 611 0
DWIDTH 11 0
BBX 9 16 1 -4
BITMAP
0300
0300
C300
C300
C300
C300
C300
C300
C300
C300
E700
7B00
0300
0300
0300
0380
ENDCHAR
STARTCHAR 057F
ENCODING 1407
SWIDTH 888 0
DWIDTH 16 0
BBX 14 10 1 0
BITMAP
C378
C39C
C30C
C30C
C30C
C30C
C30C
C30C
E70C
7B0C
ENDCHAR
STARTCHAR 0580
ENCODING 1408
SWIDTH 555 0
DWIDTH 10 0
BBX 8 13 1 -3
BITMAP
DE
E7
C3
C3
C3
C3
C3
C3
C3
C3
C0
C0
C0
ENDCHAR
STARTCHAR 0581
ENCODING 1409
SWIDTH 555 0
DWIDTH 10 0
BBX 8 14 1 -4
BITMAP
3B
67
C3
C3
C3
C3
C3
C3
67
3B
03
C3
E6
7C
ENDCHAR
STARTCHAR 0582
ENCODING 1410
SWIDTH 277 0
DWIDTH 5 0
BBX 3 10 1 0
BITMAP
C0
C0
C0
C0
C0
C0
C0
C0
C0
E0
ENDCHAR
STARTCHAR 0583
ENCODING 1411
SWIDTH 888 0
DWIDTH 16 0
BBX 14 16 1 -3
BITMAP
0300
0300
0300
C378
C38C
C30C
C30C
C30C
C30C
C30C
C30C
E70C
7B0C
0300
0300
0300
ENDCHAR
STARTCHAR 0584
ENCODING 1412
SWIDTH 555 0
DWIDTH 10 0
BBX 9 13 1 -3
BITMAP
7E00
7300
6180
6180
6180
6180
6180
7300
7E00
6000
6000
FF00
6000
ENDCHAR
STARTCHAR 0585
ENCODING 1413
SWIDTH 555 0
DWIDTH 10 0
BBX 9 10 1 0
BITMAP
3E00
6300
C180
C180
C180
C180
C180
C180
6300
3E00
ENDCHAR
STARTCHAR 0586
ENCODING 1414
SWIDTH 666 0
DWIDTH 12 0
BBX 11 16 1 -3
BITMAP
3C00
6C00
6C00
6C00
3F80
0CC0
0C60
0C60
0C60
0C60
0C60
CCC0
7F80
0C00
0C00
0C00
ENDCHAR
STARTCHAR 0587
ENCODING 1415
SWIDTH 555 0
DWIDTH 10 0
BBX 9 13 1 0
BITMAP
C000
C000
C000
C000
C000
C000
C000
C300
C300
C300
C300
C700
7B80
ENDCHAR
STARTCHAR 0589
ENCODING 1417
SWIDTH 277 0
DWIDTH 5 0
BBX 2 9 2 0
BITMAP
C0
00
00
00
00
00
00
00
C0
ENDCHAR
STARTCHAR 058A
ENCODING 1418
SWIDTH 333 0
DWIDTH 6 0
BBX 5 1 0 4
BITMAP
F8
ENDCHAR
STARTCHAR 058F
ENCODING 1423
SWIDTH 722 0
DWIDTH 13 0
BBX 11 13 1 0
BITMAP
3F00
6180
C0C0
C0C0
C0C0
C0C0
C1E0
00C0
01E0
00C0
00C0
00C0
00C0
ENDCHAR
STARTCHAR 05B0
ENCODING 1456
SWIDTH 0 0
DWIDTH 0 0
BBX 2 3 5 -4
BITMAP
C0
00
C0
ENDCHAR
STARTCHAR 05B1
ENCODING 1457
SWIDTH 0 0
DWIDTH 0 0
BBX 7 3 2 -4
BITMAP
DE
00
36
ENDCHAR
STARTCHAR 05B2
ENCODING 1458
SWIDTH 0 0
DWIDTH 0 0
BBX 7 3 2 -4
BITMAP
F6
00
06
ENDCHAR
STARTCHAR 05B3
ENCODING 1459
SWIDTH 0 0
DWIDTH 0 0
BBX 6 3 3 -4
BITMAP
FC
60
6C
ENDCHAR
STARTCHAR 05B4
ENCODING 1460
SWIDTH 0 0
DWIDTH 0 0
BBX 2 1 5 -2
BITMAP
C0
ENDCHAR
STARTCHAR 05B5
ENCODING 1461
SWIDTH 0 0
DWIDTH 0 0
BBX 4 1 4 -2
BITMAP
F0
ENDCHAR
STARTCHAR 05B6
ENCODING 1462
SWIDTH 0 0
DWIDTH 0 0
BBX 4 3 4 -4
BITMAP
F0
00
60
ENDCHAR
STARTCHAR 05B7
ENCODING 1463
SWIDTH 0 0
DWIDTH 0 0
BBX 4 1 3 -2
BITMAP
F0
ENDCHAR
STARTCHAR 05B8
ENCODING 1464
SWIDTH 0 0
DWIDTH 0 0
BBX 4 3 4 -4
BITMAP
F0
60
60
ENDCHAR
STARTCHAR 05B9
ENCODING 1465
SWIDTH 0 0
DWIDTH 0 0
BBX 2 1 5 12
BITMAP
C0
ENDCHAR
STARTCHAR 05BA
ENCODING 1466
SWIDTH 0 0
DWIDTH 0 0
BBX 2 1 1 12
BITMAP
C0
ENDCHAR
STARTCHAR 05BB
ENCODING 1467
SWIDTH 0 0
DWIDTH 0 0
BBX 6 4 3 -5
BITMAP
C0
30
00
0C
ENDCHAR
STARTCHAR 05BC
ENCODING 1468
SWIDTH 0 0
DWIDTH 0 0
BBX 2 1 4 5
BITMAP
C0
ENDCHAR
STARTCHAR 05BD
ENCODING 1469
SWIDTH 0 0
DWIDTH 0 0
BBX 2 3 4 -4
BITMAP
C0
C0
C0
ENDCHAR
STARTCHAR 05BE
ENCODING 1470
SWIDTH 444 0
DWIDTH 8 0
BBX 6 1 1 10
BITMAP
FC
ENDCHAR
STARTCHAR 05BF
ENCODING 1471
SWIDTH 0 0
DWIDTH 0 0
BBX 4 1 2 12
BITMAP
F0
ENDCHAR
STARTCHAR 05C0
ENCODING 1472
SWIDTH 222 0
DWIDTH 4 0
BBX 2 14 1 -2
BITMAP
C0
C0
C0
C0
C0
C0
C0
C0
C0
C0
C0
C0
C0
C0
ENDCHAR
STARTCHAR 05C1
ENCODING 1473
SWIDTH 0 0
DWIDTH 0 0
BBX 2 1 12 12
BITMAP
C0
ENDCHAR
STARTCHAR 05C2
ENCODING 1474
SWIDTH 0 0
DWIDTH 0 0
BBX 2 1 2 12
BITMAP
C0
ENDCHAR
STARTCHAR 05C3
ENCODING 1475
SWIDTH 277 0
DWIDTH 5 0
BBX 2 10 1 0
BITMAP
C0
00
00
00
00
00
00
00
00
C0
ENDCHAR
STARTCHAR 05C4
ENCODING 1476
SWIDTH 0 0
DWIDTH 0 0
BBX 2 1 8 12
BITMAP
C0
ENDCHAR
STARTCHAR 05C5
ENCODING 1477
SWIDTH 0 0
DWIDTH 0 0
BBX 2 1 5 -2
BITMAP
C0
ENDCHAR
STARTCHAR 05C6
ENCODING 1478
SWIDTH 388 0
DWIDTH 7 0
BBX 4 11 1 0
BITMAP
30
60
C0
C0
C0
C0
C0
C0
C0
C0
F0
ENDCHAR
STARTCHAR 05C7
ENCODING 1479
SWIDTH 0 0
DWIDTH 0 0
BBX 4 3 4 -4
BITMAP
F0
60
60
ENDCHAR
STARTCHAR 05D0
ENCODING 1488
SWIDTH 666 0
DWIDTH 12 0
BBX 10 11 1 0
BITMAP
40C0
60C0
30C0
10C0
38C0
6D80
E700
C600
C300
C180
C080
ENDCHAR
STARTCHAR 05D1
ENCODING 1489
SWIDTH 611 0
DWIDTH 11 0
BBX 8 11 2 0
BITMAP
F8
0C
06
06
06
06
06
06
06
06
FF
ENDCHAR
STARTCHAR 05D2
ENCODING 1490
SWIDTH 444 0
DWIDTH 8 0
BBX 7 11 1 0
BITMAP
60
18
08
0C
0C
0C
04
1C
34
66
C6
ENDCHAR
STARTCHAR 05D3
ENCODING 1491
SWIDTH 611 0
DWIDTH 11 0
BBX 8 11 2 0
BITMAP
FF
06
06
06
06
06
06
06
06
06
06
ENDCHAR
STARTCHAR 05D4
ENCODING 1492
SWIDTH 611 0
DWIDTH 11 0
BBX 10 11 1 0
BITMAP
FE00
0180
00C0
00C0
C0C0
C0C0
C0C0
C0C0
C0C0
C0C0
C0C0
ENDCHAR
STARTCHAR 05D5
ENCODING 1493
SWIDTH 222 0
DWIDTH 4 0
BBX 2 11 1 0
BITMAP
C0
C0
C0
C0
C0
C0
C0
C0
C0
C0
C0
ENDCHAR
STARTCHAR 05D6
ENCODING 1494
SWIDTH 333 0
DWIDTH 6 0
BBX 4 11 1 0
BITMAP
F0
60
60
60
60
60
60
60
60
60
60
ENDCHAR
STARTCHAR 05D7
ENCODING 1495
SWIDTH 611 0
DWIDTH 11 0
BBX 10 11 1 0
BITMAP
FE00
C180
C0C0
C0C0
C0C0
C0C0
C0C0
C0C0
C0C0
C0C0
C0C0
ENDCHAR
STARTCHAR 05D8
ENCODING 1496
SWIDTH 611 0
DWIDTH 11 0
BBX 10 11 1 0
BITMAP
CF00
C180
C0C0
C0C0
C0C0
C0C0
C0C0
C0C0
C0C0
6180
1E00
ENDCHAR
STARTCHAR 05D9
ENCODING 1497
SWIDTH 222 0
DWIDTH 4 0
BBX 2 6 1 5
BITMAP
C0
C0
C0
C0
C0
80
ENDCHAR
STARTCHAR 05DA
ENCODING 1498
SWIDTH 500 0
DWIDTH 9 0
BBX 8 14 1 -4
BITMAP
FC
06
03
03
03
03
03
03
03
03
03
03
03
03
ENDCHAR
STARTCHAR 05DB
ENCODING 1499
SWIDTH 555 0
DWIDTH 10 0
BBX 9 11 1 0
BITMAP
FC00
0700
0180
0180
0180
0180
0180
0180
0180
0700
FC00
ENDCHAR
STARTCHAR 05DC
ENCODING 1500
SWIDTH 611 0
DWIDTH 11 0
BBX 9 14 1 0
BITMAP
C000
C000
C000
FF80
0180
0180
0180
0180
0700
0600
0C00
0C00
0C00
0C00
ENDCHAR
STARTCHAR 05DD
ENCODING 1501
SWIDTH 611 0
DWIDTH 11 0
BBX 10 11 1 0
BITMAP
FE00
C380
C0C0
C0C0
C0C0
C0C0
C0C0
C0C0
C0C0
C0C0
FFC0
ENDCHAR
STARTCHAR 05DE
ENCODING 1502
SWIDTH 611 0
DWIDTH 11 0
BBX 10 11 1 0
BITMAP
FE00
6380
60C0
60C0
40C0
40C0
40C0
40C0
C0C0
C0C0
C7C0
ENDCHAR
STARTCHAR 05DF
ENCODING 1503
SWIDTH 222 0
DWIDTH 4 0
BBX 2 15 1 -4
BITMAP
C0
C0
C0
C0
C0
C0
C0
C0
C0
C0
C0
C0
C0
C0
C0
ENDCHAR
STARTCHAR 05E0
ENCODING 1504
SWIDTH 388 0
DWIDTH 7 0
BBX 4 11 2 0
BITMAP
C0
60
30
30
30
30
30
30
30
30
F0
ENDCHAR
STARTCHAR 05E1
ENCODING 1505
SWIDTH 611 0
DWIDTH 11 0
BBX 10 11 1 0
BITMAP
FF00
C180
C0C0
C0C0
C0C0
C0C0
C0C0
C0C0
C0C0
6180
1F00
ENDCHAR
STARTCHAR 05E2
ENCODING 1506
SWIDTH 611 0
DWIDTH 11 0
BBX 9 12 1 -1
BITMAP
4180
4180
6180
6180
6180
2180
3180
3180
3300
1E00
F800
C000
ENDCHAR
STARTCHAR 05E3
ENCODING 1507
SWIDTH 555 0
DWIDTH 10 0
BBX 9 14 1 -4
BITMAP
FE00
C300
C180
C180
C180
C180
7180
0180
0180
0180
0180
0180
0180
0180
ENDCHAR
STARTCHAR 05E4
ENCODING 1508
SWIDTH 555 0
DWIDTH 10 0
BBX 9 11 1 0
BITMAP
FC00
C300
C300
C180
C180
7180
0180
0180
0300
0700
FC00
ENDCHAR
STARTCHAR 05E5
ENCODING 1509
SWIDTH 555 0
DWIDTH 10 0
BBX 8 15 1 -4
BITMAP
83
C3
63
33
37
1E
18
18
18
18
18
18
18
18
18
ENDCHAR
STARTCHAR 05E6
ENCODING 1510
SWIDTH 611 0
DWIDTH 11 0
BBX 9 10 1 1
BITMAP
4180
6180
3180
1180
1F00
0C00
0C00
0600
0300
FF80
ENDCHAR
STARTCHAR 05E7
ENCODING 1511
SWIDTH 611 0
DWIDTH 11 0
BBX 9 14 1 -4
BITMAP
FF80
0180
0180
C180
C180
C180
C180
C180
C300
DE00
C000
C000
C000
C000
ENDCHAR
STARTCHAR 05E8
ENCODING 1512
SWIDTH 555 0
DWIDTH 10 0
BBX 9 11 0 0
BITMAP
FE00
0300
0180
0180
0180
0180
0180
0180
0180
0180
0180
ENDCHAR
STARTCHAR 05E9
ENCODING 1513
SWIDTH 777 0
DWIDTH 14 0
BBX 12 10 1 1
BITMAP
C630
C630
C630
C630
C630
FC30
C030
6070
70E0
1F80
ENDCHAR
STARTCHAR 05EA
ENCODING 1514
SWIDTH 666 0
DWIDTH 12 0
BBX 11 11 1 0
BITMAP
7F80
30C0
3060
3060
3060
3060
3060
3060
3060
6060
C060
ENDCHAR
STARTCHAR 05F0
ENCODING 1520
SWIDTH 444 0
DWIDTH 8 0
BBX 6 11 1 0
BITMAP
CC
CC
CC
CC
CC
CC
CC
CC
CC
CC
CC
ENDCHAR
STARTCHAR 05F1
ENCODING 1521
SWIDTH 388 0
DWIDTH 7 0
BBX 6 11 1 0
BITMAP
CC
CC
CC
CC
CC
8C
0C
0C
0C
0C
0C
ENDCHAR
STARTCHAR 05F2
ENCODING 1522
SWIDTH 388 0
DWIDTH 7 0
BBX 6 6 1 5
BITMAP
CC
CC
CC
CC
CC
88
ENDCHAR
STARTCHAR 05F3
ENCODING 1523
SWIDTH 166 0
DWIDTH 3 0
BBX 2 4 1 9
BITMAP
C0
C0
C0
80
ENDCHAR
STARTCHAR 05F4
ENCODING 1524
SWIDTH 333 0
DWIDTH 6 0
BBX 5 4 1 9
BITMAP
D8
D8
D8
90
ENDCHAR
STARTCHAR 0700
ENCODING 1792
SWIDTH 611 0
DWIDTH 11 0
BBX 9 9 1 0
BITMAP
0C00
0C00
0000
C180
C180
0000
0000
0C00
0C00
ENDCHAR
STARTCHAR 0701
ENCODING 1793
SWIDTH 222 0
DWIDTH 4 0
BBX 2 2 1 2
BITMAP
C0
C0
ENDCHAR
STARTCHAR 0702
ENCODING 1794
SWIDTH 222 0
DWIDTH 4 0
BBX 2 2 1 -2
BITMAP
C0
C0
ENDCHAR
STARTCHAR 0703
ENCODING 1795
SWIDTH 222 0
DWIDTH 4 0
BBX 2 6 1 2
BITMAP
C0
C0
00
00
C0
C0
ENDCHAR
STARTCHAR 0704
ENCODING 1796
SWIDTH 222 0
DWIDTH 4 0
BBX 2 6 1 -4
BITMAP
C0
C0
00
00
C0
C0
ENDCHAR
STARTCHAR 0705
ENCODING 1797
SWIDTH 500 0
DWIDTH 9 0
BBX 5 2 2 -1
BITMAP
D8
D8
ENDCHAR
STARTCHAR 0706
ENCODING 1798
SWIDTH 500 0
DWIDTH 9 0
BBX 5 4 2 -2
BITMAP
C0
C0
18
18
ENDCHAR
STARTCHAR 0707
ENCODING 1799
SWIDTH 500 0
DWIDTH 9 0
BBX 5 4 2 -2
BITMAP
18
18
C0
C0
ENDCHAR
STARTCHAR 0708
ENCODING 1800
SWIDTH 388 0
DWIDTH 7 0
BBX 4 6 2 2
BITMAP
C0
C0
00
00
30
30
ENDCHAR
STARTCHAR 0709
ENCODING 1801
SWIDTH 388 0
DWIDTH 7 0
BBX 4 6 2 -4
BITMAP
C0
C0
00
00
30
30
ENDCHAR
STARTCHAR 070A
ENCODING 1802
SWIDTH 555 0
DWIDTH 10 0
BBX 10 13 0 1
BITMAP
3300
3300
0000
FFC0
0000
0000
0000
0C00
0C00
0000
0000
0C00
0C00
ENDCHAR
STARTCHAR 070B
ENCODING 1803
SWIDTH 555 0
DWIDTH 10 0
BBX 10 6 0 4
BITMAP
FFC0
0000
0000
0000
0C00
0C00
ENDCHAR
STARTCHAR 070C
ENCODING 1804
SWIDTH 666 0
DWIDTH 12 0
BBX 5 8 3 4
BITMAP
80
C0
60
60
30
10
18
18
ENDCHAR
STARTCHAR 070D
ENCODING 1805
SWIDTH 555 0
DWIDTH 10 0
BBX 8 9 1 5
BITMAP
18
DB
DB
18
FF
18
18
DB
DB
ENDCHAR
STARTCHAR 070F
ENCODING 1807
SWIDTH 0 0
DWIDTH 0 0
BBX 0 0 0 0
BITMAP
ENDCHAR
STARTCHAR 0710
ENCODING 1808
SWIDTH 444 0
DWIDTH 8 0
BBX 6 13 1 -3
BITMAP
40
60
60
30
30
30
30
30
30
60
7C
40
C0
ENDCHAR
STARTCHAR 0711
ENCODING 1809
SWIDTH 444 0
DWIDTH 8 0
BBX 4 7 2 6
BITMAP
C0
60
60
60
60
70
80
ENDCHAR
STARTCHAR 0712
ENCODING 1810
SWIDTH 555 0
DWIDTH 10 0
BBX 10 7 0 0
BITMAP
0FC0
00C0
00C0
00C0
00C0
00C0
FFC0
ENDCHAR
STARTCHAR 0713
ENCODING 1811
SWIDTH 666 0
DWIDTH 12 0
BBX 11 13 0 -3
BITMAP
1000
1800
0800
0C00
0400
0600
0200
0100
FFE0
0200
0100
0100
00C0
ENDCHAR
STARTCHAR 0714
ENCODING 1812
SWIDTH 666 0
DWIDTH 12 0
BBX 11 13 0 -3
BITMAP
1000
1800
0800
0C00
0400
0600
0A00
0900
FFE0
0200
0100
0100
00C0
ENDCHAR
STARTCHAR 0715
ENCODING 1813
SWIDTH 500 0
DWIDTH 9 0
BBX 7 10 2 -3
BITMAP
3C
0E
06
06
06
06
7E
00
00
C0
ENDCHAR
STARTCHAR 0716
ENCODING 1814
SWIDTH 500 0
DWIDTH 9 0
BBX 6 7 3 0
BITMAP
78
1C
0C
0C
0C
0C
FC
ENDCHAR
STARTCHAR 0717
ENCODING 1815
SWIDTH 666 0
DWIDTH 12 0
BBX 10 8 2 -2
BITMAP
7FC0
6EC0
C6C0
C6C0
C6C0
6CC0
3CC0
00C0
ENDCHAR
STARTCHAR 0718
ENCODING 1816
SWIDTH 611 0
DWIDTH 11 0
BBX 8 7 2 0
BITMAP
3C
66
C3
C3
C3
66
3C
ENDCHAR
STARTCHAR 0719
ENCODING 1817
SWIDTH 388 0
DWIDTH 7 0
BBX 3 10 3 -4
BITMAP
60
E0
E0
E0
60
60
20
20
40
40
ENDCHAR
STARTCHAR 071A
ENCODING 1818
SWIDTH 611 0
DWIDTH 11 0
BBX 12 4 -1 1
BITMAP
0880
0CC0
0AB0
F990
ENDCHAR
STARTCHAR 071B
ENCODING 1819
SWIDTH 722 0
DWIDTH 13 0
BBX 13 12 -1 -3
BITMAP
1000
1800
0800
0C00
0400
0600
0300
0100
0180
FFF8
0048
0070
ENDCHAR
STARTCHAR 071C
ENCODING 1820
SWIDTH 722 0
DWIDTH 13 0
BBX 13 12 -1 -3
BITMAP
1000
1800
0800
0C00
0400
0600
0300
0100
0180
FFF8
0078
0070
ENDCHAR
STARTCHAR 071D
ENCODING 1821
SWIDTH 500 0
DWIDTH 9 0
BBX 9 4 -1 1
BITMAP
0200
0300
0380
FE00
ENDCHAR
STARTCHAR 071E
ENCODING 1822
SWIDTH 666 0
DWIDTH 12 0
BBX 15 17 -1 -3
BITMAP
0C00
0C00
0000
3300
3300
0000
0000
3FC0
5CC0
CCC8
CCC8
CCCC
DCCE
78F8
0080
0C00
0C00
ENDCHAR
STARTCHAR 071F
ENCODING 1823
SWIDTH 611 0
DWIDTH 11 0
BBX 9 13 2 -4
BITMAP
0200
1E00
F800
4000
4000
6000
2F00
3180
0180
0180
0300
0300
0600
ENDCHAR
STARTCHAR 0720
ENCODING 1824
SWIDTH 666 0
DWIDTH 12 0
BBX 12 11 -1 1
BITMAP
1800
0C00
0E00
0600
0300
0180
00C0
0040
0060
0030
FFF0
ENDCHAR
STARTCHAR 0721
ENCODING 1825
SWIDTH 666 0
DWIDTH 12 0
BBX 9 9 3 -3
BITMAP
FF80
1180
1180
2180
2180
2180
7F80
4000
C000
ENDCHAR
STARTCHAR 0722
ENCODING 1826
SWIDTH 555 0
DWIDTH 10 0
BBX 9 9 2 -5
BITMAP
6000
F000
7000
2800
0400
0600
0200
0100
0080
ENDCHAR
STARTCHAR 0723
ENCODING 1827
SWIDTH 722 0
DWIDTH 13 0
BBX 12 7 0 0
BITMAP
0F00
19E0
19B0
1910
1910
0D10
FBE0
ENDCHAR
STARTCHAR 0724
ENCODING 1828
SWIDTH 722 0
DWIDTH 13 0
BBX 9 10 3 -4
BITMAP
7800
CF00
CD80
C880
C880
6880
1F00
3000
2000
6000
ENDCHAR
STARTCHAR 0725
ENCODING 1829
SWIDTH 722 0
DWIDTH 13 0
BBX 13 10 -1 0
BITMAP
1000
1800
0800
0C00
0400
0600
0200
0300
0388
FEF0
ENDCHAR
STARTCHAR 0726
ENCODING 1830
SWIDTH 555 0
DWIDTH 10 0
BBX 11 10 -1 1
BITMAP
01C0
07C0
0E40
0C40
0C40
07C0
0060
0060
0060
FFE0
ENDCHAR
STARTCHAR 0727
ENCODING 1831
SWIDTH 555 0
DWIDTH 10 0
BBX 11 10 -1 0
BITMAP
4000
7800
C600
C600
C600
FC00
8000
8000
8000
FFE0
ENDCHAR
STARTCHAR 0728
ENCODING 1832
SWIDTH 611 0
DWIDTH 11 0
BBX 9 9 2 -4
BITMAP
8000
C200
E300
FE80
E000
7000
3E00
0780
FF80
ENDCHAR
STARTCHAR 0729
ENCODING 1833
SWIDTH 611 0
DWIDTH 11 0
BBX 11 7 0 0
BITMAP
1FE0
1860
1860
1860
1860
1860
FFE0
ENDCHAR
STARTCHAR 072A
ENCODING 1834
SWIDTH 500 0
DWIDTH 9 0
BBX 6 11 3 0
BITMAP
C0
00
00
00
78
1C
0C
0C
0C
0C
FC
ENDCHAR
STARTCHAR 072B
ENCODING 1835
SWIDTH 666 0
DWIDTH 12 0
BBX 12 7 -1 0
BITMAP
0FF0
0180
0180
0180
0180
0180
FFF0
ENDCHAR
STARTCHAR 072C
ENCODING 1836
SWIDTH 666 0
DWIDTH 12 0
BBX 10 8 2 0
BITMAP
1800
1C00
2400
6200
C100
C080
CC40
7200
ENDCHAR
STARTCHAR 072D
ENCODING 1837
SWIDTH 555 0
DWIDTH 10 0
BBX 10 10 0 1
BITMAP
0200
0600
0400
0FC0
00C0
00C0
00C0
00C0
00C0
FFC0
ENDCHAR
STARTCHAR 072E
ENCODING 1838
SWIDTH 666 0
DWIDTH 12 0
BBX 11 14 -1 -4
BITMAP
0080
18C0
0CC0
0F00
0400
0600
0200
0300
0100
FFE0
0100
0100
0080
00C0
ENDCHAR
STARTCHAR 072F
ENCODING 1839
SWIDTH 500 0
DWIDTH 9 0
BBX 7 10 2 -3
BITMAP
3C
0E
06
06
06
06
FE
00
C0
18
ENDCHAR
STARTCHAR 0730
ENCODING 1840
SWIDTH 0 0
DWIDTH 0 0
BBX 3 3 4 11
BITMAP
80
E0
80
ENDCHAR
STARTCHAR 0731
ENCODING 1841
SWIDTH 0 0
DWIDTH 0 0
BBX 3 3 5 -5
BITMAP
20
E0
20
ENDCHAR
STARTCHAR 0732
ENCODING 1842
SWIDTH 0 0
DWIDTH 0 0
BBX 1 18 5 -4
BITMAP
80
80
00
00
00
00
00
00
00
00
00
00
00
00
00
80
80
80
ENDCHAR
STARTCHAR 0733
ENCODING 1843
SWIDTH 0 0
DWIDTH 0 0
BBX 4 4 4 10
BITMAP
40
90
20
20
ENDCHAR
STARTCHAR 0734
ENCODING 1844
SWIDTH 0 0
DWIDTH 0 0
BBX 4 4 4 -5
BITMAP
40
90
90
20
ENDCHAR
STARTCHAR 0735
ENCODING 1845
SWIDTH 0 0
DWIDTH 0 0
BBX 5 4 4 10
BITMAP
C0
C0
18
18
ENDCHAR
STARTCHAR 0736
ENCODING 1846
SWIDTH 0 0
DWIDTH 0 0
BBX 4 4 4 10
BITMAP
40
B0
D0
20
ENDCHAR
STARTCHAR 0737
ENCODING 1847
SWIDTH 0 0
DWIDTH 0 0
BBX 4 4 4 -5
BITMAP
40
B0
D0
20
ENDCHAR
STARTCHAR 0738
ENCODING 1848
SWIDTH 0 0
DWIDTH 0 0
BBX 4 3 4 -4
BITMAP
90
90
90
ENDCHAR
STARTCHAR 0739
ENCODING 1849
SWIDTH 0 0
DWIDTH 0 0
BBX 5 4 2 -5
BITMAP
08
50
90
80
ENDCHAR
STARTCHAR 073A
ENCODING 1850
SWIDTH 0 0
DWIDTH 0 0
BBX 3 2 3 11
BITMAP
E0
E0
ENDCHAR
STARTCHAR 073B
ENCODING 1851
SWIDTH 0 0
DWIDTH 0 0
BBX 3 2 5 -3
BITMAP
E0
E0
ENDCHAR
STARTCHAR 073C
ENCODING 1852
SWIDTH 0 0
DWIDTH 0 0
BBX 2 2 5 -3
BITMAP
C0
C0
ENDCHAR
STARTCHAR 073D
ENCODING 1853
SWIDTH 0 0
DWIDTH 0 0
BBX 4 4 3 10
BITMAP
10
E0
20
70
ENDCHAR
STARTCHAR 073E
ENCODING 1854
SWIDTH 0 0
DWIDTH 0 0
BBX 3 3 5 -5
BITMAP
60
80
E0
ENDCHAR
STARTCHAR 073F
ENCODING 1855
SWIDTH 0 0
DWIDTH 0 0
BBX 2 2 5 11
BITMAP
C0
C0
ENDCHAR
STARTCHAR 0740
ENCODING 1856
SWIDTH 0 0
DWIDTH 0 0
BBX 2 1 5 -3
BITMAP
C0
ENDCHAR
STARTCHAR 0741
ENCODING 1857
SWIDTH 0 0
DWIDTH 0 0
BBX 2 2 5 11
BITMAP
C0
C0
ENDCHAR
STARTCHAR 0742
ENCODING 1858
SWIDTH 0 0
DWIDTH 0 0
BBX 2 2 5 -3
BITMAP
C0
C0
ENDCHAR
STARTCHAR 0743
ENCODING 1859
SWIDTH 0 0
DWIDTH 0 0
BBX 2 5 5 10
BITMAP
C0
C0
00
C0
C0
ENDCHAR
STARTCHAR 0744
ENCODING 1860
SWIDTH 0 0
DWIDTH 0 0
BBX 2 4 5 -5
BITMAP
C0
C0
C0
C0
ENDCHAR
STARTCHAR 0745
ENCODING 1861
SWIDTH 0 0
DWIDTH 0 0
BBX 6 5 3 10
BITMAP
30
30
00
CC
CC
ENDCHAR
STARTCHAR 0746
ENCODING 1862
SWIDTH 0 0
DWIDTH 0 0
BBX 5 4 3 -5
BITMAP
D8
D8
30
30
ENDCHAR
STARTCHAR 0747
ENCODING 1863
SWIDTH 0 0
DWIDTH 0 0
BBX 5 3 3 12
BITMAP
18
F0
80
ENDCHAR
STARTCHAR 0748
ENCODING 1864
SWIDTH 0 0
DWIDTH 0 0
BBX 5 3 3 -3
BITMAP
C0
78
08
ENDCHAR
STARTCHAR 0749
ENCODING 1865
SWIDTH 0 0
DWIDTH 0 0
BBX 5 3 3 11
BITMAP
D8
78
30
ENDCHAR
STARTCHAR 074A
ENCODING 1866
SWIDTH 0 0
DWIDTH 0 0
BBX 4 3 4 10
BITMAP
D0
E0
D0
ENDCHAR
STARTCHAR 074D
ENCODING 1869
SWIDTH 666 0
DWIDTH 12 0
BBX 10 10 3 1
BITMAP
80C0
C0C0
C180
6180
6300
3300
3200
1E00
1C00
0C00
ENDCHAR
STARTCHAR 074E
ENCODING 1870
SWIDTH 666 0
DWIDTH 12 0
BBX 12 13 -1 0
BITMAP
0060
0860
0C60
07C0
0780
0380
01C0
00C0
00C0
0060
0020
0030
FFF0
ENDCHAR
STARTCHAR 074F
ENCODING 1871
SWIDTH 666 0
DWIDTH 12 0
BBX 14 12 -1 1
BITMAP
0800
0CE0
0F18
0718
0318
01F0
00E0
00F0
0070
0038
001C
FFFC
ENDCHAR
STARTCHAR 0900
ENCODING 2304
SWIDTH 0 0
DWIDTH 0 0
BBX 7 4 -6 11
BITMAP
38
C6
C6
18
ENDCHAR
STARTCHAR 0901
ENCODING 2305
SWIDTH 0 0
DWIDTH 0 0
BBX 7 4 -5 13
BITMAP
30
C6
C6
38
ENDCHAR
STARTCHAR 0902
ENCODING 2306
SWIDTH 0 0
DWIDTH 0 0
BBX 2 1 -3 14
BITMAP
C0
ENDCHAR
STARTCHAR 0903
ENCODING 2307
SWIDTH 277 0
DWIDTH 5 0
BBX 2 6 2 3
BITMAP
C0
00
00
00
00
C0
ENDCHAR
STARTCHAR 0904
ENCODING 2308
SWIDTH 722 0
DWIDTH 13 0
BBX 12 15 1 0
BITMAP
0C00
0FC0
0060
0060
3CF0
C660
0660
0C60
1C60
87E0
C360
4360
2360
1E60
0060
ENDCHAR
STARTCHAR 0905
ENCODING 2309
SWIDTH 722 0
DWIDTH 13 0
BBX 12 11 1 0
BITMAP
3CF0
C660
0660
0C60
1C60
87E0
C360
4360
2360
1E60
0060
ENDCHAR
STARTCHAR 0906
ENCODING 2310
SWIDTH 888 0
DWIDTH 16 0
BBX 16 11 0 0
BITMAP
3C7F
C636
0636
0C36
1C36
87F6
C336
4336
2336
1E36
0036
ENDCHAR
STARTCHAR 0907
ENCODING 2311
SWIDTH 444 0
DWIDTH 8 0
BBX 8 14 0 -3
BITMAP
FF
06
06
7E
60
20
3F
1B
23
36
3C
0C
06
02
ENDCHAR
STARTCHAR 0908
ENCODING 2312
SWIDTH 444 0
DWIDTH 8 0
BBX 8 19 0 -3
BITMAP
0F
0C
0C
0C
04
FF
06
06
7E
60
30
1F
03
23
36
3C
0C
03
02
ENDCHAR
STARTCHAR 0909
ENCODING 2313
SWIDTH 555 0
DWIDTH 10 0
BBX 11 11 1 0
BITMAP
FFE0
0300
0180
0180
C180
EF00
6180
70C0
30C0
18C0
0F00
ENDCHAR
STARTCHAR 090A
ENCODING 2314
SWIDTH 777 0
DWIDTH 14 0
BBX 14 11 1 0
BITMAP
FFF8
0300
0180
0180
C180
EF38
61CC
70CC
30CC
18D8
0F10
ENDCHAR
STARTCHAR 090B
ENCODING 2315
SWIDTH 944 0
DWIDTH 17 0
BBX 15 11 1 0
BITMAP
FFFE
0180
0180
3998
CDB8
07F8
03C8
0FB0
39B0
61B0
019E
ENDCHAR
STARTCHAR 090C
ENCODING 2316
SWIDTH 666 0
DWIDTH 12 0
BBX 13 13 0 -2
BITMAP
FFF8
0180
0180
3FE0
6730
6630
6630
6060
30C0
1180
0980
0190
00F0
ENDCHAR
STARTCHAR 090D
ENCODING 2317
SWIDTH 444 0
DWIDTH 8 0
BBX 9 17 0 -3
BITMAP
6300
6300
1C00
0000
FF80
6300
6300
6300
6300
6700
7000
3800
1C00
0E00
0700
0300
0700
ENDCHAR
STARTCHAR 090E
ENCODING 2318
SWIDTH 444 0
DWIDTH 8 0
BBX 9 17 0 -3
BITMAP
C000
FC00
0600
0600
FF80
6300
6300
6300
6300
6700
7000
3800
1C00
0E00
0700
0300
0700
ENDCHAR
STARTCHAR 090F
ENCODING 2319
SWIDTH 444 0
DWIDTH 8 0
BBX 9 13 0 -3
BITMAP
FF80
6300
6300
6300
6300
6700
7000
3800
1C00
0E00
0700
0300
0700
ENDCHAR
STARTCHAR 0910
ENCODING 2320
SWIDTH 444 0
DWIDTH 8 0
BBX 9 18 0 -2
BITMAP
1000
1800
0C00
0600
0700
FF80
6300
6300
6300
6300
6700
7000
3800
1C00
0E00
0700
0300
0700
ENDCHAR
STARTCHAR 0911
ENCODING 2321
SWIDTH 888 0
DWIDTH 16 0
BBX 16 15 0 0
BITMAP
0063
0063
001C
0000
3C7F
C636
0636
0C36
1C36
87F6
C336
4336
2336
1E36
0036
ENDCHAR
STARTCHAR 0912
ENCODING 2322
SWIDTH 888 0
DWIDTH 16 0
BBX 16 15 0 0
BITMAP
00C0
00FC
0006
0006
3C7F
C636
0636
0C36
1C36
87F6
C336
4336
2336
1E36
0036
ENDCHAR
STARTCHAR 0913
ENCODING 2323
SWIDTH 888 0
DWIDTH 16 0
BBX 16 16 0 1
BITMAP
0020
0030
0018
000C
0004
3C7F
C636
0636
0C36
1C36
87F6
C336
4336
2336
1E36
0036
ENDCHAR
STARTCHAR 0914
ENCODING 2324
SWIDTH 888 0
DWIDTH 16 0
BBX 16 16 0 1
BITMAP
0008
0008
006C
003C
000E
3C7F
C636
0636
0C36
1C36
87F6
C336
4336
2336
1E36
0036
ENDCHAR
STARTCHAR 0915
ENCODING 2325
SWIDTH 722 0
DWIDTH 13 0
BBX 12 11 1 0
BITMAP
FFF0
0600
0600
76E0
C730
C630
C630
CE60
7E40
0640
0600
ENDCHAR
STARTCHAR 0916
ENCODING 2326
SWIDTH 777 0
DWIDTH 14 0
BBX 13 11 1 0
BITMAP
FFF8
1830
1830
19B0
9B30
F330
61F0
7030
38F0
0FB0
0030
ENDCHAR
STARTCHAR 0917
ENCODING 2327
SWIDTH 500 0
DWIDTH 9 0
BBX 9 11 1 0
BITMAP
FF80
3300
3300
3300
7300
7300
3300
0300
0300
0300
0300
ENDCHAR
STARTCHAR 0918
ENCODING 2328
SWIDTH 611 0
DWIDTH 11 0
BBX 11 11 0 0
BITMAP
FFE0
70C0
60C0
70C0
1CC0
30C0
30C0
31C0
1EC0
00C0
00C0
ENDCHAR
STARTCHAR 0919
ENCODING 2329
SWIDTH 666 0
DWIDTH 12 0
BBX 12 11 1 0
BITMAP
FFE0
0180
0180
0FA0
1070
0820
87C0
40C0
20C0
1180
0F00
ENDCHAR
STARTCHAR 091A
ENCODING 2330
SWIDTH 611 0
DWIDTH 11 0
BBX 11 11 1 0
BITMAP
FFE0
00C0
00C0
7CC0
18C0
30C0
31C0
33C0
1EC0
00C0
00C0
ENDCHAR
STARTCHAR 091B
ENCODING 2331
SWIDTH 666 0
DWIDTH 12 0
BBX 13 11 0 0
BITMAP
FFF8
60C0
60C0
61E0
33F0
1B30
3330
31B0
30E0
39C0
1F00
ENDCHAR
STARTCHAR 091C
ENCODING 2332
SWIDTH 722 0
DWIDTH 13 0
BBX 12 11 1 0
BITMAP
FFF0
0060
0060
0060
87E0
4360
6360
3360
1E60
0060
0060
ENDCHAR
STARTCHAR 091D
ENCODING 2333
SWIDTH 666 0
DWIDTH 12 0
BBX 13 14 0 -3
BITMAP
FFF8
0630
0630
7E30
6030
3030
1FF0
0330
6330
7630
3C30
0C00
0600
0200
ENDCHAR
STARTCHAR 091E
ENCODING 2334
SWIDTH 666 0
DWIDTH 12 0
BBX 12 11 1 0
BITMAP
FFF0
0060
0060
7860
0460
0660
03E0
C660
7C60
0060
0060
ENDCHAR
STARTCHAR 091F
ENCODING 2335
SWIDTH 555 0
DWIDTH 10 0
BBX 10 11 0 0
BITMAP
FFC0
0180
0180
0180
1F80
7000
6000
6000
6000
30C0
0F00
ENDCHAR
STARTCHAR 0920
ENCODING 2336
SWIDTH 555 0
DWIDTH 10 0
BBX 10 11 0 0
BITMAP
FF80
0300
0300
0300
3F00
6100
61C0
60C0
60C0
3180
1F00
ENDCHAR
STARTCHAR 0921
ENCODING 2337
SWIDTH 611 0
DWIDTH 11 0
BBX 10 11 1 0
BITMAP
FFC0
0180
0180
0F80
1000
0800
87C0
40C0
20C0
1180
0F00
ENDCHAR
STARTCHAR 0922
ENCODING 2338
SWIDTH 555 0
DWIDTH 10 0
BBX 10 11 0 0
BITMAP
FFC0
0180
0180
3F80
3000
6000
6380
66C0
36C0
1FC0
0F80
ENDCHAR
STARTCHAR 0923
ENCODING 2339
SWIDTH 611 0
DWIDTH 11 0
BBX 11 11 0 0
BITMAP
FFE0
66C0
66C0
66C0
66C0
66C0
3CC0
00C0
00C0
00C0
00C0
ENDCHAR
STARTCHAR 0924
ENCODING 2340
SWIDTH 555 0
DWIDTH 10 0
BBX 11 11 0 -1
BITMAP
FFE0
00C0
00C0
3FC0
60C0
60C0
60C0
30C0
38C0
18C0
08C0
ENDCHAR
STARTCHAR 0925
ENCODING 2341
SWIDTH 666 0
DWIDTH 12 0
BBX 11 11 1 0
BITMAP
79E0
CCC0
CCC0
6CC0
0CC0
F8C0
61C0
23C0
1CC0
00C0
00C0
ENDCHAR
STARTCHAR 0926
ENCODING 2342
SWIDTH 500 0
DWIDTH 9 0
BBX 9 11 0 0
BITMAP
FF80
0300
0300
3F00
6000
6000
6300
3300
1F00
0300
0180
ENDCHAR
STARTCHAR 0927
ENCODING 2343
SWIDTH 611 0
DWIDTH 11 0
BBX 10 11 1 0
BITMAP
73C0
D980
C180
4180
3D80
3180
6380
6780
3D80
0180
0180
ENDCHAR
STARTCHAR 0928
ENCODING 2344
SWIDTH 555 0
DWIDTH 10 0
BBX 10 11 1 0
BITMAP
FFC0
0180
0180
0180
7F80
6180
2180
0180
0180
0180
0180
ENDCHAR
STARTCHAR 0929
ENCODING 2345
SWIDTH 555 0
DWIDTH 10 0
BBX 10 11 1 -1
BITMAP
FFC0
0180
0180
0180
7F80
6180
2180
0180
0180
0180
1980
ENDCHAR
STARTCHAR 092A
ENCODING 2346
SWIDTH 500 0
DWIDTH 9 0
BBX 9 11 0 0
BITMAP
FF80
6300
6300
6300
6300
6300
6700
3F00
0300
0300
0300
ENDCHAR
STARTCHAR 092B
ENCODING 2347
SWIDTH 722 0
DWIDTH 13 0
BBX 13 11 0 0
BITMAP
FFF8
6300
6300
6300
63F0
6398
6318
3F18
0330
0360
0300
ENDCHAR
STARTCHAR 092C
ENCODING 2348
SWIDTH 500 0
DWIDTH 9 0
BBX 8 11 1 0
BITMAP
FF
06
06
7E
E6
F6
D6
CE
7E
06
06
ENDCHAR
STARTCHAR 092D
ENCODING 2349
SWIDTH 555 0
DWIDTH 10 0
BBX 11 11 0 0
BITMAP
71E0
D8C0
D8C0
18C0
18C0
3FC0
38C0
18C0
00C0
00C0
00C0
ENDCHAR
STARTCHAR 092E
ENCODING 2350
SWIDTH 500 0
DWIDTH 9 0
BBX 9 11 1 0
BITMAP
FF80
6300
6300
6300
6300
FF00
E300
6300
0300
0300
0300
ENDCHAR
STARTCHAR 092F
ENCODING 2351
SWIDTH 555 0
DWIDTH 10 0
BBX 10 11 0 0
BITMAP
7FC0
1180
1980
1980
F980
6180
6380
3F80
0180
0180
0180
ENDCHAR
STARTCHAR 0930
ENCODING 2352
SWIDTH 444 0
DWIDTH 8 0
BBX 7 11 1 0
BITMAP
FE
0C
0C
8C
8C
78
60
30
18
0C
04
ENDCHAR
STARTCHAR 0931
ENCODING 2353
SWIDTH 444 0
DWIDTH 8 0
BBX 8 12 0 -2
BITMAP
7F
06
06
46
46
3C
30
18
0C
06
02
C0
ENDCHAR
STARTCHAR 0932
ENCODING 2354
SWIDTH 666 0
DWIDTH 12 0
BBX 11 11 1 -1
BITMAP
FFE0
00C0
00C0
00C0
79C0
C6C0
C4C0
C4C0
60C0
70C0
18C0
ENDCHAR
STARTCHAR 0933
ENCODING 2355
SWIDTH 666 0
DWIDTH 12 0
BBX 12 10 1 1
BITMAP
FFF0
0180
0180
0180
7BC0
CE60
C460
C460
CE60
7BC0
ENDCHAR
STARTCHAR 0934
ENCODING 2356
SWIDTH 666 0
DWIDTH 12 0
BBX 12 12 1 -2
BITMAP
FFF0
0180
0180
0180
7BC0
CE60
C460
C460
CE60
7BC0
0000
0300
ENDCHAR
STARTCHAR 0935
ENCODING 2357
SWIDTH 500 0
DWIDTH 9 0
BBX 9 11 0 0
BITMAP
7F80
0300
0300
7B00
C300
C300
C300
6700
3F00
0300
0300
ENDCHAR
STARTCHAR 0936
ENCODING 2358
SWIDTH 666 0
DWIDTH 12 0
BBX 12 11 0 -1
BITMAP
FFF0
6660
6360
6760
3F60
0360
4E60
7860
3860
0C60
0660
ENDCHAR
STARTCHAR 0937
ENCODING 2359
SWIDTH 500 0
DWIDTH 9 0
BBX 9 11 0 0
BITMAP
FF80
7300
7300
6B00
6700
6700
6300
3F00
0300
0300
0300
ENDCHAR
STARTCHAR 0938
ENCODING 2360
SWIDTH 666 0
DWIDTH 12 0
BBX 11 11 1 -1
BITMAP
FFE0
0CC0
0CC0
8CC0
8CC0
FFC0
60C0
30C0
18C0
1CC0
04C0
ENDCHAR
STARTCHAR 0939
ENCODING 2361
SWIDTH 500 0
DWIDTH 9 0
BBX 9 12 0 -1
BITMAP
FF80
0300
0300
7F00
6000
2000
1F00
3180
6180
6100
3800
0E00
ENDCHAR
STARTCHAR 093A
ENCODING 2362
SWIDTH 0 0
DWIDTH 0 0
BBX 2 3 -2 11
BITMAP
C0
C0
C0
ENDCHAR
STARTCHAR 093B
ENCODING 2363
SWIDTH 222 0
DWIDTH 4 0
BBX 4 14 0 0
BITMAP
30
30
30
F0
60
60
60
60
60
60
60
60
60
60
ENDCHAR
STARTCHAR 093C
ENCODING 2364
SWIDTH 0 0
DWIDTH 0 0
BBX 2 1 -7 -1
BITMAP
C0
ENDCHAR
STARTCHAR 093D
ENCODING 2365
SWIDTH 444 0
DWIDTH 8 0
BBX 8 10 1 0
BITMAP
7C
C0
E0
70
18
0E
07
83
C3
3E
ENDCHAR
STARTCHAR 093E
ENCODING 2366
SWIDTH 222 0
DWIDTH 4 0
BBX 4 11 0 0
BITMAP
F0
60
60
60
60
60
60
60
60
60
60
ENDCHAR
STARTCHAR 093F
ENCODING 2367
SWIDTH 222 0
DWIDTH 4 0
BBX 12 15 0 0
BITMAP
1F00
6180
6060
6030
F000
6000
6000
6000
6000
6000
6000
6000
6000
6000
6000
ENDCHAR
STARTCHAR 0940
ENCODING 2368
SWIDTH 222 0
DWIDTH 4 0
BBX 8 15 -4 0
BITMAP
78
CC
C6
46
0F
06
06
06
06
06
06
06
06
06
06
ENDCHAR
STARTCHAR 0941
ENCODING 2369
SWIDTH 0 0
DWIDTH 0 0
BBX 9 5 -8 -5
BITMAP
0F00
0980
C180
6180
3F00
ENDCHAR
STARTCHAR 0942
ENCODING 2370
SWIDTH 0 0
DWIDTH 0 0
BBX 9 5 -6 -5
BITMAP
7E00
C300
C180
C800
7800
ENDCHAR
STARTCHAR 0943
ENCODING 2371
SWIDTH 0 0
DWIDTH 0 0
BBX 6 5 -5 -5
BITMAP
78
C0
C0
C0
3C
ENDCHAR
STARTCHAR 0944
ENCODING 2372
SWIDTH 0 0
DWIDTH 0 0
BBX 7 7 -6 -5
BITMAP
78
C0
C0
3C
60
60
3E
ENDCHAR
STARTCHAR 0945
ENCODING 2373
SWIDTH 0 0
DWIDTH 0 0
BBX 7 3 -5 12
BITMAP
C6
C6
38
ENDCHAR
STARTCHAR 0946
ENCODING 2374
SWIDTH 0 0
DWIDTH 0 0
BBX 7 4 -8 10
BITMAP
C0
FC
06
06
ENDCHAR
STARTCHAR 0947
ENCODING 2375
SWIDTH 0 0
DWIDTH 0 0
BBX 5 5 -7 11
BITMAP
80
C0
60
30
18
ENDCHAR
STARTCHAR 0948
ENCODING 2376
SWIDTH 0 0
DWIDTH 0 0
BBX 5 5 -7 11
BITMAP
20
10
90
78
18
ENDCHAR
STARTCHAR 0949
ENCODING 2377
SWIDTH 222 0
DWIDTH 4 0
BBX 7 15 -1 0
BITMAP
C6
C6
38
00
78
30
30
30
30
30
30
30
30
30
30
ENDCHAR
STARTCHAR 094A
ENCODING 2378
SWIDTH 222 0
DWIDTH 4 0
BBX 8 15 -4 0
BITMAP
C0
FC
06
06
0F
06
06
06
06
06
06
06
06
06
06
ENDCHAR
STARTCHAR 094B
ENCODING 2379
SWIDTH 222 0
DWIDTH 4 0
BBX 7 16 -3 1
BITMAP
80
C0
60
30
18
1E
0C
0C
0C
0C
0C
0C
0C
0C
0C
0C
ENDCHAR
STARTCHAR 094C
ENCODING 2380
SWIDTH 222 0
DWIDTH 4 0
BBX 8 16 -4 1
BITMAP
10
18
C8
3C
0C
0F
06
06
06
06
06
06
06
06
06
06
ENDCHAR
STARTCHAR 094D
ENCODING 2381
SWIDTH 0 0
DWIDTH 0 0
BBX 4 4 -3 -4
BITMAP
C0
60
20
10
ENDCHAR
STARTCHAR 094E
ENCODING 2382
SWIDTH 166 0
DWIDTH 3 0
BBX 3 11 0 0
BITMAP
E0
C0
C0
C0
C0
C0
C0
C0
C0
C0
C0
ENDCHAR
STARTCHAR 094F
ENCODING 2383
SWIDTH 222 0
DWIDTH 4 0
BBX 9 15 -5 1
BITMAP
0600
C180
7D80
0780
0780
0300
0300
0300
0300
0300
0300
0300
0300
0300
0300
ENDCHAR
STARTCHAR 0950
ENCODING 2384
SWIDTH 833 0
DWIDTH 15 0
BBX 15 14 1 1
BITMAP
0020
01AC
018C
0070
3C00
4600
061C
0C24
1C66
87C6
4306
6306
230C
1E18
ENDCHAR
STARTCHAR 0951
ENCODING 2385
SWIDTH 0 0
DWIDTH 0 0
BBX 2 5 -2 11
BITMAP
C0
C0
C0
C0
C0
ENDCHAR
STARTCHAR 0952
ENCODING 2386
SWIDTH 0 0
DWIDTH 0 0
BBX 10 1 -10 -5
BITMAP
FFC0
ENDCHAR
STARTCHAR 0953
ENCODING 2387
SWIDTH 0 0
DWIDTH 0 0
BBX 3 3 -7 13
BITMAP
C0
40
20
ENDCHAR
STARTCHAR 0954
ENCODING 2388
SWIDTH 0 0
DWIDTH 0 0
BBX 3 3 -4 13
BITMAP
60
40
80
ENDCHAR
STARTCHAR 0955
ENCODING 2389
SWIDTH 0 0
DWIDTH 0 0
BBX 7 5 -5 11
BITMAP
C6
C6
38
00
FE
ENDCHAR
STARTCHAR 0956
ENCODING 2390
SWIDTH 0 0
DWIDTH 0 0
BBX 8 2 -8 -3
BITMAP
C3
7E
ENDCHAR
STARTCHAR 0957
ENCODING 2391
SWIDTH 0 0
DWIDTH 0 0
BBX 8 4 -8 -5
BITMAP
C3
7E
C3
7E
ENDCHAR
STARTCHAR 0958
ENCODING 2392
SWIDTH 722 0
DWIDTH 13 0
BBX 12 12 1 -2
BITMAP
FFF0
0600
0600
76E0
C730
C630
C630
CE60
7E40
0640
0600
6000
ENDCHAR
STARTCHAR 0959
ENCODING 2393
SWIDTH 777 0
DWIDTH 14 0
BBX 13 13 1 -3
BITMAP
FFF8
1830
1830
19B0
9B30
F330
61F0
7030
38F0
0FB0
0030
0000
0C00
ENDCHAR
STARTCHAR 095A
ENCODING 2394
SWIDTH 500 0
DWIDTH 9 0
BBX 9 11 1 0
BITMAP
FF80
3300
3300
3300
7300
7300
3300
0300
0300
C300
0300
ENDCHAR
STARTCHAR 095B
ENCODING 2395
SWIDTH 722 0
DWIDTH 13 0
BBX 12 12 1 -2
BITMAP
FFF0
0060
0060
0060
87E0
4360
6360
3360
1E60
0060
0060
1800
ENDCHAR
STARTCHAR 095C
ENCODING 2396
SWIDTH 611 0
DWIDTH 11 0
BBX 10 13 1 -3
BITMAP
FFC0
0180
0180
0F80
1000
0800
87C0
40C0
20C0
1180
0F00
0000
1800
ENDCHAR
STARTCHAR 095D
ENCODING 2397
SWIDTH 555 0
DWIDTH 10 0
BBX 10 13 0 -3
BITMAP
FFC0
0180
0180
3F80
3000
6000
6380
66C0
36C0
1FC0
0F80
0000
1800
ENDCHAR
STARTCHAR 095E
ENCODING 2398
SWIDTH 722 0
DWIDTH 13 0
BBX 13 11 0 -1
BITMAP
FFF8
6300
6300
6300
63F0
6398
6318
3F18
0330
0360
3300
ENDCHAR
STARTCHAR 095F
ENCODING 2399
SWIDTH 555 0
DWIDTH 10 0
BBX 10 11 0 -1
BITMAP
7FC0
1180
1980
1980
F980
6180
6380
3F80
0180
0180
1980
ENDCHAR
STARTCHAR 0960
ENCODING 2400
SWIDTH 888 0
DWIDTH 16 0
BBX 16 14 1 -3
BITMAP
FFFE
0180
0180
3998
CDB8
87F8
03C8
0FB0
39B0
21B0
019E
0030
0030
000F
ENDCHAR
STARTCHAR 0961
ENCODING 2401
SWIDTH 611 0
DWIDTH 11 0
BBX 11 16 1 -5
BITMAP
FFE0
0300
0300
7F80
CCC0
CCC0
C0C0
C180
6300
6600
3600
0600
03E0
0600
0600
03E0
ENDCHAR
STARTCHAR 0962
ENCODING 2402
SWIDTH 0 0
DWIDTH 0 0
BBX 8 7 -7 -4
BITMAP
6E
92
82
84
4C
0C
07
ENDCHAR
STARTCHAR 0963
ENCODING 2403
SWIDTH 0 0
DWIDTH 0 0
BBX 9 10 -8 -4
BITMAP
7600
8900
8100
8200
4600
3400
0400
0380
0400
0380
ENDCHAR
STARTCHAR 0964
ENCODING 2404
SWIDTH 666 0
DWIDTH 12 0
BBX 2 12 7 -1
BITMAP
C0
C0
C0
C0
C0
C0
C0
C0
C0
C0
C0
C0
ENDCHAR
STARTCHAR 0965
ENCODING 2405
SWIDTH 666 0
DWIDTH 12 0
BBX 5 12 5 -1
BITMAP
D8
D8
D8
D8
D8
D8
D8
D8
D8
D8
D8
D8
ENDCHAR
STARTCHAR 0966
ENCODING 2406
SWIDTH 555 0
DWIDTH 10 0
BBX 7 7 2 2
BITMAP
78
EC
C6
C6
C6
CE
7C
ENDCHAR
STARTCHAR 0967
ENCODING 2407
SWIDTH 555 0
DWIDTH 10 0
BBX 7 11 2 0
BITMAP
38
EE
C6
C6
C6
7E
06
06
06
06
06
ENDCHAR
STARTCHAR 0968
ENCODING 2408
SWIDTH 555 0
DWIDTH 10 0
BBX 8 12 2 -1
BITMAP
7C
C6
03
03
03
06
6C
78
18
0C
06
04
ENDCHAR
STARTCHAR 0969
ENCODING 2409
SWIDTH 555 0
DWIDTH 10 0
BBX 7 13 2 -2
BITMAP
F8
0C
0C
0C
F0
0C
06
C6
FC
78
30
18
08
ENDCHAR
STARTCHAR 096A
ENCODING 2410
SWIDTH 555 0
DWIDTH 10 0
BBX 10 11 0 0
BITMAP
6180
E0C0
C0C0
6180
3B00
0E00
1F00
3980
3180
3180
1F00
ENDCHAR
STARTCHAR 096B
ENCODING 2411
SWIDTH 555 0
DWIDTH 10 0
BBX 7 11 2 0
BITMAP
40
40
C0
CC
CC
CC
7C
06
06
02
02
ENDCHAR
STARTCHAR 096C
ENCODING 2412
SWIDTH 555 0
DWIDTH 10 0
BBX 6 13 2 -3
BITMAP
78
C0
C0
C0
60
38
60
C0
CC
CC
38
04
04
ENDCHAR
STARTCHAR 096D
ENCODING 2413
SWIDTH 555 0
DWIDTH 10 0
BBX 9 10 1 0
BITMAP
CF00
D980
D980
D980
D980
CF80
4380
6300
2300
3C00
ENDCHAR
STARTCHAR 096E
ENCODING 2414
SWIDTH 555 0
DWIDTH 10 0
BBX 7 11 2 0
BITMAP
10
10
30
20
60
60
60
C0
C6
C6
7C
ENDCHAR
STARTCHAR 096F
ENCODING 2415
SWIDTH 555 0
DWIDTH 10 0
BBX 7 13 2 -3
BITMAP
78
C4
C6
C6
C6
78
30
30
18
0C
0E
06
0E
ENDCHAR
STARTCHAR 0970
ENCODING 2416
SWIDTH 388 0
DWIDTH 7 0
BBX 5 4 2 3
BITMAP
70
D8
D8
70
ENDCHAR
STARTCHAR 0971
ENCODING 2417
SWIDTH 388 0
DWIDTH 7 0
BBX 2 2 2 13
BITMAP
C0
C0
ENDCHAR
STARTCHAR 0972
ENCODING 2418
SWIDTH 722 0
DWIDTH 13 0
BBX 14 15 1 0
BITMAP
018C
018C
0070
0000
3CF0
C660
0660
0C60
1C60
87E0
C360
4360
2360
1E60
0060
ENDCHAR
STARTCHAR 0973
ENCODING 2419
SWIDTH 722 0
DWIDTH 13 0
BBX 12 14 1 0
BITMAP
0060
0060
0060
3CF0
C660
0660
0C60
1C60
87E0
C360
4360
2360
1E60
0060
ENDCHAR
STARTCHAR 0974
ENCODING 2420
SWIDTH 888 0
DWIDTH 16 0
BBX 16 14 0 0
BITMAP
0006
0006
0006
3C7F
C636
0636
0C36
1C36
87F6
C336
4336
2336
1E36
0036
ENDCHAR
STARTCHAR 0975
ENCODING 2421
SWIDTH 888 0
DWIDTH 16 0
BBX 16 15 0 1
BITMAP
000C
0183
00FB
000F
3C7F
C636
0636
0C36
1C36
87F6
C336
4336
2336
1E36
0036
ENDCHAR
STARTCHAR 0976
ENCODING 2422
SWIDTH 722 0
DWIDTH 13 0
BBX 12 14 1 -3
BITMAP
3CF0
C660
0660
0C60
1C60
87E0
C360
4360
2360
1E60
0060
0000
30C0
1F80
ENDCHAR
STARTCHAR 0977
ENCODING 2423
SWIDTH 722 0
DWIDTH 13 0
BBX 12 16 1 -5
BITMAP
3CF0
C660
0660
0C60
1C60
87E0
C360
4360
2360
1E60
0060
0000
30C0
1F80
30C0
1F80
ENDCHAR
STARTCHAR 0979
ENCODING 2425
SWIDTH 722 0
DWIDTH 13 0
BBX 12 13 1 -3
BITMAP
FFF0
0060
0060
0060
87E0
4360
6360
3360
1E60
0060
6660
0000
1800
ENDCHAR
STARTCHAR 097A
ENCODING 2426
SWIDTH 555 0
DWIDTH 10 0
BBX 10 11 0 0
BITMAP
7FC0
1180
1980
1980
F580
6380
6380
3F80
0180
0180
0180
ENDCHAR
STARTCHAR 097B
ENCODING 2427
SWIDTH 555 0
DWIDTH 10 0
BBX 10 11 1 0
BITMAP
FFC0
0180
0180
0180
7F80
6180
2180
0180
0180
0180
7FC0
ENDCHAR
STARTCHAR 097C
ENCODING 2428
SWIDTH 722 0
DWIDTH 13 0
BBX 12 11 1 0
BITMAP
FFF0
0060
0060
0060
87E0
4360
6360
3360
1E60
0060
FFF0
ENDCHAR
STARTCHAR 097D
ENCODING 2429
SWIDTH 555 0
DWIDTH 10 0
BBX 8 11 2 0
BITMAP
7C
86
03
03
03
06
1C
38
30
30
30
ENDCHAR
STARTCHAR 097E
ENCODING 2430
SWIDTH 611 0
DWIDTH 11 0
BBX 11 13 0 -2
BITMAP
7FE0
00C0
00C0
07C0
0800
0400
43E0
2060
1060
08C0
0780
0000
FFC0
ENDCHAR
STARTCHAR 097F
ENCODING 2431
SWIDTH 500 0
DWIDTH 9 0
BBX 8 11 1 0
BITMAP
FF
06
06
7E
E6
D6
CE
7E
06
06
FF
ENDCHAR
STARTCHAR 0981
ENCODING 2433
SWIDTH 0 0
DWIDTH 0 0
BBX 6 3 -6 11
BITMAP
30
84
78
ENDCHAR
STARTCHAR 0982
ENCODING 2434
SWIDTH 277 0
DWIDTH 5 0
BBX 5 9 1 0
BITMAP
40
A0
A0
40
80
C0
60
30
18
ENDCHAR
STARTCHAR 0983
ENCODING 2435
SWIDTH 277 0
DWIDTH 5 0
BBX 3 8 1 1
BITMAP
E0
A0
E0
00
40
A0
A0
40
ENDCHAR
STARTCHAR 0985
ENCODING 2437
SWIDTH 666 0
DWIDTH 12 0
BBX 11 10 1 0
BITMAP
FFE0
8E40
9340
4140
6140
33C0
1EC0
0040
0040
0040
ENDCHAR
STARTCHAR 0986
ENCODING 2438
SWIDTH 833 0
DWIDTH 15 0
BBX 15 11 0 0
BITMAP
0004
FFFE
4724
49A4
20A4
30A4
19E4
0F64
0024
0024
0024
ENDCHAR
STARTCHAR 0987
ENCODING 2439
SWIDTH 500 0
DWIDTH 9 0
BBX 9 15 0 0
BITMAP
8000
8000
7E00
0200
FF00
1C00
3200
0200
0200
6400
1800
0400
0200
0100
0080
ENDCHAR
STARTCHAR 0988
ENCODING 2440
SWIDTH 555 0
DWIDTH 10 0
BBX 10 14 0 0
BITMAP
4000
4000
7F00
0080
FFC0
3800
2B80
0700
0700
2A00
1200
0200
0300
0100
ENDCHAR
STARTCHAR 0989
ENCODING 2441
SWIDTH 555 0
DWIDTH 10 0
BBX 9 13 0 2
BITMAP
4000
4000
7F00
0100
7F80
0800
C800
C900
6A80
6C80
2080
3100
0E00
ENDCHAR
STARTCHAR 098A
ENCODING 2442
SWIDTH 555 0
DWIDTH 10 0
BBX 11 13 0 2
BITMAP
C000
C000
7F00
0080
7FE0
0400
6480
65C0
2640
3040
3040
1880
0F00
ENDCHAR
STARTCHAR 098B
ENCODING 2443
SWIDTH 611 0
DWIDTH 11 0
BBX 10 11 0 0
BITMAP
0280
9EC0
E680
1E80
3280
2380
1B80
0680
0280
0280
0280
ENDCHAR
STARTCHAR 098C
ENCODING 2444
SWIDTH 500 0
DWIDTH 9 0
BBX 8 11 2 1
BITMAP
C0
80
40
38
36
49
49
49
13
3E
38
ENDCHAR
STARTCHAR 098F
ENCODING 2447
SWIDTH 555 0
DWIDTH 10 0
BBX 8 10 1 0
BITMAP
07
0D
19
91
99
81
81
7F
01
01
ENDCHAR
STARTCHAR 0990
ENCODING 2448
SWIDTH 611 0
DWIDTH 11 0
BBX 10 15 1 1
BITMAP
2000
2000
3000
1E00
0180
0740
1940
31C0
A100
B100
8100
8100
7F00
0300
0100
ENDCHAR
STARTCHAR 0993
ENCODING 2451
SWIDTH 555 0
DWIDTH 10 0
BBX 9 9 0 1
BITMAP
0700
9880
5080
5980
4300
2080
3080
1880
0F00
ENDCHAR
STARTCHAR 0994
ENCODING 2452
SWIDTH 611 0
DWIDTH 11 0
BBX 11 14 0 2
BITMAP
1000
1000
0C00
0380
0040
0720
98A0
50A0
58C0
4300
2080
3080
1880
0F00
ENDCHAR
STARTCHAR 0995
ENCODING 2453
SWIDTH 555 0
DWIDTH 10 0
BBX 11 10 0 0
BITMAP
FFE0
0400
1F00
6480
8440
6440
1D80
0C00
0400
0400
ENDCHAR
STARTCHAR 0996
ENCODING 2454
SWIDTH 444 0
DWIDTH 8 0
BBX 8 11 1 0
BITMAP
02
13
AA
EA
1A
62
12
0E
06
02
02
ENDCHAR
STARTCHAR 0997
ENCODING 2455
SWIDTH 500 0
DWIDTH 9 0
BBX 8 11 1 0
BITMAP
02
7B
8E
B6
D2
12
22
02
02
02
02
ENDCHAR
STARTCHAR 0998
ENCODING 2456
SWIDTH 444 0
DWIDTH 8 0
BBX 8 10 0 0
BITMAP
FF
42
4A
3A
12
22
1A
06
02
02
ENDCHAR
STARTCHAR 0999
ENCODING 2457
SWIDTH 500 0
DWIDTH 9 0
BBX 8 10 0 0
BITMAP
4C
6A
32
9C
92
57
4D
61
31
1E
ENDCHAR
STARTCHAR 099A
ENCODING 2458
SWIDTH 388 0
DWIDTH 7 0
BBX 8 10 0 0
BITMAP
FF
40
40
70
4E
42
46
4C
58
70
ENDCHAR
STARTCHAR 099B
ENCODING 2459
SWIDTH 500 0
DWIDTH 9 0
BBX 9 11 0 -2
BITMAP
FF00
4000
7C00
4A00
5A00
7200
0400
3800
0C00
0300
0180
ENDCHAR
STARTCHAR 099C
ENCODING 2460
SWIDTH 611 0
DWIDTH 11 0
BBX 10 10 0 0
BITMAP
FFC0
1800
27C0
6040
6480
5A80
2280
2680
1C80
0040
ENDCHAR
STARTCHAR 099D
ENCODING 2461
SWIDTH 555 0
DWIDTH 10 0
BBX 10 11 0 0
BITMAP
0080
FCC0
0480
1C80
7480
C480
6480
1680
0D80
0480
0400
ENDCHAR
STARTCHAR 099E
ENCODING 2462
SWIDTH 777 0
DWIDTH 14 0
BBX 14 10 0 0
BITMAP
0380
0CB8
18E4
9084
9898
8084
80E4
7FBC
0180
0080
ENDCHAR
STARTCHAR 099F
ENCODING 2463
SWIDTH 388 0
DWIDTH 7 0
BBX 9 13 -1 2
BITMAP
8000
8000
7F00
0100
7F80
2000
2700
2100
2100
2100
2200
2400
3800
ENDCHAR
STARTCHAR 09A0
ENCODING 2464
SWIDTH 388 0
DWIDTH 7 0
BBX 9 15 -1 1
BITMAP
3000
2000
2000
3000
1800
FF80
0400
0600
0600
0900
1900
6100
4100
6200
1C00
ENDCHAR
STARTCHAR 09A1
ENCODING 2465
SWIDTH 555 0
DWIDTH 10 0
BBX 8 9 1 1
BITMAP
FF
10
90
92
95
59
41
23
1C
ENDCHAR
STARTCHAR 09A2
ENCODING 2466
SWIDTH 388 0
DWIDTH 7 0
BBX 7 10 0 0
BITMAP
FC
40
40
4C
42
42
42
44
58
70
ENDCHAR
STARTCHAR 09A3
ENCODING 2467
SWIDTH 444 0
DWIDTH 8 0
BBX 7 11 1 0
BITMAP
04
76
8C
84
84
44
04
04
04
04
04
ENDCHAR
STARTCHAR 09A4
ENCODING 2468
SWIDTH 555 0
DWIDTH 10 0
BBX 12 9 -1 1
BITMAP
FFF0
0380
2480
2440
2040
1040
1040
0880
0780
ENDCHAR
STARTCHAR 09A5
ENCODING 2469
SWIDTH 500 0
DWIDTH 9 0
BBX 8 11 0 0
BITMAP
02
7B
86
C6
1A
62
1A
0E
06
02
02
ENDCHAR
STARTCHAR 09A6
ENCODING 2470
SWIDTH 444 0
DWIDTH 8 0
BBX 7 10 0 0
BITMAP
FE
40
40
4E
74
64
44
04
04
04
ENDCHAR
STARTCHAR 09A7
ENCODING 2471
SWIDTH 444 0
DWIDTH 8 0
BBX 7 10 1 0
BITMAP
E6
84
DC
64
C4
E4
14
0C
04
04
ENDCHAR
STARTCHAR 09A8
ENCODING 2472
SWIDTH 444 0
DWIDTH 8 0
BBX 8 10 0 0
BITMAP
FF
02
02
3A
66
42
42
02
02
02
ENDCHAR
STARTCHAR 09AA
ENCODING 2474
SWIDTH 500 0
DWIDTH 9 0
BBX 9 11 0 0
BITMAP
0100
3980
4500
E700
2900
1100
2100
0100
0100
0100
0100
ENDCHAR
STARTCHAR 09AB
ENCODING 2475
SWIDTH 611 0
DWIDTH 11 0
BBX 10 10 1 0
BITMAP
FFC0
2600
1500
2480
4480
6580
1400
0C00
0400
0400
ENDCHAR
STARTCHAR 09AC
ENCODING 2476
SWIDTH 388 0
DWIDTH 7 0
BBX 7 10 0 0
BITMAP
FE
04
0C
34
C4
64
1C
0C
04
04
ENDCHAR
STARTCHAR 09AD
ENCODING 2477
SWIDTH 555 0
DWIDTH 10 0
BBX 10 9 0 1
BITMAP
FFC0
0000
9C00
9180
4E40
4040
2040
1880
0F00
ENDCHAR
STARTCHAR 09AE
ENCODING 2478
SWIDTH 444 0
DWIDTH 8 0
BBX 8 10 0 0
BITMAP
FF
62
12
3A
46
42
42
22
02
02
ENDCHAR
STARTCHAR 09AF
ENCODING 2479
SWIDTH 444 0
DWIDTH 8 0
BBX 7 10 1 0
BITMAP
FE
44
24
24
44
64
14
0C
04
04
ENDCHAR
STARTCHAR 09B0
ENCODING 2480
SWIDTH 388 0
DWIDTH 7 0
BBX 7 10 0 0
BITMAP
FE
04
0C
34
C4
64
1C
3C
34
04
ENDCHAR
STARTCHAR 09B2
ENCODING 2482
SWIDTH 500 0
DWIDTH 9 0
BBX 9 10 0 0
BITMAP
FF80
0100
3700
4B00
4100
4100
2100
0100
0100
0100
ENDCHAR
STARTCHAR 09B6
ENCODING 2486
SWIDTH 500 0
DWIDTH 9 0
BBX 9 11 0 0
BITMAP
0100
ED80
3B00
1900
1900
6500
0100
0100
0100
0100
0100
ENDCHAR
STARTCHAR 09B7
ENCODING 2487
SWIDTH 444 0
DWIDTH 8 0
BBX 7 10 1 0
BITMAP
FE
44
34
3C
4C
64
14
0C
04
04
ENDCHAR
STARTCHAR 09B8
ENCODING 2488
SWIDTH 500 0
DWIDTH 9 0
BBX 9 10 0 0
BITMAP
FF80
E100
1100
1D00
1B00
5100
6100
0100
0100
0100
ENDCHAR
STARTCHAR 09B9
ENCODING 2489
SWIDTH 444 0
DWIDTH 8 0
BBX 9 11 0 -1
BITMAP
FF00
1C00
2600
2200
0200
4400
3800
0C00
0200
0100
0080
ENDCHAR
STARTCHAR 09BC
ENCODING 2492
SWIDTH 0 0
DWIDTH 0 0
BBX 2 2 -6 -2
BITMAP
C0
C0
ENDCHAR
STARTCHAR 09BD
ENCODING 2493
SWIDTH 444 0
DWIDTH 8 0
BBX 9 11 0 -1
BITMAP
F800
3C00
4600
4200
0200
4400
3800
0C00
0200
0100
0080
ENDCHAR
STARTCHAR 09BE
ENCODING 2494
SWIDTH 166 0
DWIDTH 3 0
BBX 5 11 -2 0
BITMAP
10
F8
30
10
10
10
10
10
10
10
10
ENDCHAR
STARTCHAR 09BF
ENCODING 2495
SWIDTH 166 0
DWIDTH 3 0
BBX 9 14 0 0
BITMAP
3C00
4300
8080
8000
E000
4000
4000
4000
4000
4000
4000
4000
4000
4000
ENDCHAR
STARTCHAR 09C0
ENCODING 2496
SWIDTH 166 0
DWIDTH 3 0
BBX 10 15 -7 0
BITMAP
7C00
C600
8100
F900
0480
05C0
0080
0080
0080
0080
0080
0080
0080
0080
0080
ENDCHAR
STARTCHAR 09C1
ENCODING 2497
SWIDTH 0 0
DWIDTH 0 0
BBX 7 5 -5 -5
BITMAP
08
78
98
E6
02
ENDCHAR
STARTCHAR 09C2
ENCODING 2498
SWIDTH 0 0
DWIDTH 0 0
BBX 6 5 -3 -5
BITMAP
20
60
80
F8
0C
ENDCHAR
STARTCHAR 09C3
ENCODING 2499
SWIDTH 0 0
DWIDTH 0 0
BBX 4 5 -5 -5
BITMAP
60
C0
C0
60
10
ENDCHAR
STARTCHAR 09C4
ENCODING 2500
SWIDTH 0 0
DWIDTH 0 0
BBX 6 7 -5 -5
BITMAP
10
30
30
78
C4
60
10
ENDCHAR
STARTCHAR 09C7
ENCODING 2503
SWIDTH 277 0
DWIDTH 5 0
BBX 5 10 0 0
BITMAP
F8
10
20
40
40
40
40
40
20
18
ENDCHAR
STARTCHAR 09C8
ENCODING 2504
SWIDTH 277 0
DWIDTH 5 0
BBX 7 14 -1 0
BITMAP
80
80
7C
04
7E
08
10
30
20
20
20
20
10
0C
ENDCHAR
ENDFONT
